%TF.GenerationSoftware,KiCad,Pcbnew,(7.0.0)*%
%TF.CreationDate,2023-03-27T10:38:50+02:00*%
%TF.ProjectId,JTAG-SWD Adapter,4a544147-2d53-4574-9420-416461707465,rev?*%
%TF.SameCoordinates,Original*%
%TF.FileFunction,Copper,L2,Bot*%
%TF.FilePolarity,Positive*%
%FSLAX46Y46*%
G04 Gerber Fmt 4.6, Leading zero omitted, Abs format (unit mm)*
G04 Created by KiCad (PCBNEW (7.0.0)) date 2023-03-27 10:38:50*
%MOMM*%
%LPD*%
G01*
G04 APERTURE LIST*
G04 Aperture macros list*
%AMRoundRect*
0 Rectangle with rounded corners*
0 $1 Rounding radius*
0 $2 $3 $4 $5 $6 $7 $8 $9 X,Y pos of 4 corners*
0 Add a 4 corners polygon primitive as box body*
4,1,4,$2,$3,$4,$5,$6,$7,$8,$9,$2,$3,0*
0 Add four circle primitives for the rounded corners*
1,1,$1+$1,$2,$3*
1,1,$1+$1,$4,$5*
1,1,$1+$1,$6,$7*
1,1,$1+$1,$8,$9*
0 Add four rect primitives between the rounded corners*
20,1,$1+$1,$2,$3,$4,$5,0*
20,1,$1+$1,$4,$5,$6,$7,0*
20,1,$1+$1,$6,$7,$8,$9,0*
20,1,$1+$1,$8,$9,$2,$3,0*%
G04 Aperture macros list end*
%TA.AperFunction,ComponentPad*%
%ADD10C,0.800000*%
%TD*%
%TA.AperFunction,ComponentPad*%
%ADD11C,6.400000*%
%TD*%
%TA.AperFunction,ComponentPad*%
%ADD12R,1.000000X1.000000*%
%TD*%
%TA.AperFunction,ComponentPad*%
%ADD13O,1.000000X1.000000*%
%TD*%
%TA.AperFunction,ComponentPad*%
%ADD14RoundRect,0.250000X0.600000X0.600000X-0.600000X0.600000X-0.600000X-0.600000X0.600000X-0.600000X0*%
%TD*%
%TA.AperFunction,ComponentPad*%
%ADD15C,1.700000*%
%TD*%
%TA.AperFunction,ComponentPad*%
%ADD16RoundRect,0.250000X-0.600000X-0.600000X0.600000X-0.600000X0.600000X0.600000X-0.600000X0.600000X0*%
%TD*%
%TA.AperFunction,ViaPad*%
%ADD17C,0.600000*%
%TD*%
%TA.AperFunction,ViaPad*%
%ADD18C,0.800000*%
%TD*%
%TA.AperFunction,Conductor*%
%ADD19C,0.400000*%
%TD*%
%TA.AperFunction,Conductor*%
%ADD20C,0.250000*%
%TD*%
G04 APERTURE END LIST*
D10*
%TO.P,H4,1*%
%TO.N,N/C*%
X102000000Y-147600000D03*
X103697056Y-151697056D03*
X103697056Y-148302944D03*
X104400000Y-150000000D03*
D11*
X102000000Y-150000000D03*
D10*
X102000000Y-152400000D03*
X100302944Y-148302944D03*
X100302944Y-151697056D03*
X99600000Y-150000000D03*
%TD*%
%TO.P,H3,1*%
%TO.N,N/C*%
X143000000Y-147600000D03*
X144697056Y-151697056D03*
X144697056Y-148302944D03*
X145400000Y-150000000D03*
D11*
X143000000Y-150000000D03*
D10*
X143000000Y-152400000D03*
X141302944Y-148302944D03*
X141302944Y-151697056D03*
X140600000Y-150000000D03*
%TD*%
%TO.P,H2,1*%
%TO.N,N/C*%
X143000000Y-106600000D03*
X144697056Y-110697056D03*
X144697056Y-107302944D03*
X145400000Y-109000000D03*
D11*
X143000000Y-109000000D03*
D10*
X143000000Y-111400000D03*
X141302944Y-107302944D03*
X141302944Y-110697056D03*
X140600000Y-109000000D03*
%TD*%
%TO.P,H1,1*%
%TO.N,N/C*%
X102000000Y-106600000D03*
X103697056Y-110697056D03*
X103697056Y-107302944D03*
X104400000Y-109000000D03*
D11*
X102000000Y-109000000D03*
D10*
X102000000Y-111400000D03*
X100302944Y-107302944D03*
X100302944Y-110697056D03*
X99600000Y-109000000D03*
%TD*%
D12*
%TO.P,J5,1,VTref*%
%TO.N,VREF*%
X141364999Y-121859999D03*
D13*
%TO.P,J5,2,SWDIO/TMS*%
%TO.N,TMS{slash}SWDIO*%
X142634999Y-121859999D03*
%TO.P,J5,3,GND*%
%TO.N,GND*%
X141364999Y-123129999D03*
%TO.P,J5,4,SWDCLK/TCK*%
%TO.N,TCK{slash}SWDCLK*%
X142634999Y-123129999D03*
%TO.P,J5,5,GND*%
%TO.N,GND*%
X141364999Y-124399999D03*
%TO.P,J5,6,SWO/TDO*%
%TO.N,TDO{slash}SWO*%
X142634999Y-124399999D03*
%TO.P,J5,7,KEY*%
%TO.N,unconnected-(J5-KEY-Pad7)*%
X141364999Y-125669999D03*
%TO.P,J5,8,NC/TDI*%
%TO.N,TDI*%
X142634999Y-125669999D03*
%TO.P,J5,9,GNDDetect*%
%TO.N,GND*%
X141364999Y-126939999D03*
%TO.P,J5,10,~{RESET}*%
%TO.N,nRST*%
X142634999Y-126939999D03*
%TD*%
D14*
%TO.P,J3,1,VTREF*%
%TO.N,VREF*%
X109902500Y-140640000D03*
D15*
%TO.P,J3,2,VCC/NC*%
%TO.N,VCC*%
X107362500Y-140640000D03*
%TO.P,J3,3,~{TRST}*%
%TO.N,nTRST*%
X109902500Y-138100000D03*
%TO.P,J3,4,GND*%
%TO.N,GND*%
X107362500Y-138100000D03*
%TO.P,J3,5,TDI*%
%TO.N,TDI*%
X109902500Y-135560000D03*
%TO.P,J3,6,GND*%
%TO.N,GND*%
X107362500Y-135560000D03*
%TO.P,J3,7,TMS/SWDIO*%
%TO.N,TMS{slash}SWDIO*%
X109902500Y-133020000D03*
%TO.P,J3,8,GND*%
%TO.N,GND*%
X107362500Y-133020000D03*
%TO.P,J3,9,TCK/SWDCLK*%
%TO.N,TCK{slash}SWDCLK*%
X109902500Y-130480000D03*
%TO.P,J3,10,GND*%
%TO.N,GND*%
X107362500Y-130480000D03*
%TO.P,J3,11,RTCK*%
%TO.N,RTCK*%
X109902500Y-127940000D03*
%TO.P,J3,12,GND*%
%TO.N,GND*%
X107362500Y-127940000D03*
%TO.P,J3,13,TDO/SWO*%
%TO.N,TDO{slash}SWO*%
X109902500Y-125400000D03*
%TO.P,J3,14,GND*%
%TO.N,GND*%
X107362500Y-125400000D03*
%TO.P,J3,15,~{SRST}*%
%TO.N,nRST*%
X109902500Y-122860000D03*
%TO.P,J3,16,GND*%
%TO.N,GND*%
X107362500Y-122860000D03*
%TO.P,J3,17,DBGRQ/NC*%
%TO.N,DBGRQ*%
X109902500Y-120320000D03*
%TO.P,J3,18,GND*%
%TO.N,GND*%
X107362500Y-120320000D03*
%TO.P,J3,19,DBGACK/NC*%
%TO.N,DBGACK*%
X109902500Y-117780000D03*
%TO.P,J3,20,GND*%
%TO.N,GND*%
X107362500Y-117780000D03*
%TD*%
D16*
%TO.P,J2,1,VTref*%
%TO.N,VREF*%
X129097500Y-115320000D03*
D15*
%TO.P,J2,2,SWDIO/TMS*%
%TO.N,TMS{slash}SWDIO*%
X131637500Y-115320000D03*
%TO.P,J2,3,GND*%
%TO.N,GND*%
X129097500Y-117860000D03*
%TO.P,J2,4,SWDCLK/TCK*%
%TO.N,TCK{slash}SWDCLK*%
X131637500Y-117860000D03*
%TO.P,J2,5,GND*%
%TO.N,GND*%
X129097500Y-120400000D03*
%TO.P,J2,6,SWO/TDO*%
%TO.N,TDO{slash}SWO*%
X131637500Y-120400000D03*
%TO.P,J2,7,KEY*%
%TO.N,unconnected-(J2-KEY-Pad7)*%
X129097500Y-122940000D03*
%TO.P,J2,8,NC/TDI*%
%TO.N,TDI*%
X131637500Y-122940000D03*
%TO.P,J2,9,GNDDetect*%
%TO.N,GND*%
X129097500Y-125480000D03*
%TO.P,J2,10,~{RESET}*%
%TO.N,nRST*%
X131637500Y-125480000D03*
%TD*%
D16*
%TO.P,J1,1,Pin_1*%
%TO.N,VREF*%
X129050000Y-137800000D03*
D15*
%TO.P,J1,2,Pin_2*%
%TO.N,TMS{slash}SWDIO*%
X131590000Y-137800000D03*
%TO.P,J1,3,Pin_3*%
%TO.N,nRST*%
X129050000Y-140340000D03*
%TO.P,J1,4,Pin_4*%
%TO.N,TCK{slash}SWDCLK*%
X131590000Y-140340000D03*
%TO.P,J1,5,Pin_5*%
%TO.N,GND*%
X129050000Y-142880000D03*
%TO.P,J1,6,Pin_6*%
%TO.N,TDO{slash}SWO*%
X131590000Y-142880000D03*
%TD*%
D12*
%TO.P,J4,1,Pin_1*%
%TO.N,VREF*%
X141364999Y-136129999D03*
D13*
%TO.P,J4,2,Pin_2*%
%TO.N,TMS{slash}SWDIO*%
X142634999Y-136129999D03*
%TO.P,J4,3,Pin_3*%
%TO.N,nRST*%
X141364999Y-137399999D03*
%TO.P,J4,4,Pin_4*%
%TO.N,TCK{slash}SWDCLK*%
X142634999Y-137399999D03*
%TO.P,J4,5,Pin_5*%
%TO.N,GND*%
X141364999Y-138669999D03*
%TO.P,J4,6,Pin_6*%
%TO.N,TDO{slash}SWO*%
X142634999Y-138669999D03*
%TD*%
D17*
%TO.N,VREF*%
X122750000Y-140700000D03*
X115450000Y-133700000D03*
X117750000Y-124900000D03*
X132900000Y-116650000D03*
%TO.N,TMS{slash}SWDIO*%
X125250000Y-120100000D03*
X125250000Y-126800000D03*
%TO.N,nRST*%
X124250000Y-134400000D03*
X117750000Y-126000000D03*
X124250000Y-126000000D03*
X124250000Y-132000000D03*
%TO.N,TCK{slash}SWDCLK*%
X118874500Y-130480000D03*
D18*
X137400000Y-117900000D03*
X143359500Y-140250000D03*
D17*
X120350000Y-134000000D03*
D18*
%TO.N,GND*%
X126959000Y-142212000D03*
X134198000Y-141831000D03*
D17*
%TO.N,TDO{slash}SWO*%
X127650000Y-119100000D03*
X118215334Y-134300000D03*
X118250000Y-129800000D03*
%TO.N,TDI*%
X117550000Y-129000000D03*
D18*
X137750000Y-129000000D03*
D17*
X120050000Y-129000000D03*
%TD*%
D19*
%TO.N,VREF*%
X122750000Y-140700000D02*
X125650000Y-137800000D01*
X130377500Y-116600000D02*
X129097500Y-115320000D01*
X132850000Y-116600000D02*
X130377500Y-116600000D01*
X125650000Y-137800000D02*
X129050000Y-137800000D01*
X130720000Y-136130000D02*
X141365000Y-136130000D01*
X129050000Y-137800000D02*
X130720000Y-136130000D01*
X117750000Y-124900000D02*
X115450000Y-127200000D01*
X115450000Y-127200000D02*
X115450000Y-133700000D01*
X132900000Y-116650000D02*
X132850000Y-116600000D01*
D20*
%TO.N,TMS{slash}SWDIO*%
X125250000Y-126800000D02*
X125250000Y-120100000D01*
%TO.N,nRST*%
X124250000Y-134400000D02*
X124250000Y-132000000D01*
X117750000Y-126000000D02*
X124250000Y-126000000D01*
%TO.N,TCK{slash}SWDCLK*%
X118850000Y-132500000D02*
X118850000Y-130504500D01*
X120350000Y-134000000D02*
X118850000Y-132500000D01*
X137400000Y-117900000D02*
X137360000Y-117860000D01*
X143269500Y-140340000D02*
X131590000Y-140340000D01*
X118850000Y-130504500D02*
X118874500Y-130480000D01*
X137360000Y-117860000D02*
X131637500Y-117860000D01*
X143359500Y-140250000D02*
X143269500Y-140340000D01*
%TO.N,TDO{slash}SWO*%
X131737500Y-120500000D02*
X131637500Y-120400000D01*
X118250000Y-134265334D02*
X118250000Y-129800000D01*
X142750000Y-120500000D02*
X131737500Y-120500000D01*
X142635000Y-124400000D02*
X143750000Y-123285000D01*
X143750000Y-121500000D02*
X142750000Y-120500000D01*
X130337500Y-119100000D02*
X131637500Y-120400000D01*
X127650000Y-119100000D02*
X130337500Y-119100000D01*
X118215334Y-134300000D02*
X118250000Y-134265334D01*
X143750000Y-123285000D02*
X143750000Y-121500000D01*
%TO.N,TDI*%
X117550000Y-129000000D02*
X120050000Y-129000000D01*
X137697500Y-129000000D02*
X131637500Y-122940000D01*
X137750000Y-129000000D02*
X137697500Y-129000000D01*
%TD*%
%TA.AperFunction,Conductor*%
%TO.N,GND*%
G36*
X140372186Y-136853378D02*
G01*
X140417555Y-136894498D01*
X140438183Y-136952149D01*
X140429475Y-137010856D01*
X140428759Y-137012196D01*
X140426964Y-137018110D01*
X140426963Y-137018115D01*
X140372888Y-137196376D01*
X140372886Y-137196382D01*
X140371092Y-137202299D01*
X140370486Y-137208450D01*
X140370484Y-137208461D01*
X140356288Y-137352606D01*
X140351620Y-137400000D01*
X140352227Y-137406163D01*
X140370484Y-137591538D01*
X140370485Y-137591547D01*
X140371092Y-137597701D01*
X140372887Y-137603619D01*
X140372888Y-137603623D01*
X140390732Y-137662445D01*
X140428759Y-137787804D01*
X140431678Y-137793265D01*
X140519486Y-137957544D01*
X140519488Y-137957548D01*
X140522405Y-137963004D01*
X140525134Y-137966329D01*
X140543583Y-138010871D01*
X140543584Y-138060029D01*
X140524775Y-138105446D01*
X140519908Y-138112730D01*
X140432141Y-138276930D01*
X140427426Y-138288313D01*
X140392977Y-138401877D01*
X140392272Y-138413345D01*
X140403448Y-138416000D01*
X141493000Y-138416000D01*
X141556000Y-138432881D01*
X141602119Y-138479000D01*
X141619000Y-138542000D01*
X141619000Y-138798000D01*
X141602119Y-138861000D01*
X141556000Y-138907119D01*
X141493000Y-138924000D01*
X140403448Y-138924000D01*
X140392272Y-138926654D01*
X140392977Y-138938122D01*
X140427426Y-139051686D01*
X140432141Y-139063069D01*
X140519904Y-139227261D01*
X140526755Y-139237514D01*
X140644861Y-139381427D01*
X140653572Y-139390138D01*
X140766848Y-139483101D01*
X140803324Y-139532282D01*
X140812308Y-139592850D01*
X140791680Y-139650502D01*
X140746311Y-139691622D01*
X140686915Y-139706500D01*
X132867038Y-139706500D01*
X132807069Y-139691314D01*
X132761555Y-139649416D01*
X132751410Y-139633888D01*
X132665722Y-139502732D01*
X132602644Y-139434212D01*
X132516772Y-139340930D01*
X132516767Y-139340925D01*
X132513240Y-139337094D01*
X132335576Y-139198811D01*
X132331002Y-139196336D01*
X132330995Y-139196331D01*
X132307405Y-139183566D01*
X132302319Y-139180813D01*
X132254048Y-139134498D01*
X132236289Y-139070000D01*
X132254048Y-139005502D01*
X132302320Y-138959186D01*
X132330990Y-138943671D01*
X132335576Y-138941189D01*
X132513240Y-138802906D01*
X132665722Y-138637268D01*
X132788860Y-138448791D01*
X132879296Y-138242616D01*
X132934564Y-138024368D01*
X132953156Y-137800000D01*
X132934564Y-137575632D01*
X132879296Y-137357384D01*
X132788860Y-137151209D01*
X132711899Y-137033412D01*
X132691492Y-136969707D01*
X132706570Y-136904531D01*
X132752886Y-136856259D01*
X132817384Y-136838500D01*
X140312790Y-136838500D01*
X140372186Y-136853378D01*
G37*
%TD.AperFunction*%
%TA.AperFunction,Conductor*%
G36*
X143002898Y-105010634D02*
G01*
X143362286Y-105027250D01*
X143373874Y-105028324D01*
X143472400Y-105042067D01*
X143727317Y-105077626D01*
X143738728Y-105079760D01*
X144086113Y-105161464D01*
X144097296Y-105164646D01*
X144435650Y-105278050D01*
X144446498Y-105282253D01*
X144772952Y-105426396D01*
X144783361Y-105431580D01*
X144892904Y-105492595D01*
X145095106Y-105605221D01*
X145105000Y-105611346D01*
X145399416Y-105813025D01*
X145408682Y-105820022D01*
X145622671Y-105997717D01*
X145683234Y-106048008D01*
X145691834Y-106055849D01*
X145944150Y-106308165D01*
X145951991Y-106316765D01*
X146179974Y-106591314D01*
X146186976Y-106600586D01*
X146276379Y-106731099D01*
X146388652Y-106894998D01*
X146394778Y-106904893D01*
X146568417Y-107216634D01*
X146573605Y-107227052D01*
X146717746Y-107553501D01*
X146721950Y-107564353D01*
X146835350Y-107902694D01*
X146838535Y-107913888D01*
X146920236Y-108261255D01*
X146922375Y-108272696D01*
X146971675Y-108626125D01*
X146972749Y-108637712D01*
X146989366Y-108997101D01*
X146989500Y-109002921D01*
X146989500Y-149997079D01*
X146989366Y-150002899D01*
X146972749Y-150362287D01*
X146971675Y-150373874D01*
X146922375Y-150727303D01*
X146920236Y-150738744D01*
X146838535Y-151086111D01*
X146835350Y-151097305D01*
X146721950Y-151435646D01*
X146717746Y-151446498D01*
X146573605Y-151772947D01*
X146568417Y-151783365D01*
X146394778Y-152095106D01*
X146388652Y-152105001D01*
X146186982Y-152399405D01*
X146179968Y-152408693D01*
X145951991Y-152683234D01*
X145944150Y-152691834D01*
X145691834Y-152944150D01*
X145683234Y-152951991D01*
X145408693Y-153179968D01*
X145399405Y-153186982D01*
X145105001Y-153388652D01*
X145095106Y-153394778D01*
X144783365Y-153568417D01*
X144772947Y-153573605D01*
X144446498Y-153717746D01*
X144435646Y-153721950D01*
X144097305Y-153835350D01*
X144086111Y-153838535D01*
X143738744Y-153920236D01*
X143727303Y-153922375D01*
X143373874Y-153971675D01*
X143362287Y-153972749D01*
X143014366Y-153988835D01*
X143002897Y-153989366D01*
X142997079Y-153989500D01*
X102002921Y-153989500D01*
X101997102Y-153989366D01*
X101985090Y-153988810D01*
X101637712Y-153972749D01*
X101626125Y-153971675D01*
X101272696Y-153922375D01*
X101261255Y-153920236D01*
X100913888Y-153838535D01*
X100902694Y-153835350D01*
X100564353Y-153721950D01*
X100553501Y-153717746D01*
X100227052Y-153573605D01*
X100216634Y-153568417D01*
X99904893Y-153394778D01*
X99894998Y-153388652D01*
X99640420Y-153214263D01*
X99600586Y-153186976D01*
X99591314Y-153179974D01*
X99316765Y-152951991D01*
X99308165Y-152944150D01*
X99055849Y-152691834D01*
X99048008Y-152683234D01*
X98881165Y-152482313D01*
X98820022Y-152408682D01*
X98813025Y-152399416D01*
X98611346Y-152105000D01*
X98605221Y-152095106D01*
X98474025Y-151859564D01*
X98431580Y-151783361D01*
X98426394Y-151772947D01*
X98282253Y-151446498D01*
X98278049Y-151435646D01*
X98182529Y-151150652D01*
X98164646Y-151097296D01*
X98161464Y-151086111D01*
X98079760Y-150738728D01*
X98077626Y-150727317D01*
X98028324Y-150373874D01*
X98027250Y-150362286D01*
X98010634Y-150002898D01*
X98010567Y-150000000D01*
X98286411Y-150000000D01*
X98286584Y-150003301D01*
X98306581Y-150384886D01*
X98306582Y-150384897D01*
X98306754Y-150388176D01*
X98307267Y-150391417D01*
X98307268Y-150391423D01*
X98367045Y-150768838D01*
X98367046Y-150768847D01*
X98367562Y-150772099D01*
X98368414Y-150775279D01*
X98368416Y-150775288D01*
X98467311Y-151144369D01*
X98468167Y-151147562D01*
X98469352Y-151150649D01*
X98469353Y-151150652D01*
X98606283Y-151507368D01*
X98606288Y-151507380D01*
X98607468Y-151510453D01*
X98608961Y-151513384D01*
X98608965Y-151513392D01*
X98774625Y-151838518D01*
X98783938Y-151856795D01*
X98785734Y-151859561D01*
X98785736Y-151859564D01*
X98938698Y-152095106D01*
X98995643Y-152182793D01*
X99240266Y-152484876D01*
X99515124Y-152759734D01*
X99817207Y-153004357D01*
X100143205Y-153216062D01*
X100489547Y-153392532D01*
X100852438Y-153531833D01*
X101227901Y-153632438D01*
X101611824Y-153693246D01*
X102000000Y-153713589D01*
X102388176Y-153693246D01*
X102772099Y-153632438D01*
X103147562Y-153531833D01*
X103510453Y-153392532D01*
X103856795Y-153216062D01*
X104182793Y-153004357D01*
X104484876Y-152759734D01*
X104759734Y-152484876D01*
X105004357Y-152182793D01*
X105216062Y-151856795D01*
X105392532Y-151510453D01*
X105531833Y-151147562D01*
X105632438Y-150772099D01*
X105693246Y-150388176D01*
X105713589Y-150000000D01*
X139286411Y-150000000D01*
X139286584Y-150003301D01*
X139306581Y-150384886D01*
X139306582Y-150384897D01*
X139306754Y-150388176D01*
X139307267Y-150391417D01*
X139307268Y-150391423D01*
X139367045Y-150768838D01*
X139367046Y-150768847D01*
X139367562Y-150772099D01*
X139368414Y-150775279D01*
X139368416Y-150775288D01*
X139467311Y-151144369D01*
X139468167Y-151147562D01*
X139469352Y-151150649D01*
X139469353Y-151150652D01*
X139606283Y-151507368D01*
X139606288Y-151507380D01*
X139607468Y-151510453D01*
X139608961Y-151513384D01*
X139608965Y-151513392D01*
X139774625Y-151838518D01*
X139783938Y-151856795D01*
X139785734Y-151859561D01*
X139785736Y-151859564D01*
X139938698Y-152095106D01*
X139995643Y-152182793D01*
X140240266Y-152484876D01*
X140515124Y-152759734D01*
X140817207Y-153004357D01*
X141143205Y-153216062D01*
X141489547Y-153392532D01*
X141852438Y-153531833D01*
X142227901Y-153632438D01*
X142611824Y-153693246D01*
X143000000Y-153713589D01*
X143388176Y-153693246D01*
X143772099Y-153632438D01*
X144147562Y-153531833D01*
X144510453Y-153392532D01*
X144856795Y-153216062D01*
X145182793Y-153004357D01*
X145484876Y-152759734D01*
X145759734Y-152484876D01*
X146004357Y-152182793D01*
X146216062Y-151856795D01*
X146392532Y-151510453D01*
X146531833Y-151147562D01*
X146632438Y-150772099D01*
X146693246Y-150388176D01*
X146713589Y-150000000D01*
X146693246Y-149611824D01*
X146632438Y-149227901D01*
X146531833Y-148852438D01*
X146392532Y-148489547D01*
X146216062Y-148143206D01*
X146004357Y-147817207D01*
X145759734Y-147515124D01*
X145484876Y-147240266D01*
X145182793Y-146995643D01*
X145180033Y-146993850D01*
X145180028Y-146993847D01*
X144859564Y-146785736D01*
X144859561Y-146785734D01*
X144856795Y-146783938D01*
X144838518Y-146774625D01*
X144513392Y-146608965D01*
X144513384Y-146608961D01*
X144510453Y-146607468D01*
X144507380Y-146606288D01*
X144507368Y-146606283D01*
X144150652Y-146469353D01*
X144150649Y-146469352D01*
X144147562Y-146468167D01*
X144144376Y-146467313D01*
X144144369Y-146467311D01*
X143775288Y-146368416D01*
X143775279Y-146368414D01*
X143772099Y-146367562D01*
X143768847Y-146367046D01*
X143768838Y-146367045D01*
X143391423Y-146307268D01*
X143391417Y-146307267D01*
X143388176Y-146306754D01*
X143384897Y-146306582D01*
X143384886Y-146306581D01*
X143003301Y-146286584D01*
X143000000Y-146286411D01*
X142996699Y-146286584D01*
X142615113Y-146306581D01*
X142615100Y-146306582D01*
X142611824Y-146306754D01*
X142608584Y-146307267D01*
X142608576Y-146307268D01*
X142231161Y-146367045D01*
X142231148Y-146367047D01*
X142227901Y-146367562D01*
X142224724Y-146368413D01*
X142224711Y-146368416D01*
X141855630Y-146467311D01*
X141855617Y-146467315D01*
X141852438Y-146468167D01*
X141849355Y-146469350D01*
X141849347Y-146469353D01*
X141492631Y-146606283D01*
X141492612Y-146606291D01*
X141489547Y-146607468D01*
X141486622Y-146608958D01*
X141486607Y-146608965D01*
X141146147Y-146782439D01*
X141146139Y-146782443D01*
X141143206Y-146783938D01*
X141140447Y-146785729D01*
X141140436Y-146785736D01*
X140819971Y-146993847D01*
X140819957Y-146993856D01*
X140817207Y-146995643D01*
X140814653Y-146997711D01*
X140814645Y-146997717D01*
X140517686Y-147238191D01*
X140515124Y-147240266D01*
X140512797Y-147242592D01*
X140512787Y-147242602D01*
X140242602Y-147512787D01*
X140242592Y-147512797D01*
X140240266Y-147515124D01*
X140238194Y-147517682D01*
X140238191Y-147517686D01*
X139997717Y-147814645D01*
X139997711Y-147814653D01*
X139995643Y-147817207D01*
X139993856Y-147819957D01*
X139993847Y-147819971D01*
X139785736Y-148140436D01*
X139785729Y-148140447D01*
X139783938Y-148143206D01*
X139782443Y-148146139D01*
X139782439Y-148146147D01*
X139608965Y-148486607D01*
X139608958Y-148486622D01*
X139607468Y-148489547D01*
X139606291Y-148492612D01*
X139606283Y-148492631D01*
X139469353Y-148849347D01*
X139469350Y-148849355D01*
X139468167Y-148852438D01*
X139467315Y-148855617D01*
X139467311Y-148855630D01*
X139368416Y-149224711D01*
X139368413Y-149224724D01*
X139367562Y-149227901D01*
X139367047Y-149231148D01*
X139367045Y-149231161D01*
X139307268Y-149608576D01*
X139306754Y-149611824D01*
X139306582Y-149615100D01*
X139306581Y-149615113D01*
X139286761Y-149993313D01*
X139286411Y-150000000D01*
X105713589Y-150000000D01*
X105693246Y-149611824D01*
X105632438Y-149227901D01*
X105531833Y-148852438D01*
X105392532Y-148489547D01*
X105216062Y-148143206D01*
X105004357Y-147817207D01*
X104759734Y-147515124D01*
X104484876Y-147240266D01*
X104182793Y-146995643D01*
X104180033Y-146993850D01*
X104180028Y-146993847D01*
X103859564Y-146785736D01*
X103859561Y-146785734D01*
X103856795Y-146783938D01*
X103838518Y-146774625D01*
X103513392Y-146608965D01*
X103513384Y-146608961D01*
X103510453Y-146607468D01*
X103507380Y-146606288D01*
X103507368Y-146606283D01*
X103150652Y-146469353D01*
X103150649Y-146469352D01*
X103147562Y-146468167D01*
X103144376Y-146467313D01*
X103144369Y-146467311D01*
X102775288Y-146368416D01*
X102775279Y-146368414D01*
X102772099Y-146367562D01*
X102768847Y-146367046D01*
X102768838Y-146367045D01*
X102391423Y-146307268D01*
X102391417Y-146307267D01*
X102388176Y-146306754D01*
X102384897Y-146306582D01*
X102384886Y-146306581D01*
X102003301Y-146286584D01*
X102000000Y-146286411D01*
X101996699Y-146286584D01*
X101615113Y-146306581D01*
X101615100Y-146306582D01*
X101611824Y-146306754D01*
X101608584Y-146307267D01*
X101608576Y-146307268D01*
X101231161Y-146367045D01*
X101231148Y-146367047D01*
X101227901Y-146367562D01*
X101224724Y-146368413D01*
X101224711Y-146368416D01*
X100855630Y-146467311D01*
X100855617Y-146467315D01*
X100852438Y-146468167D01*
X100849355Y-146469350D01*
X100849347Y-146469353D01*
X100492631Y-146606283D01*
X100492612Y-146606291D01*
X100489547Y-146607468D01*
X100486622Y-146608958D01*
X100486607Y-146608965D01*
X100146147Y-146782439D01*
X100146139Y-146782443D01*
X100143206Y-146783938D01*
X100140447Y-146785729D01*
X100140436Y-146785736D01*
X99819971Y-146993847D01*
X99819957Y-146993856D01*
X99817207Y-146995643D01*
X99814653Y-146997711D01*
X99814645Y-146997717D01*
X99517686Y-147238191D01*
X99515124Y-147240266D01*
X99512797Y-147242592D01*
X99512787Y-147242602D01*
X99242602Y-147512787D01*
X99242592Y-147512797D01*
X99240266Y-147515124D01*
X99238194Y-147517682D01*
X99238191Y-147517686D01*
X98997717Y-147814645D01*
X98997711Y-147814653D01*
X98995643Y-147817207D01*
X98993856Y-147819957D01*
X98993847Y-147819971D01*
X98785736Y-148140436D01*
X98785729Y-148140447D01*
X98783938Y-148143206D01*
X98782443Y-148146139D01*
X98782439Y-148146147D01*
X98608965Y-148486607D01*
X98608958Y-148486622D01*
X98607468Y-148489547D01*
X98606291Y-148492612D01*
X98606283Y-148492631D01*
X98469353Y-148849347D01*
X98469350Y-148849355D01*
X98468167Y-148852438D01*
X98467315Y-148855617D01*
X98467311Y-148855630D01*
X98368416Y-149224711D01*
X98368413Y-149224724D01*
X98367562Y-149227901D01*
X98367047Y-149231148D01*
X98367045Y-149231161D01*
X98307268Y-149608576D01*
X98306754Y-149611824D01*
X98306582Y-149615100D01*
X98306581Y-149615113D01*
X98286761Y-149993313D01*
X98286411Y-150000000D01*
X98010567Y-150000000D01*
X98010500Y-149997079D01*
X98010500Y-144004532D01*
X128290210Y-144004532D01*
X128298446Y-144015901D01*
X128300592Y-144017571D01*
X128309278Y-144023246D01*
X128498042Y-144125400D01*
X128507559Y-144129575D01*
X128710557Y-144199264D01*
X128720627Y-144201814D01*
X128932335Y-144237142D01*
X128942684Y-144238000D01*
X129157316Y-144238000D01*
X129167664Y-144237142D01*
X129379372Y-144201814D01*
X129389442Y-144199264D01*
X129592440Y-144129575D01*
X129601957Y-144125400D01*
X129790720Y-144023246D01*
X129799410Y-144017569D01*
X129801552Y-144015902D01*
X129809787Y-144004533D01*
X129803019Y-143992229D01*
X129061729Y-143250939D01*
X129049999Y-143244167D01*
X129038271Y-143250938D01*
X128296978Y-143992230D01*
X128290210Y-144004532D01*
X98010500Y-144004532D01*
X98010500Y-142885189D01*
X127687776Y-142885189D01*
X127705500Y-143099092D01*
X127707209Y-143109335D01*
X127759900Y-143317407D01*
X127763270Y-143327223D01*
X127849488Y-143523778D01*
X127854431Y-143532913D01*
X127919233Y-143632099D01*
X127927328Y-143639947D01*
X127936859Y-143633929D01*
X128679059Y-142891730D01*
X128685832Y-142879999D01*
X128679060Y-142868270D01*
X127936860Y-142126070D01*
X127927328Y-142120051D01*
X127919234Y-142127899D01*
X127854431Y-142227086D01*
X127849488Y-142236221D01*
X127763270Y-142432776D01*
X127759900Y-142442592D01*
X127707209Y-142650664D01*
X127705500Y-142660907D01*
X127687776Y-142874811D01*
X127687776Y-142885189D01*
X98010500Y-142885189D01*
X98010500Y-140640000D01*
X105999344Y-140640000D01*
X105999774Y-140645189D01*
X106011557Y-140787393D01*
X106017936Y-140864368D01*
X106039826Y-140950809D01*
X106062755Y-141041356D01*
X106073204Y-141082616D01*
X106075297Y-141087389D01*
X106075299Y-141087393D01*
X106127887Y-141207281D01*
X106163640Y-141288791D01*
X106286778Y-141477268D01*
X106306955Y-141499186D01*
X106435727Y-141639069D01*
X106435731Y-141639073D01*
X106439260Y-141642906D01*
X106616924Y-141781189D01*
X106814926Y-141888342D01*
X106819855Y-141890034D01*
X106819857Y-141890035D01*
X106921395Y-141924892D01*
X107027865Y-141961444D01*
X107249931Y-141998500D01*
X107469858Y-141998500D01*
X107475069Y-141998500D01*
X107697135Y-141961444D01*
X107910074Y-141888342D01*
X108108076Y-141781189D01*
X108285740Y-141642906D01*
X108399270Y-141519580D01*
X108450374Y-141485984D01*
X108511280Y-141480409D01*
X108567636Y-141504170D01*
X108606164Y-141551670D01*
X108608076Y-141555772D01*
X108610385Y-141562738D01*
X108614235Y-141568980D01*
X108614237Y-141568984D01*
X108679319Y-141674497D01*
X108703470Y-141713652D01*
X108828848Y-141839030D01*
X108835096Y-141842883D01*
X108835095Y-141842883D01*
X108973518Y-141928264D01*
X108973520Y-141928265D01*
X108979762Y-141932115D01*
X109148074Y-141987887D01*
X109251955Y-141998500D01*
X110553044Y-141998499D01*
X110656926Y-141987887D01*
X110825238Y-141932115D01*
X110976152Y-141839030D01*
X111101530Y-141713652D01*
X111194615Y-141562738D01*
X111250387Y-141394426D01*
X111261000Y-141290545D01*
X111261000Y-140700000D01*
X121936384Y-140700000D01*
X121956783Y-140881047D01*
X121959118Y-140887720D01*
X121959119Y-140887724D01*
X122014619Y-141046335D01*
X122014621Y-141046339D01*
X122016957Y-141053015D01*
X122020719Y-141059003D01*
X122020721Y-141059006D01*
X122095030Y-141177268D01*
X122113889Y-141207281D01*
X122242719Y-141336111D01*
X122248713Y-141339877D01*
X122248714Y-141339878D01*
X122345911Y-141400951D01*
X122396985Y-141433043D01*
X122568953Y-141493217D01*
X122750000Y-141513616D01*
X122931047Y-141493217D01*
X123103015Y-141433043D01*
X123257281Y-141336111D01*
X123386111Y-141207281D01*
X123483043Y-141053015D01*
X123518807Y-140950805D01*
X123548638Y-140903330D01*
X125906564Y-138545405D01*
X125947442Y-138518091D01*
X125995660Y-138508500D01*
X127595909Y-138508500D01*
X127646935Y-138519294D01*
X127689218Y-138549827D01*
X127715514Y-138594868D01*
X127754218Y-138711674D01*
X127757885Y-138722738D01*
X127761732Y-138728976D01*
X127761735Y-138728981D01*
X127843166Y-138861000D01*
X127850970Y-138873652D01*
X127976348Y-138999030D01*
X128127262Y-139092115D01*
X128134232Y-139094424D01*
X128137795Y-139096086D01*
X128186838Y-139136712D01*
X128209750Y-139196131D01*
X128200678Y-139259166D01*
X128161939Y-139309712D01*
X128126760Y-139337094D01*
X128123237Y-139340919D01*
X128123227Y-139340930D01*
X127977806Y-139498899D01*
X127977802Y-139498902D01*
X127974278Y-139502732D01*
X127971430Y-139507090D01*
X127971427Y-139507095D01*
X127853992Y-139686843D01*
X127851140Y-139691209D01*
X127849048Y-139695978D01*
X127849046Y-139695982D01*
X127762799Y-139892606D01*
X127762796Y-139892614D01*
X127760704Y-139897384D01*
X127759423Y-139902440D01*
X127759422Y-139902445D01*
X127719506Y-140060072D01*
X127705436Y-140115632D01*
X127705006Y-140120820D01*
X127705005Y-140120827D01*
X127698242Y-140202445D01*
X127686844Y-140340000D01*
X127687274Y-140345189D01*
X127701672Y-140518953D01*
X127705436Y-140564368D01*
X127760704Y-140782616D01*
X127762797Y-140787389D01*
X127762799Y-140787393D01*
X127824855Y-140928866D01*
X127851140Y-140988791D01*
X127974278Y-141177268D01*
X128024727Y-141232069D01*
X128123227Y-141339069D01*
X128123231Y-141339073D01*
X128126760Y-141342906D01*
X128304424Y-141481189D01*
X128309000Y-141483665D01*
X128309004Y-141483668D01*
X128309010Y-141483671D01*
X128338205Y-141499470D01*
X128386476Y-141545784D01*
X128404237Y-141610281D01*
X128386479Y-141674779D01*
X128338209Y-141721096D01*
X128309282Y-141736751D01*
X128300591Y-141742428D01*
X128298445Y-141744098D01*
X128290210Y-141755465D01*
X128296979Y-141767769D01*
X129038270Y-142509060D01*
X129049999Y-142515832D01*
X129061730Y-142509059D01*
X129803022Y-141767766D01*
X129809788Y-141755466D01*
X129801551Y-141744096D01*
X129799411Y-141742431D01*
X129790716Y-141736750D01*
X129761792Y-141721097D01*
X129713520Y-141674780D01*
X129695762Y-141610281D01*
X129713523Y-141545784D01*
X129761791Y-141499472D01*
X129795576Y-141481189D01*
X129973240Y-141342906D01*
X130125722Y-141177268D01*
X130214518Y-141041354D01*
X130260030Y-140999457D01*
X130320000Y-140984271D01*
X130379970Y-140999457D01*
X130425481Y-141041354D01*
X130514278Y-141177268D01*
X130564727Y-141232069D01*
X130663227Y-141339069D01*
X130663231Y-141339073D01*
X130666760Y-141342906D01*
X130844424Y-141481189D01*
X130849002Y-141483666D01*
X130849009Y-141483671D01*
X130877680Y-141499187D01*
X130925951Y-141545503D01*
X130943710Y-141610000D01*
X130925951Y-141674497D01*
X130877680Y-141720813D01*
X130849009Y-141736328D01*
X130848993Y-141736338D01*
X130844424Y-141738811D01*
X130840313Y-141742010D01*
X130840311Y-141742012D01*
X130670878Y-141873888D01*
X130670872Y-141873893D01*
X130666760Y-141877094D01*
X130663237Y-141880919D01*
X130663227Y-141880930D01*
X130517806Y-142038899D01*
X130517802Y-142038902D01*
X130514278Y-142042732D01*
X130511431Y-142047090D01*
X130425183Y-142179102D01*
X130379669Y-142221000D01*
X130319700Y-142236186D01*
X130259731Y-142221000D01*
X130214218Y-142179102D01*
X130180764Y-142127898D01*
X130172670Y-142120051D01*
X130163138Y-142126070D01*
X129420938Y-142868271D01*
X129414167Y-142879999D01*
X129420939Y-142891729D01*
X130163138Y-143633928D01*
X130172670Y-143639947D01*
X130180765Y-143632099D01*
X130214217Y-143580898D01*
X130259731Y-143538999D01*
X130319700Y-143523813D01*
X130379669Y-143538999D01*
X130425183Y-143580898D01*
X130514278Y-143717268D01*
X130517806Y-143721100D01*
X130663227Y-143879069D01*
X130663231Y-143879073D01*
X130666760Y-143882906D01*
X130844424Y-144021189D01*
X131042426Y-144128342D01*
X131047355Y-144130034D01*
X131047357Y-144130035D01*
X131148895Y-144164893D01*
X131255365Y-144201444D01*
X131477431Y-144238500D01*
X131697358Y-144238500D01*
X131702569Y-144238500D01*
X131924635Y-144201444D01*
X132137574Y-144128342D01*
X132335576Y-144021189D01*
X132513240Y-143882906D01*
X132665722Y-143717268D01*
X132788860Y-143528791D01*
X132879296Y-143322616D01*
X132934564Y-143104368D01*
X132953156Y-142880000D01*
X132934564Y-142655632D01*
X132879296Y-142437384D01*
X132788860Y-142231209D01*
X132665722Y-142042732D01*
X132591679Y-141962301D01*
X132516772Y-141880930D01*
X132516767Y-141880925D01*
X132513240Y-141877094D01*
X132335576Y-141738811D01*
X132331002Y-141736336D01*
X132330995Y-141736331D01*
X132302320Y-141720814D01*
X132254048Y-141674498D01*
X132236289Y-141610000D01*
X132254048Y-141545502D01*
X132302320Y-141499186D01*
X132317669Y-141490880D01*
X132335576Y-141481189D01*
X132513240Y-141342906D01*
X132665722Y-141177268D01*
X132761555Y-141030583D01*
X132807069Y-140988686D01*
X132867038Y-140973500D01*
X142768740Y-140973500D01*
X142807676Y-140979667D01*
X142842801Y-140997564D01*
X142902748Y-141041118D01*
X143077212Y-141118794D01*
X143264013Y-141158500D01*
X143448384Y-141158500D01*
X143454987Y-141158500D01*
X143641788Y-141118794D01*
X143816252Y-141041118D01*
X143970753Y-140928866D01*
X144098540Y-140786944D01*
X144194027Y-140621556D01*
X144253042Y-140439928D01*
X144273004Y-140250000D01*
X144253042Y-140060072D01*
X144224010Y-139970721D01*
X144196069Y-139884728D01*
X144196068Y-139884726D01*
X144194027Y-139878444D01*
X144098540Y-139713056D01*
X143970753Y-139571134D01*
X143965411Y-139567253D01*
X143965408Y-139567250D01*
X143846046Y-139480529D01*
X143816252Y-139458882D01*
X143641788Y-139381206D01*
X143635336Y-139379834D01*
X143635325Y-139379831D01*
X143587136Y-139369588D01*
X143534843Y-139344907D01*
X143499082Y-139299466D01*
X143487384Y-139242837D01*
X143502213Y-139186946D01*
X143571241Y-139057804D01*
X143628908Y-138867701D01*
X143648380Y-138670000D01*
X143628908Y-138472299D01*
X143571241Y-138282196D01*
X143477595Y-138106996D01*
X143475099Y-138103955D01*
X143456718Y-138059578D01*
X143456719Y-138010411D01*
X143475100Y-137966043D01*
X143477595Y-137963004D01*
X143571241Y-137787804D01*
X143628908Y-137597701D01*
X143648380Y-137400000D01*
X143643068Y-137346070D01*
X143629515Y-137208461D01*
X143629514Y-137208460D01*
X143628908Y-137202299D01*
X143571241Y-137012196D01*
X143477595Y-136836996D01*
X143475099Y-136833954D01*
X143456718Y-136789584D01*
X143456718Y-136740416D01*
X143475099Y-136696045D01*
X143477595Y-136693004D01*
X143571241Y-136517804D01*
X143628908Y-136327701D01*
X143648380Y-136130000D01*
X143628908Y-135932299D01*
X143571241Y-135742196D01*
X143477595Y-135566996D01*
X143351568Y-135413432D01*
X143198004Y-135287405D01*
X143172831Y-135273950D01*
X143028265Y-135196678D01*
X143022804Y-135193759D01*
X142964135Y-135175962D01*
X142838623Y-135137888D01*
X142838619Y-135137887D01*
X142832701Y-135136092D01*
X142826547Y-135135485D01*
X142826538Y-135135484D01*
X142641163Y-135117227D01*
X142635000Y-135116620D01*
X142628837Y-135117227D01*
X142443461Y-135135484D01*
X142443450Y-135135486D01*
X142437299Y-135136092D01*
X142431382Y-135137886D01*
X142431376Y-135137888D01*
X142253115Y-135191963D01*
X142253110Y-135191964D01*
X142247196Y-135193759D01*
X142241742Y-135196673D01*
X142239094Y-135197771D01*
X142175173Y-135206378D01*
X142127298Y-135187046D01*
X142126325Y-135188829D01*
X142118416Y-135184510D01*
X142111204Y-135179111D01*
X142102766Y-135175964D01*
X142102763Y-135175962D01*
X141981580Y-135130763D01*
X141981578Y-135130762D01*
X141974201Y-135128011D01*
X141966373Y-135127169D01*
X141966367Y-135127168D01*
X141916988Y-135121860D01*
X141916985Y-135121859D01*
X141913638Y-135121500D01*
X140816362Y-135121500D01*
X140813015Y-135121859D01*
X140813011Y-135121860D01*
X140763632Y-135127168D01*
X140763625Y-135127169D01*
X140755799Y-135128011D01*
X140748423Y-135130761D01*
X140748419Y-135130763D01*
X140627236Y-135175962D01*
X140627230Y-135175965D01*
X140618796Y-135179111D01*
X140611588Y-135184506D01*
X140611582Y-135184510D01*
X140508950Y-135261340D01*
X140508946Y-135261343D01*
X140501739Y-135266739D01*
X140496343Y-135273946D01*
X140496340Y-135273950D01*
X140423683Y-135371009D01*
X140379215Y-135408172D01*
X140322815Y-135421500D01*
X130745223Y-135421500D01*
X130737616Y-135421270D01*
X130684515Y-135418058D01*
X130684513Y-135418058D01*
X130676908Y-135417598D01*
X130617063Y-135428563D01*
X130609568Y-135429704D01*
X130556764Y-135436116D01*
X130556761Y-135436116D01*
X130549199Y-135437035D01*
X130542074Y-135439736D01*
X130542073Y-135439737D01*
X130539663Y-135440651D01*
X130517714Y-135446770D01*
X130507671Y-135448611D01*
X130500724Y-135451737D01*
X130500719Y-135451739D01*
X130452215Y-135473569D01*
X130445186Y-135476480D01*
X130395450Y-135495343D01*
X130395444Y-135495345D01*
X130388325Y-135498046D01*
X130382061Y-135502368D01*
X130382054Y-135502373D01*
X130379921Y-135503846D01*
X130360081Y-135515035D01*
X130357731Y-135516092D01*
X130357718Y-135516099D01*
X130350775Y-135519225D01*
X130344778Y-135523923D01*
X130344775Y-135523925D01*
X130302911Y-135556722D01*
X130296787Y-135561229D01*
X130252996Y-135591457D01*
X130252992Y-135591459D01*
X130246727Y-135595785D01*
X130241679Y-135601482D01*
X130241672Y-135601489D01*
X130206387Y-135641317D01*
X130201172Y-135646856D01*
X129443433Y-136404595D01*
X129402556Y-136431909D01*
X129354338Y-136441500D01*
X128402661Y-136441500D01*
X128402641Y-136441500D01*
X128399456Y-136441501D01*
X128396279Y-136441825D01*
X128396270Y-136441826D01*
X128302411Y-136451414D01*
X128302405Y-136451415D01*
X128295574Y-136452113D01*
X128289058Y-136454271D01*
X128289049Y-136454274D01*
X128134225Y-136505577D01*
X128134219Y-136505579D01*
X128127262Y-136507885D01*
X128121026Y-136511730D01*
X128121018Y-136511735D01*
X127982595Y-136597116D01*
X127982590Y-136597119D01*
X127976348Y-136600970D01*
X127971158Y-136606159D01*
X127971154Y-136606163D01*
X127856163Y-136721154D01*
X127856159Y-136721158D01*
X127850970Y-136726348D01*
X127847119Y-136732590D01*
X127847116Y-136732595D01*
X127761735Y-136871018D01*
X127761730Y-136871026D01*
X127757885Y-136877262D01*
X127755579Y-136884219D01*
X127755577Y-136884225D01*
X127715514Y-137005132D01*
X127689218Y-137050173D01*
X127646935Y-137080706D01*
X127595909Y-137091500D01*
X125675205Y-137091500D01*
X125667598Y-137091270D01*
X125614513Y-137088059D01*
X125606907Y-137087599D01*
X125599415Y-137088971D01*
X125599413Y-137088972D01*
X125547096Y-137098559D01*
X125539577Y-137099703D01*
X125486764Y-137106116D01*
X125486760Y-137106116D01*
X125479199Y-137107035D01*
X125472075Y-137109736D01*
X125472069Y-137109738D01*
X125469654Y-137110654D01*
X125447715Y-137116769D01*
X125445176Y-137117234D01*
X125445157Y-137117239D01*
X125437670Y-137118612D01*
X125430725Y-137121737D01*
X125430720Y-137121739D01*
X125382220Y-137143566D01*
X125375195Y-137146476D01*
X125325450Y-137165343D01*
X125325444Y-137165345D01*
X125318325Y-137168046D01*
X125312055Y-137172373D01*
X125312054Y-137172374D01*
X125309924Y-137173844D01*
X125290077Y-137185037D01*
X125287724Y-137186095D01*
X125287713Y-137186101D01*
X125280774Y-137189225D01*
X125274783Y-137193918D01*
X125274774Y-137193924D01*
X125232898Y-137226731D01*
X125226774Y-137231238D01*
X125182996Y-137261457D01*
X125182992Y-137261460D01*
X125176727Y-137265785D01*
X125171679Y-137271482D01*
X125171672Y-137271489D01*
X125136387Y-137311317D01*
X125131172Y-137316856D01*
X122546670Y-139901358D01*
X122499192Y-139931192D01*
X122403659Y-139964621D01*
X122403654Y-139964623D01*
X122396985Y-139966957D01*
X122390996Y-139970719D01*
X122390994Y-139970721D01*
X122248714Y-140060121D01*
X122248707Y-140060126D01*
X122242719Y-140063889D01*
X122237714Y-140068893D01*
X122237710Y-140068897D01*
X122118897Y-140187710D01*
X122118893Y-140187714D01*
X122113889Y-140192719D01*
X122110126Y-140198707D01*
X122110121Y-140198714D01*
X122020721Y-140340993D01*
X122020717Y-140341000D01*
X122016957Y-140346985D01*
X122014622Y-140353656D01*
X122014619Y-140353664D01*
X121959119Y-140512275D01*
X121959117Y-140512280D01*
X121956783Y-140518953D01*
X121936384Y-140700000D01*
X111261000Y-140700000D01*
X111260999Y-139989456D01*
X111250387Y-139885574D01*
X111248024Y-139878444D01*
X111208915Y-139760417D01*
X111194615Y-139717262D01*
X111188993Y-139708148D01*
X111117877Y-139592850D01*
X111101530Y-139566348D01*
X110976152Y-139440970D01*
X110965197Y-139434213D01*
X110831483Y-139351737D01*
X110831481Y-139351736D01*
X110825238Y-139347885D01*
X110818272Y-139345576D01*
X110814702Y-139343912D01*
X110765660Y-139303285D01*
X110742749Y-139243865D01*
X110751823Y-139180830D01*
X110790559Y-139130288D01*
X110825740Y-139102906D01*
X110978222Y-138937268D01*
X111101360Y-138748791D01*
X111191796Y-138542616D01*
X111247064Y-138324368D01*
X111265656Y-138100000D01*
X111247064Y-137875632D01*
X111191796Y-137657384D01*
X111101360Y-137451209D01*
X110978222Y-137262732D01*
X110875557Y-137151209D01*
X110829272Y-137100930D01*
X110829267Y-137100925D01*
X110825740Y-137097094D01*
X110648076Y-136958811D01*
X110643502Y-136956336D01*
X110643495Y-136956331D01*
X110614820Y-136940814D01*
X110566548Y-136894498D01*
X110548789Y-136830000D01*
X110566548Y-136765502D01*
X110614820Y-136719186D01*
X110643490Y-136703671D01*
X110648076Y-136701189D01*
X110825740Y-136562906D01*
X110978222Y-136397268D01*
X111101360Y-136208791D01*
X111191796Y-136002616D01*
X111247064Y-135784368D01*
X111265656Y-135560000D01*
X111247064Y-135335632D01*
X111191796Y-135117384D01*
X111101360Y-134911209D01*
X110978222Y-134722732D01*
X110893870Y-134631102D01*
X110829272Y-134560930D01*
X110829267Y-134560925D01*
X110825740Y-134557094D01*
X110648076Y-134418811D01*
X110643502Y-134416336D01*
X110643495Y-134416331D01*
X110614820Y-134400814D01*
X110566548Y-134354498D01*
X110548789Y-134290000D01*
X110566548Y-134225502D01*
X110614820Y-134179186D01*
X110624387Y-134174009D01*
X110648076Y-134161189D01*
X110825740Y-134022906D01*
X110978222Y-133857268D01*
X111080970Y-133700000D01*
X114636384Y-133700000D01*
X114656783Y-133881047D01*
X114659118Y-133887720D01*
X114659119Y-133887724D01*
X114714619Y-134046335D01*
X114714621Y-134046339D01*
X114716957Y-134053015D01*
X114720719Y-134059003D01*
X114720721Y-134059006D01*
X114796235Y-134179186D01*
X114813889Y-134207281D01*
X114942719Y-134336111D01*
X114948713Y-134339877D01*
X114948714Y-134339878D01*
X115045691Y-134400813D01*
X115096985Y-134433043D01*
X115268953Y-134493217D01*
X115450000Y-134513616D01*
X115631047Y-134493217D01*
X115803015Y-134433043D01*
X115957281Y-134336111D01*
X116086111Y-134207281D01*
X116183043Y-134053015D01*
X116243217Y-133881047D01*
X116263616Y-133700000D01*
X116243217Y-133518953D01*
X116183043Y-133346985D01*
X116177811Y-133338658D01*
X116177300Y-133336887D01*
X116176208Y-133334618D01*
X116176593Y-133334432D01*
X116158500Y-133271625D01*
X116158500Y-129000000D01*
X116736384Y-129000000D01*
X116756783Y-129181047D01*
X116759118Y-129187720D01*
X116759119Y-129187724D01*
X116814619Y-129346335D01*
X116814621Y-129346339D01*
X116816957Y-129353015D01*
X116820719Y-129359003D01*
X116820721Y-129359006D01*
X116897331Y-129480930D01*
X116913889Y-129507281D01*
X117042719Y-129636111D01*
X117048713Y-129639877D01*
X117048714Y-129639878D01*
X117069300Y-129652813D01*
X117196985Y-129733043D01*
X117203664Y-129735380D01*
X117363626Y-129791353D01*
X117420521Y-129831722D01*
X117447219Y-129896173D01*
X117455280Y-129967710D01*
X117456783Y-129981047D01*
X117459119Y-129987725D01*
X117459120Y-129987726D01*
X117514619Y-130146335D01*
X117514621Y-130146339D01*
X117516957Y-130153015D01*
X117520719Y-130159003D01*
X117520721Y-130159006D01*
X117597187Y-130280700D01*
X117616500Y-130347736D01*
X117616500Y-133703252D01*
X117606909Y-133751470D01*
X117587168Y-133781012D01*
X117588638Y-133782185D01*
X117584229Y-133787712D01*
X117579223Y-133792719D01*
X117575460Y-133798707D01*
X117575455Y-133798714D01*
X117486055Y-133940993D01*
X117486051Y-133941000D01*
X117482291Y-133946985D01*
X117479956Y-133953656D01*
X117479953Y-133953664D01*
X117424453Y-134112275D01*
X117424451Y-134112280D01*
X117422117Y-134118953D01*
X117421325Y-134125979D01*
X117421325Y-134125981D01*
X117415914Y-134174009D01*
X117401718Y-134300000D01*
X117422117Y-134481047D01*
X117424452Y-134487720D01*
X117424453Y-134487724D01*
X117479953Y-134646335D01*
X117479955Y-134646339D01*
X117482291Y-134653015D01*
X117486053Y-134659003D01*
X117486055Y-134659006D01*
X117568917Y-134790880D01*
X117579223Y-134807281D01*
X117708053Y-134936111D01*
X117862319Y-135033043D01*
X118034287Y-135093217D01*
X118215334Y-135113616D01*
X118396381Y-135093217D01*
X118568349Y-135033043D01*
X118722615Y-134936111D01*
X118851445Y-134807281D01*
X118948377Y-134653015D01*
X119008551Y-134481047D01*
X119028950Y-134300000D01*
X119008551Y-134118953D01*
X118948377Y-133946985D01*
X118930981Y-133919300D01*
X118902813Y-133874470D01*
X118883500Y-133807434D01*
X118883500Y-133733594D01*
X118897233Y-133676391D01*
X118935439Y-133631658D01*
X118989789Y-133609145D01*
X119048436Y-133613761D01*
X119098595Y-133644499D01*
X119515655Y-134061559D01*
X119540082Y-134095984D01*
X119551767Y-134136544D01*
X119555989Y-134174009D01*
X119555990Y-134174017D01*
X119556783Y-134181047D01*
X119559119Y-134187723D01*
X119559120Y-134187727D01*
X119614619Y-134346335D01*
X119614621Y-134346339D01*
X119616957Y-134353015D01*
X119620719Y-134359003D01*
X119620721Y-134359006D01*
X119703583Y-134490880D01*
X119713889Y-134507281D01*
X119842719Y-134636111D01*
X119996985Y-134733043D01*
X120168953Y-134793217D01*
X120350000Y-134813616D01*
X120531047Y-134793217D01*
X120703015Y-134733043D01*
X120857281Y-134636111D01*
X120986111Y-134507281D01*
X121053520Y-134400000D01*
X123436384Y-134400000D01*
X123456783Y-134581047D01*
X123459118Y-134587720D01*
X123459119Y-134587724D01*
X123514619Y-134746335D01*
X123514621Y-134746339D01*
X123516957Y-134753015D01*
X123520719Y-134759003D01*
X123520721Y-134759006D01*
X123554537Y-134812824D01*
X123613889Y-134907281D01*
X123742719Y-135036111D01*
X123896985Y-135133043D01*
X124068953Y-135193217D01*
X124250000Y-135213616D01*
X124431047Y-135193217D01*
X124603015Y-135133043D01*
X124757281Y-135036111D01*
X124886111Y-134907281D01*
X124983043Y-134753015D01*
X125043217Y-134581047D01*
X125063616Y-134400000D01*
X125043217Y-134218953D01*
X124983043Y-134046985D01*
X124902813Y-133919300D01*
X124883500Y-133852264D01*
X124883500Y-132547736D01*
X124902813Y-132480700D01*
X124903831Y-132479079D01*
X124983043Y-132353015D01*
X125043217Y-132181047D01*
X125063616Y-132000000D01*
X125043217Y-131818953D01*
X124983043Y-131646985D01*
X124886111Y-131492719D01*
X124757281Y-131363889D01*
X124751287Y-131360123D01*
X124751285Y-131360121D01*
X124609006Y-131270721D01*
X124609003Y-131270719D01*
X124603015Y-131266957D01*
X124596339Y-131264621D01*
X124596335Y-131264619D01*
X124437724Y-131209119D01*
X124437720Y-131209118D01*
X124431047Y-131206783D01*
X124250000Y-131186384D01*
X124242971Y-131187176D01*
X124075981Y-131205991D01*
X124075979Y-131205991D01*
X124068953Y-131206783D01*
X124062280Y-131209117D01*
X124062275Y-131209119D01*
X123903664Y-131264619D01*
X123903656Y-131264622D01*
X123896985Y-131266957D01*
X123891000Y-131270717D01*
X123890993Y-131270721D01*
X123748714Y-131360121D01*
X123748707Y-131360126D01*
X123742719Y-131363889D01*
X123737714Y-131368893D01*
X123737710Y-131368897D01*
X123618897Y-131487710D01*
X123618893Y-131487714D01*
X123613889Y-131492719D01*
X123610126Y-131498707D01*
X123610121Y-131498714D01*
X123520721Y-131640993D01*
X123520717Y-131641000D01*
X123516957Y-131646985D01*
X123514622Y-131653656D01*
X123514619Y-131653664D01*
X123459119Y-131812275D01*
X123459117Y-131812280D01*
X123456783Y-131818953D01*
X123455991Y-131825979D01*
X123455991Y-131825981D01*
X123450039Y-131878811D01*
X123436384Y-132000000D01*
X123456783Y-132181047D01*
X123459118Y-132187720D01*
X123459119Y-132187724D01*
X123514619Y-132346335D01*
X123514621Y-132346339D01*
X123516957Y-132353015D01*
X123520719Y-132359003D01*
X123520721Y-132359006D01*
X123597187Y-132480700D01*
X123616500Y-132547736D01*
X123616500Y-133852264D01*
X123597187Y-133919300D01*
X123520721Y-134040993D01*
X123520717Y-134041000D01*
X123516957Y-134046985D01*
X123514622Y-134053656D01*
X123514619Y-134053664D01*
X123459119Y-134212275D01*
X123459117Y-134212280D01*
X123456783Y-134218953D01*
X123455991Y-134225979D01*
X123455991Y-134225981D01*
X123443158Y-134339878D01*
X123436384Y-134400000D01*
X121053520Y-134400000D01*
X121083043Y-134353015D01*
X121143217Y-134181047D01*
X121163616Y-134000000D01*
X121143217Y-133818953D01*
X121083043Y-133646985D01*
X121062167Y-133613761D01*
X120989878Y-133498714D01*
X120989877Y-133498713D01*
X120986111Y-133492719D01*
X120857281Y-133363889D01*
X120851287Y-133360123D01*
X120851285Y-133360121D01*
X120709006Y-133270721D01*
X120709003Y-133270719D01*
X120703015Y-133266957D01*
X120696339Y-133264621D01*
X120696335Y-133264619D01*
X120537724Y-133209119D01*
X120537720Y-133209118D01*
X120531047Y-133206783D01*
X120524020Y-133205991D01*
X120524019Y-133205991D01*
X120486548Y-133201769D01*
X120445986Y-133190083D01*
X120411561Y-133165656D01*
X119520405Y-132274500D01*
X119493091Y-132233623D01*
X119483500Y-132185405D01*
X119483500Y-131064095D01*
X119490571Y-131022479D01*
X119509300Y-130988591D01*
X119510611Y-130987281D01*
X119607543Y-130833015D01*
X119667717Y-130661047D01*
X119688116Y-130480000D01*
X119667717Y-130298953D01*
X119607543Y-130126985D01*
X119510611Y-129972719D01*
X119386487Y-129848595D01*
X119355749Y-129798436D01*
X119351133Y-129739789D01*
X119373646Y-129685439D01*
X119418379Y-129647233D01*
X119475582Y-129633500D01*
X119502264Y-129633500D01*
X119569300Y-129652813D01*
X119696985Y-129733043D01*
X119868953Y-129793217D01*
X120050000Y-129813616D01*
X120231047Y-129793217D01*
X120403015Y-129733043D01*
X120557281Y-129636111D01*
X120686111Y-129507281D01*
X120783043Y-129353015D01*
X120843217Y-129181047D01*
X120863616Y-129000000D01*
X120843217Y-128818953D01*
X120783043Y-128646985D01*
X120746477Y-128588791D01*
X120689878Y-128498714D01*
X120689877Y-128498713D01*
X120686111Y-128492719D01*
X120557281Y-128363889D01*
X120551287Y-128360123D01*
X120551285Y-128360121D01*
X120409006Y-128270721D01*
X120409003Y-128270719D01*
X120403015Y-128266957D01*
X120396339Y-128264621D01*
X120396335Y-128264619D01*
X120237724Y-128209119D01*
X120237720Y-128209118D01*
X120231047Y-128206783D01*
X120050000Y-128186384D01*
X120042971Y-128187176D01*
X119875981Y-128205991D01*
X119875979Y-128205991D01*
X119868953Y-128206783D01*
X119862280Y-128209117D01*
X119862275Y-128209119D01*
X119703664Y-128264619D01*
X119703656Y-128264622D01*
X119696985Y-128266957D01*
X119691000Y-128270717D01*
X119690993Y-128270721D01*
X119569300Y-128347187D01*
X119502264Y-128366500D01*
X118097736Y-128366500D01*
X118030700Y-128347187D01*
X117909006Y-128270721D01*
X117909003Y-128270719D01*
X117903015Y-128266957D01*
X117896339Y-128264621D01*
X117896335Y-128264619D01*
X117737724Y-128209119D01*
X117737720Y-128209118D01*
X117731047Y-128206783D01*
X117550000Y-128186384D01*
X117542971Y-128187176D01*
X117375981Y-128205991D01*
X117375979Y-128205991D01*
X117368953Y-128206783D01*
X117362280Y-128209117D01*
X117362275Y-128209119D01*
X117203664Y-128264619D01*
X117203656Y-128264622D01*
X117196985Y-128266957D01*
X117191000Y-128270717D01*
X117190993Y-128270721D01*
X117048714Y-128360121D01*
X117048707Y-128360126D01*
X117042719Y-128363889D01*
X117037714Y-128368893D01*
X117037710Y-128368897D01*
X116918897Y-128487710D01*
X116918893Y-128487714D01*
X116913889Y-128492719D01*
X116910126Y-128498707D01*
X116910121Y-128498714D01*
X116820721Y-128640993D01*
X116820717Y-128641000D01*
X116816957Y-128646985D01*
X116814622Y-128653656D01*
X116814619Y-128653664D01*
X116759119Y-128812275D01*
X116759117Y-128812280D01*
X116756783Y-128818953D01*
X116736384Y-129000000D01*
X116158500Y-129000000D01*
X116158500Y-127545660D01*
X116168091Y-127497442D01*
X116195405Y-127456565D01*
X117040194Y-126611776D01*
X117096678Y-126579164D01*
X117161900Y-126579164D01*
X117218384Y-126611776D01*
X117242719Y-126636111D01*
X117248713Y-126639877D01*
X117248714Y-126639878D01*
X117378888Y-126721672D01*
X117396985Y-126733043D01*
X117568953Y-126793217D01*
X117750000Y-126813616D01*
X117931047Y-126793217D01*
X118103015Y-126733043D01*
X118230699Y-126652813D01*
X118297736Y-126633500D01*
X123702264Y-126633500D01*
X123769300Y-126652813D01*
X123896985Y-126733043D01*
X124068953Y-126793217D01*
X124250000Y-126813616D01*
X124310355Y-126806815D01*
X124374846Y-126816536D01*
X124425839Y-126857200D01*
X124449669Y-126917914D01*
X124455991Y-126974018D01*
X124456783Y-126981047D01*
X124459118Y-126987720D01*
X124459119Y-126987724D01*
X124514619Y-127146335D01*
X124514621Y-127146339D01*
X124516957Y-127153015D01*
X124520719Y-127159003D01*
X124520721Y-127159006D01*
X124606939Y-127296221D01*
X124613889Y-127307281D01*
X124742719Y-127436111D01*
X124896985Y-127533043D01*
X125068953Y-127593217D01*
X125250000Y-127613616D01*
X125431047Y-127593217D01*
X125603015Y-127533043D01*
X125757281Y-127436111D01*
X125886111Y-127307281D01*
X125983043Y-127153015D01*
X126043217Y-126981047D01*
X126063616Y-126800000D01*
X126043217Y-126618953D01*
X126038171Y-126604532D01*
X128337710Y-126604532D01*
X128345946Y-126615901D01*
X128348092Y-126617571D01*
X128356778Y-126623246D01*
X128545542Y-126725400D01*
X128555059Y-126729575D01*
X128758057Y-126799264D01*
X128768127Y-126801814D01*
X128979835Y-126837142D01*
X128990184Y-126838000D01*
X129204816Y-126838000D01*
X129215164Y-126837142D01*
X129426872Y-126801814D01*
X129436942Y-126799264D01*
X129639940Y-126729575D01*
X129649457Y-126725400D01*
X129838220Y-126623246D01*
X129846910Y-126617569D01*
X129849052Y-126615902D01*
X129857287Y-126604533D01*
X129850519Y-126592229D01*
X129109229Y-125850939D01*
X129097499Y-125844167D01*
X129085771Y-125850938D01*
X128344478Y-126592230D01*
X128337710Y-126604532D01*
X126038171Y-126604532D01*
X125983043Y-126446985D01*
X125902813Y-126319300D01*
X125883500Y-126252264D01*
X125883500Y-125485189D01*
X127735276Y-125485189D01*
X127753000Y-125699092D01*
X127754709Y-125709335D01*
X127807400Y-125917407D01*
X127810770Y-125927223D01*
X127896988Y-126123778D01*
X127901931Y-126132913D01*
X127966733Y-126232099D01*
X127974828Y-126239947D01*
X127984359Y-126233929D01*
X128726559Y-125491730D01*
X128733332Y-125479999D01*
X128726560Y-125468270D01*
X127984360Y-124726070D01*
X127974828Y-124720051D01*
X127966734Y-124727899D01*
X127901931Y-124827086D01*
X127896988Y-124836221D01*
X127810770Y-125032776D01*
X127807400Y-125042592D01*
X127754709Y-125250664D01*
X127753000Y-125260907D01*
X127735276Y-125474811D01*
X127735276Y-125485189D01*
X125883500Y-125485189D01*
X125883500Y-120647736D01*
X125902813Y-120580700D01*
X125928957Y-120539092D01*
X125983043Y-120453015D01*
X126043217Y-120281047D01*
X126063616Y-120100000D01*
X126043217Y-119918953D01*
X125983043Y-119746985D01*
X125886111Y-119592719D01*
X125757281Y-119463889D01*
X125751287Y-119460123D01*
X125751285Y-119460121D01*
X125609006Y-119370721D01*
X125609003Y-119370719D01*
X125603015Y-119366957D01*
X125596339Y-119364621D01*
X125596335Y-119364619D01*
X125437724Y-119309119D01*
X125437720Y-119309118D01*
X125431047Y-119306783D01*
X125250000Y-119286384D01*
X125242971Y-119287176D01*
X125075981Y-119305991D01*
X125075979Y-119305991D01*
X125068953Y-119306783D01*
X125062280Y-119309117D01*
X125062275Y-119309119D01*
X124903664Y-119364619D01*
X124903656Y-119364622D01*
X124896985Y-119366957D01*
X124891000Y-119370717D01*
X124890993Y-119370721D01*
X124748714Y-119460121D01*
X124748707Y-119460126D01*
X124742719Y-119463889D01*
X124737714Y-119468893D01*
X124737710Y-119468897D01*
X124618897Y-119587710D01*
X124618893Y-119587714D01*
X124613889Y-119592719D01*
X124610126Y-119598707D01*
X124610121Y-119598714D01*
X124520721Y-119740993D01*
X124520717Y-119741000D01*
X124516957Y-119746985D01*
X124514622Y-119753656D01*
X124514619Y-119753664D01*
X124459119Y-119912275D01*
X124459117Y-119912280D01*
X124456783Y-119918953D01*
X124436384Y-120100000D01*
X124456783Y-120281047D01*
X124459118Y-120287720D01*
X124459119Y-120287724D01*
X124514619Y-120446335D01*
X124514621Y-120446339D01*
X124516957Y-120453015D01*
X124520719Y-120459003D01*
X124520721Y-120459006D01*
X124597187Y-120580700D01*
X124616500Y-120647736D01*
X124616500Y-125094096D01*
X124602444Y-125151928D01*
X124563412Y-125196857D01*
X124508113Y-125218859D01*
X124448886Y-125213025D01*
X124441712Y-125210514D01*
X124437721Y-125209118D01*
X124437718Y-125209117D01*
X124431047Y-125206783D01*
X124250000Y-125186384D01*
X124242971Y-125187176D01*
X124075981Y-125205991D01*
X124075979Y-125205991D01*
X124068953Y-125206783D01*
X124062280Y-125209117D01*
X124062275Y-125209119D01*
X123903664Y-125264619D01*
X123903656Y-125264622D01*
X123896985Y-125266957D01*
X123891000Y-125270717D01*
X123890993Y-125270721D01*
X123769300Y-125347187D01*
X123702264Y-125366500D01*
X118620913Y-125366500D01*
X118563081Y-125352444D01*
X118518152Y-125313413D01*
X118496150Y-125258114D01*
X118501984Y-125198885D01*
X118531045Y-125115832D01*
X118543217Y-125081047D01*
X118563616Y-124900000D01*
X118543217Y-124718953D01*
X118483043Y-124546985D01*
X118441538Y-124480930D01*
X118389878Y-124398714D01*
X118389877Y-124398713D01*
X118386111Y-124392719D01*
X118257281Y-124263889D01*
X118251287Y-124260123D01*
X118251285Y-124260121D01*
X118109006Y-124170721D01*
X118109003Y-124170719D01*
X118103015Y-124166957D01*
X118096339Y-124164621D01*
X118096335Y-124164619D01*
X117937724Y-124109119D01*
X117937720Y-124109118D01*
X117931047Y-124106783D01*
X117750000Y-124086384D01*
X117742971Y-124087176D01*
X117575981Y-124105991D01*
X117575979Y-124105991D01*
X117568953Y-124106783D01*
X117562280Y-124109117D01*
X117562275Y-124109119D01*
X117403664Y-124164619D01*
X117403656Y-124164622D01*
X117396985Y-124166957D01*
X117391000Y-124170717D01*
X117390993Y-124170721D01*
X117248714Y-124260121D01*
X117248707Y-124260126D01*
X117242719Y-124263889D01*
X117237714Y-124268893D01*
X117237710Y-124268897D01*
X117118897Y-124387710D01*
X117118893Y-124387714D01*
X117113889Y-124392719D01*
X117110126Y-124398707D01*
X117110121Y-124398714D01*
X117058462Y-124480930D01*
X117016957Y-124546985D01*
X117014623Y-124553654D01*
X117014621Y-124553659D01*
X116981192Y-124649192D01*
X116951358Y-124696670D01*
X114966856Y-126681172D01*
X114961317Y-126686387D01*
X114921489Y-126721672D01*
X114921482Y-126721679D01*
X114915785Y-126726727D01*
X114911460Y-126732992D01*
X114911457Y-126732996D01*
X114881238Y-126776774D01*
X114876731Y-126782898D01*
X114843924Y-126824774D01*
X114843918Y-126824783D01*
X114839225Y-126830774D01*
X114836101Y-126837713D01*
X114836095Y-126837724D01*
X114835037Y-126840077D01*
X114823844Y-126859924D01*
X114818046Y-126868325D01*
X114815345Y-126875445D01*
X114815342Y-126875452D01*
X114796481Y-126925183D01*
X114793570Y-126932211D01*
X114771740Y-126980716D01*
X114771737Y-126980724D01*
X114768611Y-126987671D01*
X114767236Y-126995167D01*
X114767237Y-126995167D01*
X114766771Y-126997711D01*
X114760651Y-127019663D01*
X114759737Y-127022072D01*
X114759736Y-127022075D01*
X114757035Y-127029199D01*
X114756116Y-127036761D01*
X114756116Y-127036764D01*
X114749705Y-127089554D01*
X114748561Y-127097071D01*
X114738970Y-127149412D01*
X114738969Y-127149423D01*
X114737598Y-127156907D01*
X114738057Y-127164502D01*
X114738057Y-127164510D01*
X114741270Y-127217610D01*
X114741500Y-127225218D01*
X114741500Y-133271625D01*
X114723406Y-133334432D01*
X114723792Y-133334618D01*
X114722699Y-133336887D01*
X114722189Y-133338658D01*
X114720722Y-133340992D01*
X114720719Y-133340996D01*
X114716957Y-133346985D01*
X114714622Y-133353656D01*
X114714619Y-133353664D01*
X114659119Y-133512275D01*
X114659117Y-133512280D01*
X114656783Y-133518953D01*
X114636384Y-133700000D01*
X111080970Y-133700000D01*
X111101360Y-133668791D01*
X111191796Y-133462616D01*
X111247064Y-133244368D01*
X111265656Y-133020000D01*
X111247064Y-132795632D01*
X111191796Y-132577384D01*
X111101360Y-132371209D01*
X110978222Y-132182732D01*
X110917456Y-132116723D01*
X110829272Y-132020930D01*
X110829267Y-132020925D01*
X110825740Y-132017094D01*
X110648076Y-131878811D01*
X110643502Y-131876336D01*
X110643495Y-131876331D01*
X110614820Y-131860814D01*
X110566548Y-131814498D01*
X110548789Y-131750000D01*
X110566548Y-131685502D01*
X110614820Y-131639186D01*
X110643490Y-131623671D01*
X110648076Y-131621189D01*
X110825740Y-131482906D01*
X110978222Y-131317268D01*
X111101360Y-131128791D01*
X111191796Y-130922616D01*
X111247064Y-130704368D01*
X111265656Y-130480000D01*
X111247064Y-130255632D01*
X111191796Y-130037384D01*
X111101360Y-129831209D01*
X110978222Y-129642732D01*
X110885354Y-129541851D01*
X110829272Y-129480930D01*
X110829267Y-129480925D01*
X110825740Y-129477094D01*
X110648076Y-129338811D01*
X110643502Y-129336336D01*
X110643495Y-129336331D01*
X110614820Y-129320814D01*
X110566548Y-129274498D01*
X110548789Y-129210000D01*
X110566548Y-129145502D01*
X110614820Y-129099186D01*
X110643490Y-129083671D01*
X110648076Y-129081189D01*
X110825740Y-128942906D01*
X110978222Y-128777268D01*
X111101360Y-128588791D01*
X111191796Y-128382616D01*
X111247064Y-128164368D01*
X111265656Y-127940000D01*
X111247064Y-127715632D01*
X111191796Y-127497384D01*
X111101360Y-127291209D01*
X110978222Y-127102732D01*
X110917456Y-127036723D01*
X110829272Y-126940930D01*
X110829267Y-126940925D01*
X110825740Y-126937094D01*
X110648076Y-126798811D01*
X110643502Y-126796336D01*
X110643495Y-126796331D01*
X110614820Y-126780814D01*
X110566548Y-126734498D01*
X110548789Y-126670000D01*
X110566548Y-126605502D01*
X110614820Y-126559186D01*
X110616434Y-126558313D01*
X110648076Y-126541189D01*
X110825740Y-126402906D01*
X110978222Y-126237268D01*
X111101360Y-126048791D01*
X111191796Y-125842616D01*
X111247064Y-125624368D01*
X111265656Y-125400000D01*
X111247064Y-125175632D01*
X111191796Y-124957384D01*
X111101360Y-124751209D01*
X110978222Y-124562732D01*
X110834089Y-124406163D01*
X110829272Y-124400930D01*
X110829267Y-124400925D01*
X110825740Y-124397094D01*
X110648076Y-124258811D01*
X110643497Y-124256333D01*
X110643494Y-124256331D01*
X110614818Y-124240812D01*
X110566547Y-124194494D01*
X110548789Y-124129996D01*
X110566550Y-124065499D01*
X110614821Y-124019185D01*
X110648076Y-124001189D01*
X110825740Y-123862906D01*
X110978222Y-123697268D01*
X111101360Y-123508791D01*
X111191796Y-123302616D01*
X111247064Y-123084368D01*
X111265656Y-122860000D01*
X111247064Y-122635632D01*
X111191796Y-122417384D01*
X111101360Y-122211209D01*
X110978222Y-122022732D01*
X110896435Y-121933888D01*
X110829272Y-121860930D01*
X110829267Y-121860925D01*
X110825740Y-121857094D01*
X110648076Y-121718811D01*
X110643502Y-121716336D01*
X110643495Y-121716331D01*
X110614820Y-121700814D01*
X110566548Y-121654498D01*
X110548789Y-121590000D01*
X110566548Y-121525502D01*
X110614820Y-121479186D01*
X110643490Y-121463671D01*
X110648076Y-121461189D01*
X110825740Y-121322906D01*
X110978222Y-121157268D01*
X111101360Y-120968791D01*
X111191796Y-120762616D01*
X111247064Y-120544368D01*
X111265656Y-120320000D01*
X111247064Y-120095632D01*
X111191796Y-119877384D01*
X111101360Y-119671209D01*
X110978222Y-119482732D01*
X110871643Y-119366957D01*
X110829272Y-119320930D01*
X110829267Y-119320925D01*
X110825740Y-119317094D01*
X110648076Y-119178811D01*
X110643502Y-119176336D01*
X110643495Y-119176331D01*
X110614820Y-119160814D01*
X110566548Y-119114498D01*
X110562556Y-119100000D01*
X126836384Y-119100000D01*
X126856783Y-119281047D01*
X126859118Y-119287720D01*
X126859119Y-119287724D01*
X126914619Y-119446335D01*
X126914621Y-119446339D01*
X126916957Y-119453015D01*
X126920719Y-119459003D01*
X126920721Y-119459006D01*
X127001591Y-119587710D01*
X127013889Y-119607281D01*
X127142719Y-119736111D01*
X127296985Y-119833043D01*
X127468953Y-119893217D01*
X127650000Y-119913616D01*
X127657029Y-119912824D01*
X127658118Y-119912824D01*
X127713457Y-119925627D01*
X127757549Y-119961433D01*
X127781436Y-120012966D01*
X127780263Y-120069754D01*
X127754710Y-120170661D01*
X127753000Y-120180907D01*
X127735276Y-120394811D01*
X127735276Y-120405189D01*
X127753000Y-120619092D01*
X127754709Y-120629335D01*
X127807400Y-120837407D01*
X127810770Y-120847223D01*
X127896988Y-121043778D01*
X127901931Y-121052913D01*
X127966733Y-121152099D01*
X127974828Y-121159947D01*
X127984360Y-121153928D01*
X129008404Y-120129884D01*
X129064888Y-120097272D01*
X129130110Y-120097272D01*
X129186594Y-120129884D01*
X130210638Y-121153928D01*
X130220170Y-121159947D01*
X130228265Y-121152099D01*
X130261717Y-121100898D01*
X130307231Y-121058999D01*
X130367200Y-121043813D01*
X130427169Y-121058999D01*
X130472683Y-121100898D01*
X130503905Y-121148686D01*
X130561778Y-121237268D01*
X130609283Y-121288872D01*
X130710727Y-121399069D01*
X130710731Y-121399073D01*
X130714260Y-121402906D01*
X130891924Y-121541189D01*
X130896502Y-121543666D01*
X130896509Y-121543671D01*
X130925180Y-121559187D01*
X130973451Y-121605503D01*
X130991210Y-121670000D01*
X130973451Y-121734497D01*
X130925180Y-121780813D01*
X130896509Y-121796328D01*
X130896493Y-121796338D01*
X130891924Y-121798811D01*
X130887813Y-121802010D01*
X130887811Y-121802012D01*
X130718378Y-121933888D01*
X130718372Y-121933893D01*
X130714260Y-121937094D01*
X130710737Y-121940919D01*
X130710727Y-121940930D01*
X130565306Y-122098899D01*
X130565302Y-122098902D01*
X130561778Y-122102732D01*
X130558930Y-122107090D01*
X130558927Y-122107095D01*
X130472983Y-122238643D01*
X130427469Y-122280542D01*
X130367500Y-122295728D01*
X130307531Y-122280542D01*
X130262017Y-122238643D01*
X130241241Y-122206843D01*
X130173222Y-122102732D01*
X130096048Y-122018899D01*
X130024272Y-121940930D01*
X130024267Y-121940925D01*
X130020740Y-121937094D01*
X129843076Y-121798811D01*
X129838500Y-121796334D01*
X129838490Y-121796328D01*
X129809294Y-121780529D01*
X129761021Y-121734213D01*
X129743262Y-121669715D01*
X129761022Y-121605217D01*
X129809294Y-121558900D01*
X129838225Y-121543243D01*
X129846910Y-121537569D01*
X129849052Y-121535902D01*
X129857287Y-121524533D01*
X129850519Y-121512229D01*
X129109229Y-120770939D01*
X129097499Y-120764167D01*
X129085771Y-120770938D01*
X128344478Y-121512230D01*
X128337710Y-121524532D01*
X128345946Y-121535901D01*
X128348092Y-121537571D01*
X128356777Y-121543245D01*
X128385706Y-121558901D01*
X128433978Y-121605217D01*
X128451737Y-121669715D01*
X128433978Y-121734212D01*
X128385707Y-121780528D01*
X128374201Y-121786755D01*
X128356500Y-121796334D01*
X128356494Y-121796337D01*
X128351924Y-121798811D01*
X128347813Y-121802010D01*
X128347811Y-121802012D01*
X128178378Y-121933888D01*
X128178372Y-121933893D01*
X128174260Y-121937094D01*
X128170737Y-121940919D01*
X128170727Y-121940930D01*
X128025306Y-122098899D01*
X128025302Y-122098902D01*
X128021778Y-122102732D01*
X128018930Y-122107090D01*
X128018927Y-122107095D01*
X127947632Y-122216221D01*
X127898640Y-122291209D01*
X127896548Y-122295978D01*
X127896546Y-122295982D01*
X127810299Y-122492606D01*
X127810296Y-122492614D01*
X127808204Y-122497384D01*
X127806923Y-122502440D01*
X127806922Y-122502445D01*
X127774476Y-122630573D01*
X127752936Y-122715632D01*
X127752506Y-122720820D01*
X127752505Y-122720827D01*
X127740808Y-122861989D01*
X127734344Y-122940000D01*
X127734774Y-122945189D01*
X127752505Y-123159172D01*
X127752505Y-123159177D01*
X127752936Y-123164368D01*
X127808204Y-123382616D01*
X127810297Y-123387389D01*
X127810299Y-123387393D01*
X127840093Y-123455316D01*
X127898640Y-123588791D01*
X128021778Y-123777268D01*
X128072227Y-123832069D01*
X128170727Y-123939069D01*
X128170731Y-123939073D01*
X128174260Y-123942906D01*
X128351924Y-124081189D01*
X128356500Y-124083665D01*
X128356504Y-124083668D01*
X128362987Y-124087176D01*
X128385705Y-124099470D01*
X128433976Y-124145784D01*
X128451737Y-124210281D01*
X128433979Y-124274779D01*
X128385709Y-124321096D01*
X128356782Y-124336751D01*
X128348091Y-124342428D01*
X128345945Y-124344098D01*
X128337710Y-124355465D01*
X128344479Y-124367769D01*
X129085770Y-125109060D01*
X129097499Y-125115832D01*
X129109230Y-125109059D01*
X129850522Y-124367766D01*
X129857288Y-124355466D01*
X129849051Y-124344096D01*
X129846911Y-124342431D01*
X129838216Y-124336750D01*
X129809292Y-124321097D01*
X129761020Y-124274780D01*
X129743262Y-124210281D01*
X129761023Y-124145784D01*
X129809291Y-124099472D01*
X129843076Y-124081189D01*
X130020740Y-123942906D01*
X130173222Y-123777268D01*
X130262018Y-123641354D01*
X130307530Y-123599457D01*
X130367500Y-123584271D01*
X130427470Y-123599457D01*
X130472981Y-123641354D01*
X130561778Y-123777268D01*
X130612227Y-123832069D01*
X130710727Y-123939069D01*
X130710731Y-123939073D01*
X130714260Y-123942906D01*
X130891924Y-124081189D01*
X130896502Y-124083666D01*
X130896509Y-124083671D01*
X130925180Y-124099187D01*
X130973451Y-124145503D01*
X130991210Y-124210000D01*
X130973451Y-124274497D01*
X130925180Y-124320813D01*
X130896509Y-124336328D01*
X130896493Y-124336338D01*
X130891924Y-124338811D01*
X130887813Y-124342010D01*
X130887811Y-124342012D01*
X130718378Y-124473888D01*
X130718372Y-124473893D01*
X130714260Y-124477094D01*
X130710737Y-124480919D01*
X130710727Y-124480930D01*
X130565306Y-124638899D01*
X130565302Y-124638902D01*
X130561778Y-124642732D01*
X130545190Y-124668122D01*
X130472683Y-124779102D01*
X130427169Y-124821000D01*
X130367200Y-124836186D01*
X130307231Y-124821000D01*
X130261718Y-124779102D01*
X130228264Y-124727898D01*
X130220170Y-124720051D01*
X130210638Y-124726070D01*
X129468438Y-125468271D01*
X129461667Y-125479999D01*
X129468439Y-125491729D01*
X130210638Y-126233928D01*
X130220170Y-126239947D01*
X130228265Y-126232099D01*
X130261717Y-126180898D01*
X130307231Y-126138999D01*
X130367200Y-126123813D01*
X130427169Y-126138999D01*
X130472683Y-126180898D01*
X130561778Y-126317268D01*
X130612227Y-126372069D01*
X130710727Y-126479069D01*
X130710731Y-126479073D01*
X130714260Y-126482906D01*
X130891924Y-126621189D01*
X131089926Y-126728342D01*
X131094855Y-126730034D01*
X131094857Y-126730035D01*
X131196395Y-126764893D01*
X131302865Y-126801444D01*
X131524931Y-126838500D01*
X131744858Y-126838500D01*
X131750069Y-126838500D01*
X131972135Y-126801444D01*
X132185074Y-126728342D01*
X132383076Y-126621189D01*
X132560740Y-126482906D01*
X132713222Y-126317268D01*
X132836360Y-126128791D01*
X132926796Y-125922616D01*
X132982064Y-125704368D01*
X132999706Y-125491460D01*
X133025049Y-125425510D01*
X133081908Y-125383567D01*
X133152405Y-125378824D01*
X133214370Y-125412774D01*
X136809042Y-129007446D01*
X136833672Y-129042296D01*
X136845257Y-129083369D01*
X136855768Y-129183364D01*
X136856458Y-129189928D01*
X136858497Y-129196205D01*
X136858498Y-129196207D01*
X136913430Y-129365271D01*
X136913433Y-129365278D01*
X136915473Y-129371556D01*
X137010960Y-129536944D01*
X137138747Y-129678866D01*
X137144089Y-129682747D01*
X137144091Y-129682749D01*
X137187298Y-129714141D01*
X137293248Y-129791118D01*
X137467712Y-129868794D01*
X137654513Y-129908500D01*
X137838884Y-129908500D01*
X137845487Y-129908500D01*
X138032288Y-129868794D01*
X138206752Y-129791118D01*
X138361253Y-129678866D01*
X138489040Y-129536944D01*
X138584527Y-129371556D01*
X138643542Y-129189928D01*
X138663504Y-129000000D01*
X138643542Y-128810072D01*
X138592722Y-128653664D01*
X138586569Y-128634728D01*
X138586568Y-128634726D01*
X138584527Y-128628444D01*
X138489040Y-128463056D01*
X138361253Y-128321134D01*
X138355911Y-128317253D01*
X138355908Y-128317250D01*
X138278057Y-128260688D01*
X138206752Y-128208882D01*
X138032288Y-128131206D01*
X138025835Y-128129834D01*
X138025831Y-128129833D01*
X137851943Y-128092872D01*
X137851940Y-128092871D01*
X137845487Y-128091500D01*
X137838884Y-128091500D01*
X137737095Y-128091500D01*
X137688877Y-128081909D01*
X137648000Y-128054595D01*
X136790059Y-127196654D01*
X140392272Y-127196654D01*
X140392977Y-127208122D01*
X140427426Y-127321686D01*
X140432141Y-127333069D01*
X140519904Y-127497261D01*
X140526755Y-127507514D01*
X140644861Y-127651427D01*
X140653572Y-127660138D01*
X140797485Y-127778244D01*
X140807738Y-127785095D01*
X140971930Y-127872858D01*
X140983313Y-127877573D01*
X141096877Y-127912022D01*
X141108345Y-127912727D01*
X141111000Y-127901552D01*
X141111000Y-127210590D01*
X141107493Y-127197506D01*
X141094410Y-127194000D01*
X140403448Y-127194000D01*
X140392272Y-127196654D01*
X136790059Y-127196654D01*
X133736750Y-124143345D01*
X140392272Y-124143345D01*
X140403448Y-124146000D01*
X141094410Y-124146000D01*
X141107493Y-124142493D01*
X141111000Y-124129410D01*
X141111000Y-123400590D01*
X141107493Y-123387506D01*
X141094410Y-123384000D01*
X140403448Y-123384000D01*
X140392272Y-123386654D01*
X140392977Y-123398122D01*
X140427426Y-123511686D01*
X140432141Y-123523069D01*
X140519905Y-123687263D01*
X140525071Y-123694994D01*
X140543886Y-123740413D01*
X140543888Y-123789576D01*
X140525076Y-123834996D01*
X140519908Y-123842730D01*
X140432141Y-124006930D01*
X140427426Y-124018313D01*
X140392977Y-124131877D01*
X140392272Y-124143345D01*
X133736750Y-124143345D01*
X132987366Y-123393961D01*
X132954982Y-123338314D01*
X132954317Y-123273936D01*
X132982064Y-123164368D01*
X133000656Y-122940000D01*
X132982064Y-122715632D01*
X132926796Y-122497384D01*
X132836360Y-122291209D01*
X132713222Y-122102732D01*
X132636048Y-122018899D01*
X132564272Y-121940930D01*
X132564267Y-121940925D01*
X132560740Y-121937094D01*
X132383076Y-121798811D01*
X132378497Y-121796333D01*
X132378494Y-121796331D01*
X132349818Y-121780812D01*
X132301547Y-121734494D01*
X132283789Y-121669996D01*
X132301550Y-121605499D01*
X132349821Y-121559185D01*
X132383076Y-121541189D01*
X132560740Y-121402906D01*
X132713222Y-121237268D01*
X132730252Y-121211202D01*
X132743723Y-121190584D01*
X132789236Y-121148686D01*
X132849205Y-121133500D01*
X140235350Y-121133500D01*
X140302205Y-121152699D01*
X140348686Y-121204445D01*
X140360627Y-121272967D01*
X140356500Y-121311362D01*
X140356500Y-122408638D01*
X140356859Y-122411985D01*
X140356860Y-122411988D01*
X140362168Y-122461367D01*
X140362169Y-122461373D01*
X140363011Y-122469201D01*
X140365762Y-122476578D01*
X140365763Y-122476580D01*
X140410962Y-122597763D01*
X140410964Y-122597766D01*
X140414111Y-122606204D01*
X140419510Y-122613416D01*
X140423829Y-122621325D01*
X140422178Y-122622226D01*
X140441729Y-122670641D01*
X140433123Y-122734560D01*
X140427426Y-122748314D01*
X140392977Y-122861877D01*
X140392272Y-122873345D01*
X140403448Y-122876000D01*
X141493000Y-122876000D01*
X141556000Y-122892881D01*
X141602119Y-122939000D01*
X141619000Y-123002000D01*
X141619000Y-124528000D01*
X141602119Y-124591000D01*
X141556000Y-124637119D01*
X141493000Y-124654000D01*
X140403448Y-124654000D01*
X140392272Y-124656654D01*
X140392977Y-124668122D01*
X140427426Y-124781686D01*
X140432141Y-124793069D01*
X140519907Y-124957266D01*
X140524769Y-124964543D01*
X140543584Y-125009963D01*
X140543584Y-125059125D01*
X140525135Y-125103669D01*
X140522405Y-125106996D01*
X140519488Y-125112453D01*
X140519485Y-125112458D01*
X140441631Y-125258114D01*
X140428759Y-125282196D01*
X140426963Y-125288116D01*
X140426962Y-125288119D01*
X140372888Y-125466376D01*
X140372886Y-125466382D01*
X140371092Y-125472299D01*
X140370486Y-125478450D01*
X140370484Y-125478461D01*
X140356634Y-125619092D01*
X140351620Y-125670000D01*
X140352227Y-125676163D01*
X140370484Y-125861538D01*
X140370485Y-125861547D01*
X140371092Y-125867701D01*
X140372887Y-125873619D01*
X140372888Y-125873623D01*
X140389199Y-125927393D01*
X140428759Y-126057804D01*
X140431678Y-126063265D01*
X140519486Y-126227544D01*
X140519488Y-126227548D01*
X140522405Y-126233004D01*
X140525134Y-126236329D01*
X140543583Y-126280871D01*
X140543584Y-126330029D01*
X140524775Y-126375446D01*
X140519908Y-126382730D01*
X140432141Y-126546930D01*
X140427426Y-126558313D01*
X140392977Y-126671877D01*
X140392272Y-126683345D01*
X140403448Y-126686000D01*
X141493000Y-126686000D01*
X141556000Y-126702881D01*
X141602119Y-126749000D01*
X141619000Y-126812000D01*
X141619000Y-127901552D01*
X141621654Y-127912727D01*
X141633122Y-127912022D01*
X141746686Y-127877573D01*
X141758069Y-127872858D01*
X141922266Y-127785092D01*
X141929543Y-127780231D01*
X141974963Y-127761416D01*
X142024125Y-127761416D01*
X142068669Y-127779864D01*
X142071996Y-127782595D01*
X142247196Y-127876241D01*
X142437299Y-127933908D01*
X142443460Y-127934514D01*
X142443461Y-127934515D01*
X142628837Y-127952773D01*
X142635000Y-127953380D01*
X142832701Y-127933908D01*
X143022804Y-127876241D01*
X143198004Y-127782595D01*
X143351568Y-127656568D01*
X143477595Y-127503004D01*
X143571241Y-127327804D01*
X143628908Y-127137701D01*
X143648380Y-126940000D01*
X143634230Y-126796331D01*
X143629515Y-126748461D01*
X143629514Y-126748460D01*
X143628908Y-126742299D01*
X143571241Y-126552196D01*
X143477595Y-126376996D01*
X143475099Y-126373954D01*
X143456718Y-126329584D01*
X143456718Y-126280416D01*
X143475099Y-126236045D01*
X143477595Y-126233004D01*
X143571241Y-126057804D01*
X143628908Y-125867701D01*
X143648380Y-125670000D01*
X143630178Y-125485189D01*
X143629515Y-125478461D01*
X143629514Y-125478460D01*
X143628908Y-125472299D01*
X143571241Y-125282196D01*
X143482318Y-125115832D01*
X143480512Y-125112453D01*
X143480511Y-125112451D01*
X143477595Y-125106996D01*
X143475099Y-125103955D01*
X143456718Y-125059578D01*
X143456719Y-125010411D01*
X143475100Y-124966043D01*
X143477595Y-124963004D01*
X143571241Y-124787804D01*
X143628908Y-124597701D01*
X143648380Y-124400000D01*
X143643688Y-124352361D01*
X143650446Y-124297564D01*
X143679984Y-124250919D01*
X144142264Y-123788639D01*
X144150535Y-123781113D01*
X144157018Y-123777000D01*
X144203661Y-123727328D01*
X144206353Y-123724550D01*
X144226135Y-123704770D01*
X144228613Y-123701574D01*
X144236308Y-123692563D01*
X144266586Y-123660321D01*
X144276348Y-123642562D01*
X144287195Y-123626050D01*
X144299614Y-123610041D01*
X144317179Y-123569446D01*
X144322388Y-123558814D01*
X144343695Y-123520060D01*
X144348733Y-123500434D01*
X144355134Y-123481737D01*
X144363181Y-123463145D01*
X144370096Y-123419477D01*
X144372504Y-123407853D01*
X144377758Y-123387393D01*
X144383500Y-123365030D01*
X144383500Y-123344776D01*
X144385051Y-123325065D01*
X144386980Y-123312885D01*
X144388220Y-123305057D01*
X144384058Y-123261038D01*
X144383500Y-123249181D01*
X144383500Y-121578768D01*
X144384027Y-121567584D01*
X144385702Y-121560092D01*
X144383561Y-121492001D01*
X144383500Y-121488044D01*
X144383500Y-121464109D01*
X144383500Y-121460144D01*
X144382995Y-121456152D01*
X144382062Y-121444305D01*
X144380674Y-121400111D01*
X144375017Y-121380642D01*
X144371013Y-121361302D01*
X144368474Y-121341203D01*
X144352200Y-121300099D01*
X144348356Y-121288872D01*
X144338230Y-121254017D01*
X144338229Y-121254016D01*
X144336019Y-121246407D01*
X144325703Y-121228964D01*
X144317005Y-121211209D01*
X144309552Y-121192383D01*
X144283561Y-121156609D01*
X144277055Y-121146705D01*
X144254542Y-121108638D01*
X144240218Y-121094314D01*
X144227382Y-121079286D01*
X144215472Y-121062893D01*
X144209367Y-121057842D01*
X144209360Y-121057835D01*
X144181394Y-121034700D01*
X144172615Y-121026711D01*
X143253651Y-120107747D01*
X143246112Y-120099463D01*
X143242000Y-120092982D01*
X143192347Y-120046355D01*
X143189505Y-120043600D01*
X143172574Y-120026669D01*
X143172574Y-120026668D01*
X143169770Y-120023865D01*
X143166575Y-120021386D01*
X143157554Y-120013682D01*
X143131097Y-119988838D01*
X143125321Y-119983414D01*
X143118377Y-119979596D01*
X143118371Y-119979592D01*
X143107566Y-119973652D01*
X143091047Y-119962801D01*
X143075041Y-119950386D01*
X143067766Y-119947238D01*
X143067763Y-119947236D01*
X143034466Y-119932828D01*
X143023804Y-119927605D01*
X142992007Y-119910124D01*
X142992005Y-119910123D01*
X142985060Y-119906305D01*
X142977383Y-119904334D01*
X142977381Y-119904333D01*
X142965438Y-119901267D01*
X142946734Y-119894863D01*
X142935420Y-119889967D01*
X142935418Y-119889966D01*
X142928145Y-119886819D01*
X142920319Y-119885579D01*
X142920318Y-119885579D01*
X142884475Y-119879902D01*
X142872859Y-119877496D01*
X142830030Y-119866500D01*
X142822101Y-119866500D01*
X142809776Y-119866500D01*
X142790065Y-119864949D01*
X142777885Y-119863019D01*
X142777878Y-119863018D01*
X142770057Y-119861780D01*
X142762173Y-119862525D01*
X142762165Y-119862525D01*
X142726039Y-119865941D01*
X142714181Y-119866500D01*
X132969251Y-119866500D01*
X132921836Y-119857238D01*
X132881391Y-119830814D01*
X132853863Y-119791112D01*
X132838455Y-119755985D01*
X132838454Y-119755984D01*
X132836360Y-119751209D01*
X132713222Y-119562732D01*
X132617735Y-119459006D01*
X132564272Y-119400930D01*
X132564267Y-119400925D01*
X132560740Y-119397094D01*
X132383076Y-119258811D01*
X132378502Y-119256336D01*
X132378495Y-119256331D01*
X132349820Y-119240814D01*
X132301548Y-119194498D01*
X132283789Y-119130000D01*
X132301548Y-119065502D01*
X132349820Y-119019186D01*
X132378495Y-119003668D01*
X132378494Y-119003668D01*
X132383076Y-119001189D01*
X132560740Y-118862906D01*
X132713222Y-118697268D01*
X132809055Y-118550583D01*
X132854569Y-118508686D01*
X132914538Y-118493500D01*
X136655784Y-118493500D01*
X136707033Y-118504393D01*
X136749419Y-118535188D01*
X136788747Y-118578866D01*
X136943248Y-118691118D01*
X137117712Y-118768794D01*
X137304513Y-118808500D01*
X137488884Y-118808500D01*
X137495487Y-118808500D01*
X137682288Y-118768794D01*
X137856752Y-118691118D01*
X138011253Y-118578866D01*
X138139040Y-118436944D01*
X138234527Y-118271556D01*
X138293542Y-118089928D01*
X138313504Y-117900000D01*
X138293542Y-117710072D01*
X138234527Y-117528444D01*
X138139040Y-117363056D01*
X138011253Y-117221134D01*
X138005911Y-117217253D01*
X138005908Y-117217250D01*
X137923367Y-117157281D01*
X137856752Y-117108882D01*
X137682288Y-117031206D01*
X137675835Y-117029834D01*
X137675831Y-117029833D01*
X137501943Y-116992872D01*
X137501940Y-116992871D01*
X137495487Y-116991500D01*
X137304513Y-116991500D01*
X137298060Y-116992871D01*
X137298056Y-116992872D01*
X137124168Y-117029833D01*
X137124161Y-117029835D01*
X137117712Y-117031206D01*
X137111682Y-117033890D01*
X137111681Y-117033891D01*
X136949278Y-117106197D01*
X136949275Y-117106198D01*
X136943248Y-117108882D01*
X136937907Y-117112762D01*
X136937906Y-117112763D01*
X136814482Y-117202436D01*
X136779357Y-117220333D01*
X136740421Y-117226500D01*
X133720598Y-117226500D01*
X133656581Y-117209026D01*
X133610320Y-117161449D01*
X133594648Y-117096967D01*
X133613910Y-117033465D01*
X133617408Y-117027898D01*
X133633043Y-117003015D01*
X133693217Y-116831047D01*
X133713616Y-116650000D01*
X133693217Y-116468953D01*
X133633043Y-116296985D01*
X133598957Y-116242738D01*
X133539878Y-116148714D01*
X133539877Y-116148713D01*
X133536111Y-116142719D01*
X133407281Y-116013889D01*
X133401287Y-116010123D01*
X133401285Y-116010121D01*
X133259006Y-115920721D01*
X133259003Y-115920719D01*
X133253015Y-115916957D01*
X133246339Y-115914621D01*
X133246335Y-115914619D01*
X133087724Y-115859119D01*
X133087720Y-115859118D01*
X133081047Y-115856783D01*
X133074023Y-115855991D01*
X133074012Y-115855989D01*
X133051370Y-115853438D01*
X132986146Y-115826119D01*
X132945910Y-115767967D01*
X132943336Y-115697300D01*
X132982064Y-115544368D01*
X133000656Y-115320000D01*
X132982064Y-115095632D01*
X132926796Y-114877384D01*
X132836360Y-114671209D01*
X132713222Y-114482732D01*
X132634541Y-114397262D01*
X132564272Y-114320930D01*
X132564267Y-114320925D01*
X132560740Y-114317094D01*
X132383076Y-114178811D01*
X132378497Y-114176333D01*
X132378494Y-114176331D01*
X132189659Y-114074139D01*
X132189656Y-114074137D01*
X132185074Y-114071658D01*
X132180150Y-114069967D01*
X132180142Y-114069964D01*
X131977065Y-114000248D01*
X131977059Y-114000246D01*
X131972135Y-113998556D01*
X131966998Y-113997698D01*
X131966995Y-113997698D01*
X131755206Y-113962357D01*
X131755203Y-113962356D01*
X131750069Y-113961500D01*
X131524931Y-113961500D01*
X131519797Y-113962356D01*
X131519793Y-113962357D01*
X131308004Y-113997698D01*
X131307998Y-113997699D01*
X131302865Y-113998556D01*
X131297943Y-114000245D01*
X131297934Y-114000248D01*
X131094857Y-114069964D01*
X131094844Y-114069969D01*
X131089926Y-114071658D01*
X131085347Y-114074135D01*
X131085340Y-114074139D01*
X130896505Y-114176331D01*
X130896497Y-114176336D01*
X130891924Y-114178811D01*
X130887813Y-114182010D01*
X130887811Y-114182012D01*
X130718378Y-114313888D01*
X130718372Y-114313893D01*
X130714260Y-114317094D01*
X130710729Y-114320929D01*
X130710721Y-114320937D01*
X130600730Y-114440417D01*
X130549624Y-114474016D01*
X130488718Y-114479590D01*
X130432361Y-114455828D01*
X130393834Y-114408327D01*
X130391924Y-114404232D01*
X130389615Y-114397262D01*
X130296530Y-114246348D01*
X130171152Y-114120970D01*
X130164904Y-114117116D01*
X130026481Y-114031735D01*
X130026476Y-114031732D01*
X130020238Y-114027885D01*
X130013276Y-114025578D01*
X130013274Y-114025577D01*
X129858451Y-113974275D01*
X129858449Y-113974274D01*
X129851926Y-113972113D01*
X129845089Y-113971414D01*
X129845087Y-113971414D01*
X129751229Y-113961825D01*
X129751223Y-113961824D01*
X129748045Y-113961500D01*
X129744839Y-113961500D01*
X128450161Y-113961500D01*
X128450141Y-113961500D01*
X128446956Y-113961501D01*
X128443779Y-113961825D01*
X128443770Y-113961826D01*
X128349911Y-113971414D01*
X128349905Y-113971415D01*
X128343074Y-113972113D01*
X128336558Y-113974271D01*
X128336549Y-113974274D01*
X128181725Y-114025577D01*
X128181719Y-114025579D01*
X128174762Y-114027885D01*
X128168526Y-114031730D01*
X128168518Y-114031735D01*
X128030095Y-114117116D01*
X128030090Y-114117119D01*
X128023848Y-114120970D01*
X128018658Y-114126159D01*
X128018654Y-114126163D01*
X127903663Y-114241154D01*
X127903659Y-114241158D01*
X127898470Y-114246348D01*
X127894619Y-114252590D01*
X127894616Y-114252595D01*
X127809235Y-114391018D01*
X127809230Y-114391026D01*
X127805385Y-114397262D01*
X127803079Y-114404219D01*
X127803077Y-114404225D01*
X127751775Y-114559048D01*
X127749613Y-114565574D01*
X127748914Y-114572408D01*
X127748914Y-114572412D01*
X127739325Y-114666270D01*
X127739000Y-114669455D01*
X127739000Y-114672659D01*
X127739000Y-114672660D01*
X127739000Y-115967338D01*
X127739000Y-115967357D01*
X127739001Y-115970544D01*
X127739325Y-115973721D01*
X127739326Y-115973729D01*
X127743428Y-116013889D01*
X127749613Y-116074426D01*
X127751772Y-116080943D01*
X127751774Y-116080950D01*
X127774229Y-116148714D01*
X127805385Y-116242738D01*
X127809232Y-116248976D01*
X127809235Y-116248981D01*
X127894616Y-116387404D01*
X127898470Y-116393652D01*
X128023848Y-116519030D01*
X128049089Y-116534599D01*
X128168518Y-116608264D01*
X128168520Y-116608265D01*
X128174762Y-116612115D01*
X128248886Y-116636677D01*
X128295834Y-116664739D01*
X128326467Y-116710053D01*
X128327571Y-116717033D01*
X128344479Y-116747769D01*
X129367615Y-117770905D01*
X129400227Y-117827389D01*
X129400227Y-117892611D01*
X129367615Y-117949095D01*
X129186595Y-118130115D01*
X129130111Y-118162727D01*
X129064889Y-118162727D01*
X129008405Y-118130115D01*
X127984360Y-117106070D01*
X127974828Y-117100051D01*
X127966734Y-117107899D01*
X127901931Y-117207086D01*
X127896988Y-117216221D01*
X127810770Y-117412776D01*
X127807400Y-117422592D01*
X127754709Y-117630664D01*
X127753000Y-117640907D01*
X127735276Y-117854811D01*
X127735276Y-117865189D01*
X127753000Y-118079092D01*
X127754711Y-118089343D01*
X127765069Y-118130244D01*
X127766243Y-118187032D01*
X127742357Y-118238566D01*
X127698264Y-118274373D01*
X127649907Y-118285560D01*
X127650000Y-118286384D01*
X127475981Y-118305991D01*
X127475979Y-118305991D01*
X127468953Y-118306783D01*
X127462280Y-118309117D01*
X127462275Y-118309119D01*
X127303664Y-118364619D01*
X127303656Y-118364622D01*
X127296985Y-118366957D01*
X127291000Y-118370717D01*
X127290993Y-118370721D01*
X127148714Y-118460121D01*
X127148707Y-118460126D01*
X127142719Y-118463889D01*
X127137714Y-118468893D01*
X127137710Y-118468897D01*
X127018897Y-118587710D01*
X127018893Y-118587714D01*
X127013889Y-118592719D01*
X127010126Y-118598707D01*
X127010121Y-118598714D01*
X126920721Y-118740993D01*
X126920717Y-118741000D01*
X126916957Y-118746985D01*
X126914622Y-118753656D01*
X126914619Y-118753664D01*
X126859119Y-118912275D01*
X126859117Y-118912280D01*
X126856783Y-118918953D01*
X126855991Y-118925979D01*
X126855991Y-118925981D01*
X126844458Y-119028342D01*
X126836384Y-119100000D01*
X110562556Y-119100000D01*
X110548789Y-119050000D01*
X110566548Y-118985502D01*
X110614820Y-118939186D01*
X110643490Y-118923671D01*
X110648076Y-118921189D01*
X110825740Y-118782906D01*
X110978222Y-118617268D01*
X111101360Y-118428791D01*
X111191796Y-118222616D01*
X111247064Y-118004368D01*
X111265656Y-117780000D01*
X111247064Y-117555632D01*
X111191796Y-117337384D01*
X111101360Y-117131209D01*
X110978222Y-116942732D01*
X110917456Y-116876723D01*
X110829272Y-116780930D01*
X110829267Y-116780925D01*
X110825740Y-116777094D01*
X110648076Y-116638811D01*
X110643497Y-116636333D01*
X110643494Y-116636331D01*
X110454659Y-116534139D01*
X110454656Y-116534137D01*
X110450074Y-116531658D01*
X110445150Y-116529967D01*
X110445142Y-116529964D01*
X110242065Y-116460248D01*
X110242059Y-116460246D01*
X110237135Y-116458556D01*
X110231998Y-116457698D01*
X110231995Y-116457698D01*
X110020206Y-116422357D01*
X110020203Y-116422356D01*
X110015069Y-116421500D01*
X109789931Y-116421500D01*
X109784797Y-116422356D01*
X109784793Y-116422357D01*
X109573004Y-116457698D01*
X109572998Y-116457699D01*
X109567865Y-116458556D01*
X109562943Y-116460245D01*
X109562934Y-116460248D01*
X109359857Y-116529964D01*
X109359844Y-116529969D01*
X109354926Y-116531658D01*
X109350347Y-116534135D01*
X109350340Y-116534139D01*
X109161505Y-116636331D01*
X109161497Y-116636336D01*
X109156924Y-116638811D01*
X109152813Y-116642010D01*
X109152811Y-116642012D01*
X108983378Y-116773888D01*
X108983372Y-116773893D01*
X108979260Y-116777094D01*
X108975737Y-116780919D01*
X108975727Y-116780930D01*
X108830306Y-116938899D01*
X108830302Y-116938902D01*
X108826778Y-116942732D01*
X108787393Y-117003015D01*
X108737683Y-117079102D01*
X108692169Y-117121000D01*
X108632200Y-117136186D01*
X108572231Y-117121000D01*
X108526718Y-117079102D01*
X108493264Y-117027898D01*
X108485170Y-117020051D01*
X108475638Y-117026070D01*
X107733438Y-117768271D01*
X107726667Y-117779999D01*
X107733439Y-117791729D01*
X108475638Y-118533928D01*
X108485170Y-118539947D01*
X108493265Y-118532099D01*
X108526717Y-118480898D01*
X108572231Y-118438999D01*
X108632200Y-118423813D01*
X108692169Y-118438999D01*
X108737683Y-118480898D01*
X108771134Y-118532099D01*
X108826778Y-118617268D01*
X108830306Y-118621100D01*
X108975727Y-118779069D01*
X108975731Y-118779073D01*
X108979260Y-118782906D01*
X109156924Y-118921189D01*
X109161502Y-118923666D01*
X109161509Y-118923671D01*
X109190180Y-118939187D01*
X109238451Y-118985503D01*
X109256210Y-119050000D01*
X109238451Y-119114497D01*
X109190180Y-119160813D01*
X109161509Y-119176328D01*
X109161493Y-119176338D01*
X109156924Y-119178811D01*
X109152813Y-119182010D01*
X109152811Y-119182012D01*
X108983378Y-119313888D01*
X108983372Y-119313893D01*
X108979260Y-119317094D01*
X108975737Y-119320919D01*
X108975727Y-119320930D01*
X108830306Y-119478899D01*
X108830302Y-119478902D01*
X108826778Y-119482732D01*
X108823931Y-119487090D01*
X108737683Y-119619102D01*
X108692169Y-119661000D01*
X108632200Y-119676186D01*
X108572231Y-119661000D01*
X108526718Y-119619102D01*
X108493264Y-119567898D01*
X108485170Y-119560051D01*
X108475638Y-119566070D01*
X107733438Y-120308271D01*
X107726667Y-120319999D01*
X107733439Y-120331729D01*
X108475638Y-121073928D01*
X108485170Y-121079947D01*
X108493265Y-121072099D01*
X108526717Y-121020898D01*
X108572231Y-120978999D01*
X108632200Y-120963813D01*
X108692169Y-120978999D01*
X108737683Y-121020898D01*
X108761815Y-121057835D01*
X108826778Y-121157268D01*
X108830306Y-121161100D01*
X108975727Y-121319069D01*
X108975731Y-121319073D01*
X108979260Y-121322906D01*
X109156924Y-121461189D01*
X109161502Y-121463666D01*
X109161509Y-121463671D01*
X109190180Y-121479187D01*
X109238451Y-121525503D01*
X109256210Y-121590000D01*
X109238451Y-121654497D01*
X109190180Y-121700813D01*
X109161509Y-121716328D01*
X109161493Y-121716338D01*
X109156924Y-121718811D01*
X109152813Y-121722010D01*
X109152811Y-121722012D01*
X108983378Y-121853888D01*
X108983372Y-121853893D01*
X108979260Y-121857094D01*
X108975737Y-121860919D01*
X108975727Y-121860930D01*
X108830306Y-122018899D01*
X108830302Y-122018902D01*
X108826778Y-122022732D01*
X108823931Y-122027090D01*
X108737683Y-122159102D01*
X108692169Y-122201000D01*
X108632200Y-122216186D01*
X108572231Y-122201000D01*
X108526718Y-122159102D01*
X108493264Y-122107898D01*
X108485170Y-122100051D01*
X108475638Y-122106070D01*
X107733438Y-122848271D01*
X107726667Y-122859999D01*
X107733439Y-122871729D01*
X108475638Y-123613928D01*
X108485170Y-123619947D01*
X108493265Y-123612099D01*
X108526717Y-123560898D01*
X108572231Y-123518999D01*
X108632200Y-123503813D01*
X108692169Y-123518999D01*
X108737683Y-123560898D01*
X108758758Y-123593156D01*
X108826778Y-123697268D01*
X108833684Y-123704770D01*
X108975727Y-123859069D01*
X108975731Y-123859073D01*
X108979260Y-123862906D01*
X109156924Y-124001189D01*
X109161502Y-124003666D01*
X109161509Y-124003671D01*
X109190180Y-124019187D01*
X109238451Y-124065503D01*
X109256210Y-124130000D01*
X109238451Y-124194497D01*
X109190180Y-124240813D01*
X109161509Y-124256328D01*
X109161493Y-124256338D01*
X109156924Y-124258811D01*
X109152813Y-124262010D01*
X109152811Y-124262012D01*
X108983378Y-124393888D01*
X108983372Y-124393893D01*
X108979260Y-124397094D01*
X108975737Y-124400919D01*
X108975727Y-124400930D01*
X108830306Y-124558899D01*
X108830302Y-124558902D01*
X108826778Y-124562732D01*
X108823931Y-124567090D01*
X108737683Y-124699102D01*
X108692169Y-124741000D01*
X108632200Y-124756186D01*
X108572231Y-124741000D01*
X108526718Y-124699102D01*
X108493264Y-124647898D01*
X108485170Y-124640051D01*
X108475638Y-124646070D01*
X107733438Y-125388271D01*
X107726667Y-125399999D01*
X107733439Y-125411729D01*
X108475638Y-126153928D01*
X108485170Y-126159947D01*
X108493265Y-126152099D01*
X108526717Y-126100898D01*
X108572231Y-126058999D01*
X108632200Y-126043813D01*
X108692169Y-126058999D01*
X108737683Y-126100898D01*
X108758758Y-126133156D01*
X108826778Y-126237268D01*
X108830306Y-126241100D01*
X108975727Y-126399069D01*
X108975731Y-126399073D01*
X108979260Y-126402906D01*
X109156924Y-126541189D01*
X109161502Y-126543666D01*
X109161509Y-126543671D01*
X109190180Y-126559187D01*
X109238451Y-126605503D01*
X109256210Y-126670000D01*
X109238451Y-126734497D01*
X109190180Y-126780813D01*
X109161509Y-126796328D01*
X109161493Y-126796338D01*
X109156924Y-126798811D01*
X109152813Y-126802010D01*
X109152811Y-126802012D01*
X108983378Y-126933888D01*
X108983372Y-126933893D01*
X108979260Y-126937094D01*
X108975737Y-126940919D01*
X108975727Y-126940930D01*
X108830306Y-127098899D01*
X108830302Y-127098902D01*
X108826778Y-127102732D01*
X108776263Y-127180051D01*
X108737683Y-127239102D01*
X108692169Y-127281000D01*
X108632200Y-127296186D01*
X108572231Y-127281000D01*
X108526718Y-127239102D01*
X108493264Y-127187898D01*
X108485170Y-127180051D01*
X108475638Y-127186070D01*
X107733438Y-127928271D01*
X107726667Y-127939999D01*
X107733439Y-127951729D01*
X108475638Y-128693928D01*
X108485170Y-128699947D01*
X108493265Y-128692099D01*
X108526717Y-128640898D01*
X108572231Y-128598999D01*
X108632200Y-128583813D01*
X108692169Y-128598999D01*
X108737683Y-128640898D01*
X108771134Y-128692099D01*
X108826778Y-128777268D01*
X108830306Y-128781100D01*
X108975727Y-128939069D01*
X108975731Y-128939073D01*
X108979260Y-128942906D01*
X109156924Y-129081189D01*
X109161502Y-129083666D01*
X109161509Y-129083671D01*
X109190180Y-129099187D01*
X109238451Y-129145503D01*
X109256210Y-129210000D01*
X109238451Y-129274497D01*
X109190180Y-129320813D01*
X109161509Y-129336328D01*
X109161493Y-129336338D01*
X109156924Y-129338811D01*
X109152813Y-129342010D01*
X109152811Y-129342012D01*
X108983378Y-129473888D01*
X108983372Y-129473893D01*
X108979260Y-129477094D01*
X108975737Y-129480919D01*
X108975727Y-129480930D01*
X108830306Y-129638899D01*
X108830302Y-129638902D01*
X108826778Y-129642732D01*
X108820192Y-129652813D01*
X108737683Y-129779102D01*
X108692169Y-129821000D01*
X108632200Y-129836186D01*
X108572231Y-129821000D01*
X108526718Y-129779102D01*
X108493264Y-129727898D01*
X108485170Y-129720051D01*
X108475638Y-129726070D01*
X107733438Y-130468271D01*
X107726667Y-130479999D01*
X107733439Y-130491729D01*
X108475638Y-131233928D01*
X108485170Y-131239947D01*
X108493265Y-131232099D01*
X108526717Y-131180898D01*
X108572231Y-131138999D01*
X108632200Y-131123813D01*
X108692169Y-131138999D01*
X108737683Y-131180898D01*
X108826778Y-131317268D01*
X108830306Y-131321100D01*
X108975727Y-131479069D01*
X108975731Y-131479073D01*
X108979260Y-131482906D01*
X109156924Y-131621189D01*
X109161502Y-131623666D01*
X109161509Y-131623671D01*
X109190180Y-131639187D01*
X109238451Y-131685503D01*
X109256210Y-131750000D01*
X109238451Y-131814497D01*
X109190180Y-131860813D01*
X109161509Y-131876328D01*
X109161493Y-131876338D01*
X109156924Y-131878811D01*
X109152813Y-131882010D01*
X109152811Y-131882012D01*
X108983378Y-132013888D01*
X108983372Y-132013893D01*
X108979260Y-132017094D01*
X108975737Y-132020919D01*
X108975727Y-132020930D01*
X108830306Y-132178899D01*
X108830302Y-132178902D01*
X108826778Y-132182732D01*
X108823931Y-132187090D01*
X108737683Y-132319102D01*
X108692169Y-132361000D01*
X108632200Y-132376186D01*
X108572231Y-132361000D01*
X108526718Y-132319102D01*
X108493264Y-132267898D01*
X108485170Y-132260051D01*
X108475638Y-132266070D01*
X107733438Y-133008271D01*
X107726667Y-133019999D01*
X107733439Y-133031729D01*
X108475638Y-133773928D01*
X108485170Y-133779947D01*
X108493265Y-133772099D01*
X108526717Y-133720898D01*
X108572231Y-133678999D01*
X108632200Y-133663813D01*
X108692169Y-133678999D01*
X108737683Y-133720898D01*
X108826778Y-133857268D01*
X108854815Y-133887724D01*
X108975727Y-134019069D01*
X108975731Y-134019073D01*
X108979260Y-134022906D01*
X109156924Y-134161189D01*
X109161502Y-134163666D01*
X109161509Y-134163671D01*
X109190180Y-134179187D01*
X109238451Y-134225503D01*
X109256210Y-134290000D01*
X109238451Y-134354497D01*
X109190180Y-134400813D01*
X109161509Y-134416328D01*
X109161493Y-134416338D01*
X109156924Y-134418811D01*
X109152813Y-134422010D01*
X109152811Y-134422012D01*
X108983378Y-134553888D01*
X108983372Y-134553893D01*
X108979260Y-134557094D01*
X108975737Y-134560919D01*
X108975727Y-134560930D01*
X108830306Y-134718899D01*
X108830302Y-134718902D01*
X108826778Y-134722732D01*
X108806993Y-134753015D01*
X108737683Y-134859102D01*
X108692169Y-134901000D01*
X108632200Y-134916186D01*
X108572231Y-134901000D01*
X108526718Y-134859102D01*
X108493264Y-134807898D01*
X108485170Y-134800051D01*
X108475638Y-134806070D01*
X107733438Y-135548271D01*
X107726667Y-135559999D01*
X107733439Y-135571729D01*
X108475638Y-136313928D01*
X108485170Y-136319947D01*
X108493265Y-136312099D01*
X108526717Y-136260898D01*
X108572231Y-136218999D01*
X108632200Y-136203813D01*
X108692169Y-136218999D01*
X108737683Y-136260898D01*
X108826778Y-136397268D01*
X108830306Y-136401100D01*
X108975727Y-136559069D01*
X108975731Y-136559073D01*
X108979260Y-136562906D01*
X109156924Y-136701189D01*
X109161502Y-136703666D01*
X109161509Y-136703671D01*
X109190180Y-136719187D01*
X109238451Y-136765503D01*
X109256210Y-136830000D01*
X109238451Y-136894497D01*
X109190180Y-136940813D01*
X109161509Y-136956328D01*
X109161493Y-136956338D01*
X109156924Y-136958811D01*
X109152813Y-136962010D01*
X109152811Y-136962012D01*
X108983378Y-137093888D01*
X108983372Y-137093893D01*
X108979260Y-137097094D01*
X108975737Y-137100919D01*
X108975727Y-137100930D01*
X108830306Y-137258899D01*
X108830302Y-137258902D01*
X108826778Y-137262732D01*
X108791417Y-137316856D01*
X108737683Y-137399102D01*
X108692169Y-137441000D01*
X108632200Y-137456186D01*
X108572231Y-137441000D01*
X108526718Y-137399102D01*
X108493264Y-137347898D01*
X108485170Y-137340051D01*
X108475638Y-137346070D01*
X107733438Y-138088271D01*
X107726667Y-138099999D01*
X107733439Y-138111729D01*
X108475638Y-138853928D01*
X108485170Y-138859947D01*
X108493265Y-138852099D01*
X108526717Y-138800898D01*
X108572231Y-138758999D01*
X108632200Y-138743813D01*
X108692169Y-138758999D01*
X108737683Y-138800898D01*
X108826778Y-138937268D01*
X108846955Y-138959186D01*
X108975727Y-139099069D01*
X108975731Y-139099073D01*
X108979260Y-139102906D01*
X109014440Y-139130288D01*
X109053177Y-139180831D01*
X109062250Y-139243864D01*
X109039340Y-139303284D01*
X108990299Y-139343911D01*
X108986722Y-139345578D01*
X108979762Y-139347885D01*
X108973523Y-139351733D01*
X108973517Y-139351736D01*
X108835095Y-139437116D01*
X108835090Y-139437119D01*
X108828848Y-139440970D01*
X108823658Y-139446159D01*
X108823654Y-139446163D01*
X108708663Y-139561154D01*
X108708659Y-139561158D01*
X108703470Y-139566348D01*
X108699619Y-139572590D01*
X108699616Y-139572595D01*
X108614234Y-139711020D01*
X108614230Y-139711027D01*
X108610385Y-139717262D01*
X108608079Y-139724219D01*
X108606163Y-139728330D01*
X108567635Y-139775830D01*
X108511279Y-139799591D01*
X108450373Y-139794015D01*
X108399268Y-139760417D01*
X108289272Y-139640930D01*
X108289267Y-139640925D01*
X108285740Y-139637094D01*
X108108076Y-139498811D01*
X108103500Y-139496334D01*
X108103490Y-139496328D01*
X108074294Y-139480529D01*
X108026021Y-139434213D01*
X108008262Y-139369715D01*
X108026022Y-139305217D01*
X108074294Y-139258900D01*
X108103225Y-139243243D01*
X108111910Y-139237569D01*
X108114052Y-139235902D01*
X108122287Y-139224533D01*
X108115519Y-139212229D01*
X107374229Y-138470939D01*
X107362499Y-138464167D01*
X107350771Y-138470938D01*
X106609478Y-139212230D01*
X106602710Y-139224532D01*
X106610946Y-139235901D01*
X106613092Y-139237571D01*
X106621777Y-139243245D01*
X106650706Y-139258901D01*
X106698978Y-139305217D01*
X106716737Y-139369715D01*
X106698978Y-139434212D01*
X106650707Y-139480528D01*
X106645954Y-139483101D01*
X106621500Y-139496334D01*
X106621494Y-139496337D01*
X106616924Y-139498811D01*
X106612813Y-139502010D01*
X106612811Y-139502012D01*
X106443378Y-139633888D01*
X106443372Y-139633893D01*
X106439260Y-139637094D01*
X106435737Y-139640919D01*
X106435727Y-139640930D01*
X106290306Y-139798899D01*
X106290302Y-139798902D01*
X106286778Y-139802732D01*
X106283930Y-139807090D01*
X106283927Y-139807095D01*
X106166492Y-139986843D01*
X106163640Y-139991209D01*
X106161548Y-139995978D01*
X106161546Y-139995982D01*
X106075299Y-140192606D01*
X106075296Y-140192614D01*
X106073204Y-140197384D01*
X106071923Y-140202440D01*
X106071922Y-140202445D01*
X106035320Y-140346985D01*
X106017936Y-140415632D01*
X106017506Y-140420820D01*
X106017505Y-140420827D01*
X106009374Y-140518953D01*
X105999344Y-140640000D01*
X98010500Y-140640000D01*
X98010500Y-138105189D01*
X106000276Y-138105189D01*
X106018000Y-138319092D01*
X106019709Y-138329335D01*
X106072400Y-138537407D01*
X106075770Y-138547223D01*
X106161988Y-138743778D01*
X106166931Y-138752913D01*
X106231733Y-138852099D01*
X106239828Y-138859947D01*
X106249359Y-138853929D01*
X106991559Y-138111730D01*
X106998332Y-138099999D01*
X106991560Y-138088270D01*
X106249360Y-137346070D01*
X106239828Y-137340051D01*
X106231734Y-137347899D01*
X106166931Y-137447086D01*
X106161988Y-137456221D01*
X106075770Y-137652776D01*
X106072400Y-137662592D01*
X106019709Y-137870664D01*
X106018000Y-137880907D01*
X106000276Y-138094811D01*
X106000276Y-138105189D01*
X98010500Y-138105189D01*
X98010500Y-136975465D01*
X106602710Y-136975465D01*
X106609479Y-136987769D01*
X107350770Y-137729060D01*
X107362499Y-137735832D01*
X107374230Y-137729059D01*
X108115522Y-136987766D01*
X108122288Y-136975466D01*
X108114051Y-136964096D01*
X108111911Y-136962431D01*
X108103221Y-136956753D01*
X108073767Y-136940814D01*
X108025495Y-136894498D01*
X108007736Y-136830000D01*
X108025495Y-136765502D01*
X108073767Y-136719186D01*
X108103221Y-136703246D01*
X108111910Y-136697569D01*
X108114052Y-136695902D01*
X108122287Y-136684533D01*
X108115519Y-136672229D01*
X107374229Y-135930939D01*
X107362499Y-135924167D01*
X107350771Y-135930938D01*
X106609478Y-136672230D01*
X106602710Y-136684532D01*
X106610946Y-136695901D01*
X106613092Y-136697571D01*
X106621782Y-136703248D01*
X106651233Y-136719187D01*
X106699504Y-136765503D01*
X106717263Y-136830000D01*
X106699504Y-136894497D01*
X106651233Y-136940813D01*
X106621782Y-136956751D01*
X106613091Y-136962428D01*
X106610945Y-136964098D01*
X106602710Y-136975465D01*
X98010500Y-136975465D01*
X98010500Y-135565189D01*
X106000276Y-135565189D01*
X106018000Y-135779092D01*
X106019709Y-135789335D01*
X106072400Y-135997407D01*
X106075770Y-136007223D01*
X106161988Y-136203778D01*
X106166931Y-136212913D01*
X106231733Y-136312099D01*
X106239828Y-136319947D01*
X106249359Y-136313929D01*
X106991559Y-135571730D01*
X106998332Y-135559999D01*
X106991560Y-135548270D01*
X106249360Y-134806070D01*
X106239828Y-134800051D01*
X106231734Y-134807899D01*
X106166931Y-134907086D01*
X106161988Y-134916221D01*
X106075770Y-135112776D01*
X106072400Y-135122592D01*
X106019709Y-135330664D01*
X106018000Y-135340907D01*
X106000276Y-135554811D01*
X106000276Y-135565189D01*
X98010500Y-135565189D01*
X98010500Y-134435465D01*
X106602710Y-134435465D01*
X106609479Y-134447769D01*
X107350770Y-135189060D01*
X107362499Y-135195832D01*
X107374230Y-135189059D01*
X108115522Y-134447766D01*
X108122288Y-134435466D01*
X108114051Y-134424096D01*
X108111911Y-134422431D01*
X108103221Y-134416753D01*
X108073767Y-134400814D01*
X108025495Y-134354498D01*
X108007736Y-134290000D01*
X108025495Y-134225502D01*
X108073767Y-134179186D01*
X108103221Y-134163246D01*
X108111910Y-134157569D01*
X108114052Y-134155902D01*
X108122287Y-134144533D01*
X108115519Y-134132229D01*
X107374229Y-133390939D01*
X107362499Y-133384167D01*
X107350771Y-133390938D01*
X106609478Y-134132230D01*
X106602710Y-134144532D01*
X106610946Y-134155901D01*
X106613092Y-134157571D01*
X106621782Y-134163248D01*
X106651233Y-134179187D01*
X106699504Y-134225503D01*
X106717263Y-134290000D01*
X106699504Y-134354497D01*
X106651233Y-134400813D01*
X106621782Y-134416751D01*
X106613091Y-134422428D01*
X106610945Y-134424098D01*
X106602710Y-134435465D01*
X98010500Y-134435465D01*
X98010500Y-133025189D01*
X106000276Y-133025189D01*
X106018000Y-133239092D01*
X106019709Y-133249335D01*
X106072400Y-133457407D01*
X106075770Y-133467223D01*
X106161988Y-133663778D01*
X106166931Y-133672913D01*
X106231733Y-133772099D01*
X106239828Y-133779947D01*
X106249359Y-133773929D01*
X106991559Y-133031730D01*
X106998332Y-133019999D01*
X106991560Y-133008270D01*
X106249360Y-132266070D01*
X106239828Y-132260051D01*
X106231734Y-132267899D01*
X106166931Y-132367086D01*
X106161988Y-132376221D01*
X106075770Y-132572776D01*
X106072400Y-132582592D01*
X106019709Y-132790664D01*
X106018000Y-132800907D01*
X106000276Y-133014811D01*
X106000276Y-133025189D01*
X98010500Y-133025189D01*
X98010500Y-131895465D01*
X106602710Y-131895465D01*
X106609479Y-131907769D01*
X107350770Y-132649060D01*
X107362499Y-132655832D01*
X107374230Y-132649059D01*
X108115522Y-131907766D01*
X108122288Y-131895466D01*
X108114051Y-131884096D01*
X108111911Y-131882431D01*
X108103221Y-131876753D01*
X108073767Y-131860814D01*
X108025495Y-131814498D01*
X108007736Y-131750000D01*
X108025495Y-131685502D01*
X108073767Y-131639186D01*
X108103221Y-131623246D01*
X108111910Y-131617569D01*
X108114052Y-131615902D01*
X108122287Y-131604533D01*
X108115519Y-131592229D01*
X107374229Y-130850939D01*
X107362499Y-130844167D01*
X107350771Y-130850938D01*
X106609478Y-131592230D01*
X106602710Y-131604532D01*
X106610946Y-131615901D01*
X106613092Y-131617571D01*
X106621782Y-131623248D01*
X106651233Y-131639187D01*
X106699504Y-131685503D01*
X106717263Y-131750000D01*
X106699504Y-131814497D01*
X106651233Y-131860813D01*
X106621782Y-131876751D01*
X106613091Y-131882428D01*
X106610945Y-131884098D01*
X106602710Y-131895465D01*
X98010500Y-131895465D01*
X98010500Y-130485189D01*
X106000276Y-130485189D01*
X106018000Y-130699092D01*
X106019709Y-130709335D01*
X106072400Y-130917407D01*
X106075770Y-130927223D01*
X106161988Y-131123778D01*
X106166931Y-131132913D01*
X106231733Y-131232099D01*
X106239828Y-131239947D01*
X106249359Y-131233929D01*
X106991559Y-130491730D01*
X106998332Y-130479999D01*
X106991560Y-130468270D01*
X106249360Y-129726070D01*
X106239828Y-129720051D01*
X106231734Y-129727899D01*
X106166931Y-129827086D01*
X106161988Y-129836221D01*
X106075770Y-130032776D01*
X106072400Y-130042592D01*
X106019709Y-130250664D01*
X106018000Y-130260907D01*
X106000276Y-130474811D01*
X106000276Y-130485189D01*
X98010500Y-130485189D01*
X98010500Y-129355465D01*
X106602710Y-129355465D01*
X106609479Y-129367769D01*
X107350770Y-130109060D01*
X107362499Y-130115832D01*
X107374230Y-130109059D01*
X108115522Y-129367766D01*
X108122288Y-129355466D01*
X108114051Y-129344096D01*
X108111911Y-129342431D01*
X108103221Y-129336753D01*
X108073767Y-129320814D01*
X108025495Y-129274498D01*
X108007736Y-129210000D01*
X108025495Y-129145502D01*
X108073767Y-129099186D01*
X108103221Y-129083246D01*
X108111910Y-129077569D01*
X108114052Y-129075902D01*
X108122287Y-129064533D01*
X108115519Y-129052229D01*
X107374229Y-128310939D01*
X107362499Y-128304167D01*
X107350771Y-128310938D01*
X106609478Y-129052230D01*
X106602710Y-129064532D01*
X106610946Y-129075901D01*
X106613092Y-129077571D01*
X106621782Y-129083248D01*
X106651233Y-129099187D01*
X106699504Y-129145503D01*
X106717263Y-129210000D01*
X106699504Y-129274497D01*
X106651233Y-129320813D01*
X106621782Y-129336751D01*
X106613091Y-129342428D01*
X106610945Y-129344098D01*
X106602710Y-129355465D01*
X98010500Y-129355465D01*
X98010500Y-127945189D01*
X106000276Y-127945189D01*
X106018000Y-128159092D01*
X106019709Y-128169335D01*
X106072400Y-128377407D01*
X106075770Y-128387223D01*
X106161988Y-128583778D01*
X106166931Y-128592913D01*
X106231733Y-128692099D01*
X106239828Y-128699947D01*
X106249359Y-128693929D01*
X106991559Y-127951730D01*
X106998332Y-127939999D01*
X106991560Y-127928270D01*
X106249360Y-127186070D01*
X106239828Y-127180051D01*
X106231734Y-127187899D01*
X106166931Y-127287086D01*
X106161988Y-127296221D01*
X106075770Y-127492776D01*
X106072400Y-127502592D01*
X106019709Y-127710664D01*
X106018000Y-127720907D01*
X106000276Y-127934811D01*
X106000276Y-127945189D01*
X98010500Y-127945189D01*
X98010500Y-126815465D01*
X106602710Y-126815465D01*
X106609479Y-126827769D01*
X107350770Y-127569060D01*
X107362499Y-127575832D01*
X107374230Y-127569059D01*
X108115522Y-126827766D01*
X108122288Y-126815466D01*
X108114051Y-126804096D01*
X108111911Y-126802431D01*
X108103221Y-126796753D01*
X108073767Y-126780814D01*
X108025495Y-126734498D01*
X108007736Y-126670000D01*
X108025495Y-126605502D01*
X108073767Y-126559186D01*
X108103221Y-126543246D01*
X108111910Y-126537569D01*
X108114052Y-126535902D01*
X108122287Y-126524533D01*
X108115519Y-126512229D01*
X107374229Y-125770939D01*
X107362499Y-125764167D01*
X107350771Y-125770938D01*
X106609478Y-126512230D01*
X106602710Y-126524532D01*
X106610946Y-126535901D01*
X106613092Y-126537571D01*
X106621782Y-126543248D01*
X106651233Y-126559187D01*
X106699504Y-126605503D01*
X106717263Y-126670000D01*
X106699504Y-126734497D01*
X106651233Y-126780813D01*
X106621782Y-126796751D01*
X106613091Y-126802428D01*
X106610945Y-126804098D01*
X106602710Y-126815465D01*
X98010500Y-126815465D01*
X98010500Y-125405189D01*
X106000276Y-125405189D01*
X106018000Y-125619092D01*
X106019709Y-125629335D01*
X106072400Y-125837407D01*
X106075770Y-125847223D01*
X106161988Y-126043778D01*
X106166931Y-126052913D01*
X106231733Y-126152099D01*
X106239828Y-126159947D01*
X106249359Y-126153929D01*
X106991559Y-125411730D01*
X106998332Y-125399999D01*
X106991560Y-125388270D01*
X106249360Y-124646070D01*
X106239828Y-124640051D01*
X106231734Y-124647899D01*
X106166931Y-124747086D01*
X106161988Y-124756221D01*
X106075770Y-124952776D01*
X106072400Y-124962592D01*
X106019709Y-125170664D01*
X106018000Y-125180907D01*
X106000276Y-125394811D01*
X106000276Y-125405189D01*
X98010500Y-125405189D01*
X98010500Y-124275465D01*
X106602710Y-124275465D01*
X106609479Y-124287769D01*
X107350770Y-125029060D01*
X107362499Y-125035832D01*
X107374230Y-125029059D01*
X108115522Y-124287766D01*
X108122288Y-124275466D01*
X108114051Y-124264096D01*
X108111911Y-124262431D01*
X108103221Y-124256753D01*
X108073767Y-124240814D01*
X108025495Y-124194498D01*
X108007736Y-124130000D01*
X108025495Y-124065502D01*
X108073767Y-124019186D01*
X108103221Y-124003246D01*
X108111910Y-123997569D01*
X108114052Y-123995902D01*
X108122287Y-123984533D01*
X108115519Y-123972229D01*
X107374229Y-123230939D01*
X107362499Y-123224167D01*
X107350771Y-123230938D01*
X106609478Y-123972230D01*
X106602710Y-123984532D01*
X106610946Y-123995901D01*
X106613092Y-123997571D01*
X106621782Y-124003248D01*
X106651233Y-124019187D01*
X106699504Y-124065503D01*
X106717263Y-124130000D01*
X106699504Y-124194497D01*
X106651233Y-124240813D01*
X106621782Y-124256751D01*
X106613091Y-124262428D01*
X106610945Y-124264098D01*
X106602710Y-124275465D01*
X98010500Y-124275465D01*
X98010500Y-122865189D01*
X106000276Y-122865189D01*
X106018000Y-123079092D01*
X106019709Y-123089335D01*
X106072400Y-123297407D01*
X106075770Y-123307223D01*
X106161988Y-123503778D01*
X106166931Y-123512913D01*
X106231733Y-123612099D01*
X106239828Y-123619947D01*
X106249359Y-123613929D01*
X106991559Y-122871730D01*
X106998332Y-122859999D01*
X106991560Y-122848270D01*
X106249360Y-122106070D01*
X106239828Y-122100051D01*
X106231734Y-122107899D01*
X106166931Y-122207086D01*
X106161988Y-122216221D01*
X106075770Y-122412776D01*
X106072400Y-122422592D01*
X106019709Y-122630664D01*
X106018000Y-122640907D01*
X106000276Y-122854811D01*
X106000276Y-122865189D01*
X98010500Y-122865189D01*
X98010500Y-121735465D01*
X106602710Y-121735465D01*
X106609479Y-121747769D01*
X107350770Y-122489060D01*
X107362499Y-122495832D01*
X107374230Y-122489059D01*
X108115522Y-121747766D01*
X108122288Y-121735466D01*
X108114051Y-121724096D01*
X108111911Y-121722431D01*
X108103221Y-121716753D01*
X108073767Y-121700814D01*
X108025495Y-121654498D01*
X108007736Y-121590000D01*
X108025495Y-121525502D01*
X108073767Y-121479186D01*
X108103221Y-121463246D01*
X108111910Y-121457569D01*
X108114052Y-121455902D01*
X108122287Y-121444533D01*
X108115519Y-121432229D01*
X107374229Y-120690939D01*
X107362499Y-120684167D01*
X107350771Y-120690938D01*
X106609478Y-121432230D01*
X106602710Y-121444532D01*
X106610946Y-121455901D01*
X106613092Y-121457571D01*
X106621782Y-121463248D01*
X106651233Y-121479187D01*
X106699504Y-121525503D01*
X106717263Y-121590000D01*
X106699504Y-121654497D01*
X106651233Y-121700813D01*
X106621782Y-121716751D01*
X106613091Y-121722428D01*
X106610945Y-121724098D01*
X106602710Y-121735465D01*
X98010500Y-121735465D01*
X98010500Y-120325189D01*
X106000276Y-120325189D01*
X106018000Y-120539092D01*
X106019709Y-120549335D01*
X106072400Y-120757407D01*
X106075770Y-120767223D01*
X106161988Y-120963778D01*
X106166931Y-120972913D01*
X106231733Y-121072099D01*
X106239828Y-121079947D01*
X106249359Y-121073929D01*
X106991559Y-120331730D01*
X106998332Y-120319999D01*
X106991560Y-120308270D01*
X106249360Y-119566070D01*
X106239828Y-119560051D01*
X106231734Y-119567899D01*
X106166931Y-119667086D01*
X106161988Y-119676221D01*
X106075770Y-119872776D01*
X106072400Y-119882592D01*
X106019709Y-120090664D01*
X106018000Y-120100907D01*
X106000276Y-120314811D01*
X106000276Y-120325189D01*
X98010500Y-120325189D01*
X98010500Y-119195465D01*
X106602710Y-119195465D01*
X106609479Y-119207769D01*
X107350770Y-119949060D01*
X107362499Y-119955832D01*
X107374230Y-119949059D01*
X108115522Y-119207766D01*
X108122288Y-119195466D01*
X108114051Y-119184096D01*
X108111911Y-119182431D01*
X108103221Y-119176753D01*
X108073767Y-119160814D01*
X108025495Y-119114498D01*
X108007736Y-119050000D01*
X108025495Y-118985502D01*
X108073767Y-118939186D01*
X108103221Y-118923246D01*
X108111910Y-118917569D01*
X108114052Y-118915902D01*
X108122287Y-118904533D01*
X108115519Y-118892229D01*
X107374229Y-118150939D01*
X107362499Y-118144167D01*
X107350771Y-118150938D01*
X106609478Y-118892230D01*
X106602710Y-118904532D01*
X106610946Y-118915901D01*
X106613092Y-118917571D01*
X106621782Y-118923248D01*
X106651233Y-118939187D01*
X106699504Y-118985503D01*
X106717263Y-119050000D01*
X106699504Y-119114497D01*
X106651233Y-119160813D01*
X106621782Y-119176751D01*
X106613091Y-119182428D01*
X106610945Y-119184098D01*
X106602710Y-119195465D01*
X98010500Y-119195465D01*
X98010500Y-117785189D01*
X106000276Y-117785189D01*
X106018000Y-117999092D01*
X106019709Y-118009335D01*
X106072400Y-118217407D01*
X106075770Y-118227223D01*
X106161988Y-118423778D01*
X106166931Y-118432913D01*
X106231733Y-118532099D01*
X106239828Y-118539947D01*
X106249359Y-118533929D01*
X106991559Y-117791730D01*
X106998332Y-117779999D01*
X106991560Y-117768270D01*
X106249360Y-117026070D01*
X106239828Y-117020051D01*
X106231734Y-117027899D01*
X106166931Y-117127086D01*
X106161988Y-117136221D01*
X106075770Y-117332776D01*
X106072400Y-117342592D01*
X106019709Y-117550664D01*
X106018000Y-117560907D01*
X106000276Y-117774811D01*
X106000276Y-117785189D01*
X98010500Y-117785189D01*
X98010500Y-116655465D01*
X106602710Y-116655465D01*
X106609479Y-116667769D01*
X107350770Y-117409060D01*
X107362499Y-117415832D01*
X107374230Y-117409059D01*
X108115522Y-116667766D01*
X108122288Y-116655466D01*
X108114051Y-116644096D01*
X108111911Y-116642431D01*
X108103220Y-116636753D01*
X107914457Y-116534599D01*
X107904940Y-116530424D01*
X107701942Y-116460735D01*
X107691872Y-116458185D01*
X107480164Y-116422857D01*
X107469816Y-116422000D01*
X107255184Y-116422000D01*
X107244835Y-116422857D01*
X107033127Y-116458185D01*
X107023057Y-116460735D01*
X106820059Y-116530424D01*
X106810542Y-116534599D01*
X106621777Y-116636754D01*
X106613091Y-116642428D01*
X106610945Y-116644098D01*
X106602710Y-116655465D01*
X98010500Y-116655465D01*
X98010500Y-109002921D01*
X98010567Y-109000000D01*
X98286411Y-109000000D01*
X98286584Y-109003301D01*
X98306581Y-109384886D01*
X98306582Y-109384897D01*
X98306754Y-109388176D01*
X98307267Y-109391417D01*
X98307268Y-109391423D01*
X98367045Y-109768838D01*
X98367046Y-109768847D01*
X98367562Y-109772099D01*
X98468167Y-110147562D01*
X98469352Y-110150649D01*
X98469353Y-110150652D01*
X98606283Y-110507368D01*
X98606288Y-110507380D01*
X98607468Y-110510453D01*
X98783938Y-110856795D01*
X98995643Y-111182793D01*
X99240266Y-111484876D01*
X99515124Y-111759734D01*
X99817207Y-112004357D01*
X100143205Y-112216062D01*
X100489547Y-112392532D01*
X100852438Y-112531833D01*
X101227901Y-112632438D01*
X101611824Y-112693246D01*
X102000000Y-112713589D01*
X102388176Y-112693246D01*
X102772099Y-112632438D01*
X103147562Y-112531833D01*
X103510453Y-112392532D01*
X103856795Y-112216062D01*
X104182793Y-112004357D01*
X104484876Y-111759734D01*
X104759734Y-111484876D01*
X105004357Y-111182793D01*
X105216062Y-110856795D01*
X105392532Y-110510453D01*
X105531833Y-110147562D01*
X105632438Y-109772099D01*
X105693246Y-109388176D01*
X105713589Y-109000000D01*
X139286411Y-109000000D01*
X139286584Y-109003301D01*
X139306581Y-109384886D01*
X139306582Y-109384897D01*
X139306754Y-109388176D01*
X139307267Y-109391417D01*
X139307268Y-109391423D01*
X139367045Y-109768838D01*
X139367046Y-109768847D01*
X139367562Y-109772099D01*
X139468167Y-110147562D01*
X139469352Y-110150649D01*
X139469353Y-110150652D01*
X139606283Y-110507368D01*
X139606288Y-110507380D01*
X139607468Y-110510453D01*
X139783938Y-110856795D01*
X139995643Y-111182793D01*
X140240266Y-111484876D01*
X140515124Y-111759734D01*
X140817207Y-112004357D01*
X141143205Y-112216062D01*
X141489547Y-112392532D01*
X141852438Y-112531833D01*
X142227901Y-112632438D01*
X142611824Y-112693246D01*
X143000000Y-112713589D01*
X143388176Y-112693246D01*
X143772099Y-112632438D01*
X144147562Y-112531833D01*
X144510453Y-112392532D01*
X144856795Y-112216062D01*
X145182793Y-112004357D01*
X145484876Y-111759734D01*
X145759734Y-111484876D01*
X146004357Y-111182793D01*
X146216062Y-110856795D01*
X146392532Y-110510453D01*
X146531833Y-110147562D01*
X146632438Y-109772099D01*
X146693246Y-109388176D01*
X146713589Y-109000000D01*
X146693246Y-108611824D01*
X146632438Y-108227901D01*
X146531833Y-107852438D01*
X146392532Y-107489547D01*
X146216062Y-107143206D01*
X146004357Y-106817207D01*
X145759734Y-106515124D01*
X145484876Y-106240266D01*
X145182793Y-105995643D01*
X145180033Y-105993850D01*
X145180028Y-105993847D01*
X144859564Y-105785736D01*
X144859561Y-105785734D01*
X144856795Y-105783938D01*
X144838518Y-105774625D01*
X144513392Y-105608965D01*
X144513384Y-105608961D01*
X144510453Y-105607468D01*
X144507380Y-105606288D01*
X144507368Y-105606283D01*
X144150652Y-105469353D01*
X144150649Y-105469352D01*
X144147562Y-105468167D01*
X144144376Y-105467313D01*
X144144369Y-105467311D01*
X143775288Y-105368416D01*
X143775279Y-105368414D01*
X143772099Y-105367562D01*
X143768847Y-105367046D01*
X143768838Y-105367045D01*
X143391423Y-105307268D01*
X143391417Y-105307267D01*
X143388176Y-105306754D01*
X143384897Y-105306582D01*
X143384886Y-105306581D01*
X143003301Y-105286584D01*
X143000000Y-105286411D01*
X142996699Y-105286584D01*
X142615113Y-105306581D01*
X142615100Y-105306582D01*
X142611824Y-105306754D01*
X142608584Y-105307267D01*
X142608576Y-105307268D01*
X142231161Y-105367045D01*
X142231148Y-105367047D01*
X142227901Y-105367562D01*
X142224724Y-105368413D01*
X142224711Y-105368416D01*
X141855630Y-105467311D01*
X141855617Y-105467315D01*
X141852438Y-105468167D01*
X141849355Y-105469350D01*
X141849347Y-105469353D01*
X141492631Y-105606283D01*
X141492612Y-105606291D01*
X141489547Y-105607468D01*
X141486622Y-105608958D01*
X141486607Y-105608965D01*
X141146147Y-105782439D01*
X141146139Y-105782443D01*
X141143206Y-105783938D01*
X141140447Y-105785729D01*
X141140436Y-105785736D01*
X140819971Y-105993847D01*
X140819957Y-105993856D01*
X140817207Y-105995643D01*
X140814653Y-105997711D01*
X140814645Y-105997717D01*
X140517686Y-106238191D01*
X140515124Y-106240266D01*
X140512797Y-106242592D01*
X140512787Y-106242602D01*
X140242602Y-106512787D01*
X140242592Y-106512797D01*
X140240266Y-106515124D01*
X140238194Y-106517682D01*
X140238191Y-106517686D01*
X139997717Y-106814645D01*
X139997711Y-106814653D01*
X139995643Y-106817207D01*
X139993856Y-106819957D01*
X139993847Y-106819971D01*
X139785736Y-107140436D01*
X139785729Y-107140447D01*
X139783938Y-107143206D01*
X139782443Y-107146139D01*
X139782439Y-107146147D01*
X139608965Y-107486607D01*
X139608958Y-107486622D01*
X139607468Y-107489547D01*
X139606291Y-107492612D01*
X139606283Y-107492631D01*
X139469353Y-107849347D01*
X139469350Y-107849355D01*
X139468167Y-107852438D01*
X139467315Y-107855617D01*
X139467311Y-107855630D01*
X139368416Y-108224711D01*
X139368413Y-108224724D01*
X139367562Y-108227901D01*
X139367047Y-108231148D01*
X139367045Y-108231161D01*
X139307268Y-108608576D01*
X139306754Y-108611824D01*
X139306582Y-108615100D01*
X139306581Y-108615113D01*
X139305702Y-108631895D01*
X139286411Y-109000000D01*
X105713589Y-109000000D01*
X105693246Y-108611824D01*
X105632438Y-108227901D01*
X105531833Y-107852438D01*
X105392532Y-107489547D01*
X105216062Y-107143206D01*
X105004357Y-106817207D01*
X104759734Y-106515124D01*
X104484876Y-106240266D01*
X104182793Y-105995643D01*
X104180033Y-105993850D01*
X104180028Y-105993847D01*
X103859564Y-105785736D01*
X103859561Y-105785734D01*
X103856795Y-105783938D01*
X103838518Y-105774625D01*
X103513392Y-105608965D01*
X103513384Y-105608961D01*
X103510453Y-105607468D01*
X103507380Y-105606288D01*
X103507368Y-105606283D01*
X103150652Y-105469353D01*
X103150649Y-105469352D01*
X103147562Y-105468167D01*
X103144376Y-105467313D01*
X103144369Y-105467311D01*
X102775288Y-105368416D01*
X102775279Y-105368414D01*
X102772099Y-105367562D01*
X102768847Y-105367046D01*
X102768838Y-105367045D01*
X102391423Y-105307268D01*
X102391417Y-105307267D01*
X102388176Y-105306754D01*
X102384897Y-105306582D01*
X102384886Y-105306581D01*
X102003301Y-105286584D01*
X102000000Y-105286411D01*
X101996699Y-105286584D01*
X101615113Y-105306581D01*
X101615100Y-105306582D01*
X101611824Y-105306754D01*
X101608584Y-105307267D01*
X101608576Y-105307268D01*
X101231161Y-105367045D01*
X101231148Y-105367047D01*
X101227901Y-105367562D01*
X101224724Y-105368413D01*
X101224711Y-105368416D01*
X100855630Y-105467311D01*
X100855617Y-105467315D01*
X100852438Y-105468167D01*
X100849355Y-105469350D01*
X100849347Y-105469353D01*
X100492631Y-105606283D01*
X100492612Y-105606291D01*
X100489547Y-105607468D01*
X100486622Y-105608958D01*
X100486607Y-105608965D01*
X100146147Y-105782439D01*
X100146139Y-105782443D01*
X100143206Y-105783938D01*
X100140447Y-105785729D01*
X100140436Y-105785736D01*
X99819971Y-105993847D01*
X99819957Y-105993856D01*
X99817207Y-105995643D01*
X99814653Y-105997711D01*
X99814645Y-105997717D01*
X99517686Y-106238191D01*
X99515124Y-106240266D01*
X99512797Y-106242592D01*
X99512787Y-106242602D01*
X99242602Y-106512787D01*
X99242592Y-106512797D01*
X99240266Y-106515124D01*
X99238194Y-106517682D01*
X99238191Y-106517686D01*
X98997717Y-106814645D01*
X98997711Y-106814653D01*
X98995643Y-106817207D01*
X98993856Y-106819957D01*
X98993847Y-106819971D01*
X98785736Y-107140436D01*
X98785729Y-107140447D01*
X98783938Y-107143206D01*
X98782443Y-107146139D01*
X98782439Y-107146147D01*
X98608965Y-107486607D01*
X98608958Y-107486622D01*
X98607468Y-107489547D01*
X98606291Y-107492612D01*
X98606283Y-107492631D01*
X98469353Y-107849347D01*
X98469350Y-107849355D01*
X98468167Y-107852438D01*
X98467315Y-107855617D01*
X98467311Y-107855630D01*
X98368416Y-108224711D01*
X98368413Y-108224724D01*
X98367562Y-108227901D01*
X98367047Y-108231148D01*
X98367045Y-108231161D01*
X98307268Y-108608576D01*
X98306754Y-108611824D01*
X98306582Y-108615100D01*
X98306581Y-108615113D01*
X98305702Y-108631895D01*
X98286411Y-109000000D01*
X98010567Y-109000000D01*
X98010634Y-108997102D01*
X98027250Y-108637713D01*
X98028324Y-108626125D01*
X98053543Y-108445332D01*
X98077627Y-108272678D01*
X98079759Y-108261275D01*
X98161466Y-107913880D01*
X98164644Y-107902709D01*
X98278053Y-107564342D01*
X98282253Y-107553501D01*
X98309130Y-107492631D01*
X98426400Y-107227038D01*
X98431575Y-107216647D01*
X98605227Y-106904882D01*
X98611339Y-106895009D01*
X98813033Y-106600572D01*
X98820014Y-106591327D01*
X99048017Y-106316754D01*
X99055838Y-106308176D01*
X99308176Y-106055838D01*
X99316754Y-106048017D01*
X99591327Y-105820014D01*
X99600572Y-105813033D01*
X99895009Y-105611339D01*
X99904882Y-105605227D01*
X100216647Y-105431575D01*
X100227038Y-105426400D01*
X100553505Y-105282251D01*
X100564342Y-105278053D01*
X100902709Y-105164644D01*
X100913880Y-105161466D01*
X101261275Y-105079759D01*
X101272678Y-105077627D01*
X101579723Y-105034796D01*
X101626125Y-105028324D01*
X101637713Y-105027250D01*
X101997102Y-105010634D01*
X102002921Y-105010500D01*
X102003412Y-105010500D01*
X142996588Y-105010500D01*
X142997079Y-105010500D01*
X143002898Y-105010634D01*
G37*
%TD.AperFunction*%
%TD*%
M02*
