%TF.GenerationSoftware,KiCad,Pcbnew,(7.0.0)*%
%TF.CreationDate,2023-03-27T10:38:50+02:00*%
%TF.ProjectId,JTAG-SWD Adapter,4a544147-2d53-4574-9420-416461707465,rev?*%
%TF.SameCoordinates,Original*%
%TF.FileFunction,Copper,L1,Top*%
%TF.FilePolarity,Positive*%
%FSLAX46Y46*%
G04 Gerber Fmt 4.6, Leading zero omitted, Abs format (unit mm)*
G04 Created by KiCad (PCBNEW (7.0.0)) date 2023-03-27 10:38:50*
%MOMM*%
%LPD*%
G01*
G04 APERTURE LIST*
G04 Aperture macros list*
%AMRoundRect*
0 Rectangle with rounded corners*
0 $1 Rounding radius*
0 $2 $3 $4 $5 $6 $7 $8 $9 X,Y pos of 4 corners*
0 Add a 4 corners polygon primitive as box body*
4,1,4,$2,$3,$4,$5,$6,$7,$8,$9,$2,$3,0*
0 Add four circle primitives for the rounded corners*
1,1,$1+$1,$2,$3*
1,1,$1+$1,$4,$5*
1,1,$1+$1,$6,$7*
1,1,$1+$1,$8,$9*
0 Add four rect primitives between the rounded corners*
20,1,$1+$1,$2,$3,$4,$5,0*
20,1,$1+$1,$4,$5,$6,$7,0*
20,1,$1+$1,$6,$7,$8,$9,0*
20,1,$1+$1,$8,$9,$2,$3,0*%
G04 Aperture macros list end*
%TA.AperFunction,ComponentPad*%
%ADD10C,0.800000*%
%TD*%
%TA.AperFunction,ComponentPad*%
%ADD11C,6.400000*%
%TD*%
%TA.AperFunction,ComponentPad*%
%ADD12R,1.000000X1.000000*%
%TD*%
%TA.AperFunction,ComponentPad*%
%ADD13O,1.000000X1.000000*%
%TD*%
%TA.AperFunction,SMDPad,CuDef*%
%ADD14RoundRect,0.200000X0.275000X-0.200000X0.275000X0.200000X-0.275000X0.200000X-0.275000X-0.200000X0*%
%TD*%
%TA.AperFunction,ComponentPad*%
%ADD15RoundRect,0.250000X0.600000X0.600000X-0.600000X0.600000X-0.600000X-0.600000X0.600000X-0.600000X0*%
%TD*%
%TA.AperFunction,ComponentPad*%
%ADD16C,1.700000*%
%TD*%
%TA.AperFunction,ComponentPad*%
%ADD17RoundRect,0.250000X-0.600000X-0.600000X0.600000X-0.600000X0.600000X0.600000X-0.600000X0.600000X0*%
%TD*%
%TA.AperFunction,ViaPad*%
%ADD18C,0.600000*%
%TD*%
%TA.AperFunction,ViaPad*%
%ADD19C,0.800000*%
%TD*%
%TA.AperFunction,Conductor*%
%ADD20C,0.400000*%
%TD*%
%TA.AperFunction,Conductor*%
%ADD21C,0.250000*%
%TD*%
G04 APERTURE END LIST*
D10*
%TO.P,H4,1*%
%TO.N,N/C*%
X102000000Y-147600000D03*
X103697056Y-151697056D03*
X103697056Y-148302944D03*
X104400000Y-150000000D03*
D11*
X102000000Y-150000000D03*
D10*
X102000000Y-152400000D03*
X100302944Y-148302944D03*
X100302944Y-151697056D03*
X99600000Y-150000000D03*
%TD*%
%TO.P,H3,1*%
%TO.N,N/C*%
X143000000Y-147600000D03*
X144697056Y-151697056D03*
X144697056Y-148302944D03*
X145400000Y-150000000D03*
D11*
X143000000Y-150000000D03*
D10*
X143000000Y-152400000D03*
X141302944Y-148302944D03*
X141302944Y-151697056D03*
X140600000Y-150000000D03*
%TD*%
%TO.P,H2,1*%
%TO.N,N/C*%
X143000000Y-106600000D03*
X144697056Y-110697056D03*
X144697056Y-107302944D03*
X145400000Y-109000000D03*
D11*
X143000000Y-109000000D03*
D10*
X143000000Y-111400000D03*
X141302944Y-107302944D03*
X141302944Y-110697056D03*
X140600000Y-109000000D03*
%TD*%
%TO.P,H1,1*%
%TO.N,N/C*%
X102000000Y-106600000D03*
X103697056Y-110697056D03*
X103697056Y-107302944D03*
X104400000Y-109000000D03*
D11*
X102000000Y-109000000D03*
D10*
X102000000Y-111400000D03*
X100302944Y-107302944D03*
X100302944Y-110697056D03*
X99600000Y-109000000D03*
%TD*%
D12*
%TO.P,J5,1,VTref*%
%TO.N,VREF*%
X141364999Y-121859999D03*
D13*
%TO.P,J5,2,SWDIO/TMS*%
%TO.N,TMS{slash}SWDIO*%
X142634999Y-121859999D03*
%TO.P,J5,3,GND*%
%TO.N,GND*%
X141364999Y-123129999D03*
%TO.P,J5,4,SWDCLK/TCK*%
%TO.N,TCK{slash}SWDCLK*%
X142634999Y-123129999D03*
%TO.P,J5,5,GND*%
%TO.N,GND*%
X141364999Y-124399999D03*
%TO.P,J5,6,SWO/TDO*%
%TO.N,TDO{slash}SWO*%
X142634999Y-124399999D03*
%TO.P,J5,7,KEY*%
%TO.N,unconnected-(J5-KEY-Pad7)*%
X141364999Y-125669999D03*
%TO.P,J5,8,NC/TDI*%
%TO.N,TDI*%
X142634999Y-125669999D03*
%TO.P,J5,9,GNDDetect*%
%TO.N,GND*%
X141364999Y-126939999D03*
%TO.P,J5,10,~{RESET}*%
%TO.N,nRST*%
X142634999Y-126939999D03*
%TD*%
D14*
%TO.P,R1,1*%
%TO.N,TDI*%
X114550000Y-128525000D03*
%TO.P,R1,2*%
%TO.N,TDO{slash}SWO*%
X114550000Y-126875000D03*
%TD*%
D15*
%TO.P,J3,1,VTREF*%
%TO.N,VREF*%
X109902500Y-140640000D03*
D16*
%TO.P,J3,2,VCC/NC*%
%TO.N,VCC*%
X107362500Y-140640000D03*
%TO.P,J3,3,~{TRST}*%
%TO.N,nTRST*%
X109902500Y-138100000D03*
%TO.P,J3,4,GND*%
%TO.N,GND*%
X107362500Y-138100000D03*
%TO.P,J3,5,TDI*%
%TO.N,TDI*%
X109902500Y-135560000D03*
%TO.P,J3,6,GND*%
%TO.N,GND*%
X107362500Y-135560000D03*
%TO.P,J3,7,TMS/SWDIO*%
%TO.N,TMS{slash}SWDIO*%
X109902500Y-133020000D03*
%TO.P,J3,8,GND*%
%TO.N,GND*%
X107362500Y-133020000D03*
%TO.P,J3,9,TCK/SWDCLK*%
%TO.N,TCK{slash}SWDCLK*%
X109902500Y-130480000D03*
%TO.P,J3,10,GND*%
%TO.N,GND*%
X107362500Y-130480000D03*
%TO.P,J3,11,RTCK*%
%TO.N,RTCK*%
X109902500Y-127940000D03*
%TO.P,J3,12,GND*%
%TO.N,GND*%
X107362500Y-127940000D03*
%TO.P,J3,13,TDO/SWO*%
%TO.N,TDO{slash}SWO*%
X109902500Y-125400000D03*
%TO.P,J3,14,GND*%
%TO.N,GND*%
X107362500Y-125400000D03*
%TO.P,J3,15,~{SRST}*%
%TO.N,nRST*%
X109902500Y-122860000D03*
%TO.P,J3,16,GND*%
%TO.N,GND*%
X107362500Y-122860000D03*
%TO.P,J3,17,DBGRQ/NC*%
%TO.N,DBGRQ*%
X109902500Y-120320000D03*
%TO.P,J3,18,GND*%
%TO.N,GND*%
X107362500Y-120320000D03*
%TO.P,J3,19,DBGACK/NC*%
%TO.N,DBGACK*%
X109902500Y-117780000D03*
%TO.P,J3,20,GND*%
%TO.N,GND*%
X107362500Y-117780000D03*
%TD*%
D17*
%TO.P,J2,1,VTref*%
%TO.N,VREF*%
X129097500Y-115320000D03*
D16*
%TO.P,J2,2,SWDIO/TMS*%
%TO.N,TMS{slash}SWDIO*%
X131637500Y-115320000D03*
%TO.P,J2,3,GND*%
%TO.N,GND*%
X129097500Y-117860000D03*
%TO.P,J2,4,SWDCLK/TCK*%
%TO.N,TCK{slash}SWDCLK*%
X131637500Y-117860000D03*
%TO.P,J2,5,GND*%
%TO.N,GND*%
X129097500Y-120400000D03*
%TO.P,J2,6,SWO/TDO*%
%TO.N,TDO{slash}SWO*%
X131637500Y-120400000D03*
%TO.P,J2,7,KEY*%
%TO.N,unconnected-(J2-KEY-Pad7)*%
X129097500Y-122940000D03*
%TO.P,J2,8,NC/TDI*%
%TO.N,TDI*%
X131637500Y-122940000D03*
%TO.P,J2,9,GNDDetect*%
%TO.N,GND*%
X129097500Y-125480000D03*
%TO.P,J2,10,~{RESET}*%
%TO.N,nRST*%
X131637500Y-125480000D03*
%TD*%
D17*
%TO.P,J1,1,Pin_1*%
%TO.N,VREF*%
X129050000Y-137800000D03*
D16*
%TO.P,J1,2,Pin_2*%
%TO.N,TMS{slash}SWDIO*%
X131590000Y-137800000D03*
%TO.P,J1,3,Pin_3*%
%TO.N,nRST*%
X129050000Y-140340000D03*
%TO.P,J1,4,Pin_4*%
%TO.N,TCK{slash}SWDCLK*%
X131590000Y-140340000D03*
%TO.P,J1,5,Pin_5*%
%TO.N,GND*%
X129050000Y-142880000D03*
%TO.P,J1,6,Pin_6*%
%TO.N,TDO{slash}SWO*%
X131590000Y-142880000D03*
%TD*%
D12*
%TO.P,J4,1,Pin_1*%
%TO.N,VREF*%
X141364999Y-136129999D03*
D13*
%TO.P,J4,2,Pin_2*%
%TO.N,TMS{slash}SWDIO*%
X142634999Y-136129999D03*
%TO.P,J4,3,Pin_3*%
%TO.N,nRST*%
X141364999Y-137399999D03*
%TO.P,J4,4,Pin_4*%
%TO.N,TCK{slash}SWDCLK*%
X142634999Y-137399999D03*
%TO.P,J4,5,Pin_5*%
%TO.N,GND*%
X141364999Y-138669999D03*
%TO.P,J4,6,Pin_6*%
%TO.N,TDO{slash}SWO*%
X142634999Y-138669999D03*
%TD*%
D18*
%TO.N,VREF*%
X122750000Y-140700000D03*
X115450000Y-133700000D03*
X117750000Y-124900000D03*
X132900000Y-116650000D03*
%TO.N,TMS{slash}SWDIO*%
X125250000Y-120100000D03*
X125250000Y-126800000D03*
%TO.N,nRST*%
X124250000Y-134400000D03*
X117750000Y-126000000D03*
X124250000Y-126000000D03*
X124250000Y-132000000D03*
%TO.N,TCK{slash}SWDCLK*%
X118874500Y-130480000D03*
D19*
X137400000Y-117900000D03*
X143359500Y-140250000D03*
D18*
X120350000Y-134000000D03*
D19*
%TO.N,GND*%
X126959000Y-142212000D03*
X134198000Y-141831000D03*
D18*
%TO.N,TDO{slash}SWO*%
X127650000Y-119100000D03*
X118215334Y-134300000D03*
X118250000Y-129800000D03*
%TO.N,TDI*%
X117550000Y-129000000D03*
D19*
X137750000Y-129000000D03*
D18*
X120050000Y-129000000D03*
%TD*%
D20*
%TO.N,VREF*%
X115410000Y-140640000D02*
X122690000Y-140640000D01*
X129097500Y-115320000D02*
X127330000Y-115320000D01*
X127330000Y-115320000D02*
X117750000Y-124900000D01*
X137915000Y-121860000D02*
X141365000Y-121860000D01*
X115450000Y-140600000D02*
X115410000Y-140640000D01*
X115450000Y-133700000D02*
X115450000Y-140600000D01*
X132900000Y-116845000D02*
X137915000Y-121860000D01*
X122690000Y-140640000D02*
X122750000Y-140700000D01*
X109902500Y-140640000D02*
X115410000Y-140640000D01*
X132900000Y-116650000D02*
X132900000Y-116845000D01*
D21*
%TO.N,TMS{slash}SWDIO*%
X142000000Y-120500000D02*
X138250000Y-120500000D01*
X131590000Y-137800000D02*
X134490000Y-134900000D01*
X142635000Y-121135000D02*
X142000000Y-120500000D01*
X126790000Y-133000000D02*
X131590000Y-137800000D01*
X138250000Y-120500000D02*
X133070000Y-115320000D01*
X133070000Y-115320000D02*
X131637500Y-115320000D01*
X130462980Y-116494520D02*
X131637500Y-115320000D01*
X125250000Y-120100000D02*
X125250000Y-120046490D01*
X142635000Y-135422894D02*
X142635000Y-136130000D01*
X125250000Y-133000000D02*
X125250000Y-126800000D01*
X109902500Y-133020000D02*
X125230000Y-133020000D01*
X134490000Y-134900000D02*
X142112106Y-134900000D01*
X142112106Y-134900000D02*
X142635000Y-135422894D01*
X125250000Y-133000000D02*
X126790000Y-133000000D01*
X125230000Y-133020000D02*
X125250000Y-133000000D01*
X142635000Y-121860000D02*
X142635000Y-121135000D01*
X125250000Y-120046490D02*
X128801970Y-116494520D01*
X128801970Y-116494520D02*
X130462980Y-116494520D01*
%TO.N,nRST*%
X131637500Y-125612500D02*
X131637500Y-125480000D01*
X127650000Y-127000000D02*
X130250000Y-127000000D01*
X140000000Y-128250000D02*
X137230000Y-125480000D01*
X124250000Y-135540000D02*
X129050000Y-140340000D01*
X130353000Y-139037000D02*
X134763000Y-139037000D01*
X124250000Y-134400000D02*
X124250000Y-135540000D01*
X124250000Y-132000000D02*
X124250000Y-126000000D01*
X114610000Y-122860000D02*
X117750000Y-126000000D01*
X126650000Y-126000000D02*
X127650000Y-127000000D01*
X109902500Y-122860000D02*
X114610000Y-122860000D01*
X136400000Y-137400000D02*
X141365000Y-137400000D01*
X142635000Y-126940000D02*
X141325000Y-128250000D01*
X130250000Y-127000000D02*
X131637500Y-125612500D01*
X141325000Y-128250000D02*
X140000000Y-128250000D01*
X124250000Y-126000000D02*
X126650000Y-126000000D01*
X137230000Y-125480000D02*
X131637500Y-125480000D01*
X134763000Y-139037000D02*
X136400000Y-137400000D01*
X129050000Y-140340000D02*
X130353000Y-139037000D01*
%TO.N,TCK{slash}SWDCLK*%
X143750000Y-122015000D02*
X142635000Y-123130000D01*
X128736490Y-119100000D02*
X130397500Y-119100000D01*
X119425489Y-129824511D02*
X119425489Y-128411001D01*
X141650000Y-117900000D02*
X143750000Y-120000000D01*
X130330000Y-141600000D02*
X127950000Y-141600000D01*
X143750000Y-138000000D02*
X143150000Y-137400000D01*
X113630000Y-130480000D02*
X109902500Y-130480000D01*
X131590000Y-140340000D02*
X130330000Y-141600000D01*
X113630000Y-130480000D02*
X117356490Y-130480000D01*
X143750000Y-120000000D02*
X143750000Y-122015000D01*
X119425489Y-128411001D02*
X128736490Y-119100000D01*
X143750000Y-139859500D02*
X143750000Y-138000000D01*
X127950000Y-141600000D02*
X120350000Y-134000000D01*
X137400000Y-117900000D02*
X141650000Y-117900000D01*
X118770000Y-130480000D02*
X119425489Y-129824511D01*
X117356490Y-130480000D02*
X118770000Y-130480000D01*
X130397500Y-119100000D02*
X131637500Y-117860000D01*
X143359500Y-140250000D02*
X143750000Y-139859500D01*
X143150000Y-137400000D02*
X142635000Y-137400000D01*
%TO.N,TDO{slash}SWO*%
X131590000Y-142880000D02*
X138870000Y-142880000D01*
X119875000Y-126875000D02*
X118125000Y-126875000D01*
X118174511Y-129724511D02*
X118250000Y-129800000D01*
X127650000Y-144700000D02*
X129770000Y-144700000D01*
X118215334Y-134300000D02*
X118215334Y-135265334D01*
X118125000Y-126875000D02*
X118174511Y-126924511D01*
X118215334Y-135265334D02*
X127650000Y-144700000D01*
X129770000Y-144700000D02*
X131590000Y-142880000D01*
X118125000Y-126875000D02*
X114550000Y-126875000D01*
X127650000Y-119100000D02*
X119875000Y-126875000D01*
X114550000Y-126875000D02*
X113075000Y-125400000D01*
X118174511Y-126924511D02*
X118174511Y-129724511D01*
X138870000Y-142880000D02*
X142635000Y-139115000D01*
X142635000Y-139115000D02*
X142635000Y-138670000D01*
X113075000Y-125400000D02*
X109902500Y-125400000D01*
%TO.N,TDI*%
X115025000Y-129000000D02*
X117550000Y-129000000D01*
X108650000Y-134307500D02*
X108650000Y-129800000D01*
X109902500Y-135560000D02*
X108650000Y-134307500D01*
X109250000Y-129200000D02*
X113875000Y-129200000D01*
X143750000Y-127500000D02*
X143750000Y-126500000D01*
X108650000Y-129800000D02*
X109250000Y-129200000D01*
X143750000Y-126500000D02*
X142920000Y-125670000D01*
X142250000Y-129000000D02*
X143750000Y-127500000D01*
X120050000Y-129000000D02*
X124850000Y-124200000D01*
X137750000Y-129000000D02*
X142250000Y-129000000D01*
X124850000Y-124200000D02*
X130377500Y-124200000D01*
X113875000Y-129200000D02*
X114550000Y-128525000D01*
X130377500Y-124200000D02*
X131637500Y-122940000D01*
X114550000Y-128525000D02*
X115025000Y-129000000D01*
X142920000Y-125670000D02*
X142635000Y-125670000D01*
%TD*%
%TA.AperFunction,Conductor*%
%TO.N,GND*%
G36*
X119492031Y-133665978D02*
G01*
X119535873Y-133700942D01*
X119560203Y-133751466D01*
X119560201Y-133807542D01*
X119559121Y-133812269D01*
X119556783Y-133818953D01*
X119555991Y-133825981D01*
X119555990Y-133825986D01*
X119547796Y-133898714D01*
X119536384Y-134000000D01*
X119556783Y-134181047D01*
X119559118Y-134187720D01*
X119559119Y-134187724D01*
X119614619Y-134346335D01*
X119614621Y-134346339D01*
X119616957Y-134353015D01*
X119620719Y-134359003D01*
X119620721Y-134359006D01*
X119708661Y-134498962D01*
X119713889Y-134507281D01*
X119842719Y-134636111D01*
X119996985Y-134733043D01*
X120168953Y-134793217D01*
X120213453Y-134798230D01*
X120254012Y-134809915D01*
X120288438Y-134834342D01*
X123867440Y-138413345D01*
X127446347Y-141992252D01*
X127453886Y-142000535D01*
X127458000Y-142007018D01*
X127463782Y-142012447D01*
X127463784Y-142012450D01*
X127507649Y-142053642D01*
X127510492Y-142056397D01*
X127530230Y-142076135D01*
X127533360Y-142078563D01*
X127533432Y-142078619D01*
X127542440Y-142086313D01*
X127574679Y-142116586D01*
X127581627Y-142120405D01*
X127581629Y-142120407D01*
X127592426Y-142126343D01*
X127608950Y-142137197D01*
X127618694Y-142144755D01*
X127618697Y-142144757D01*
X127624959Y-142149614D01*
X127632232Y-142152761D01*
X127665535Y-142167172D01*
X127676200Y-142172397D01*
X127707985Y-142189872D01*
X127707989Y-142189873D01*
X127714940Y-142193695D01*
X127722627Y-142195668D01*
X127724374Y-142196360D01*
X127777680Y-142236450D01*
X127803053Y-142298133D01*
X127793383Y-142364127D01*
X127763268Y-142432782D01*
X127759900Y-142442592D01*
X127707209Y-142650664D01*
X127705500Y-142660907D01*
X127687776Y-142874811D01*
X127687776Y-142885189D01*
X127705500Y-143099092D01*
X127707209Y-143109335D01*
X127759900Y-143317407D01*
X127763270Y-143327223D01*
X127849488Y-143523778D01*
X127854431Y-143532913D01*
X127919233Y-143632099D01*
X127927328Y-143639947D01*
X127936860Y-143633928D01*
X128960904Y-142609884D01*
X129017388Y-142577272D01*
X129082610Y-142577272D01*
X129139094Y-142609884D01*
X129320114Y-142790904D01*
X129352726Y-142847388D01*
X129352726Y-142912610D01*
X129320114Y-142969094D01*
X128296978Y-143992230D01*
X128292026Y-144001233D01*
X128245753Y-144048963D01*
X128181629Y-144066500D01*
X127964594Y-144066500D01*
X127916376Y-144056909D01*
X127875499Y-144029595D01*
X118885739Y-135039834D01*
X118858425Y-134998957D01*
X118848834Y-134950739D01*
X118848834Y-134847736D01*
X118868147Y-134780700D01*
X118890826Y-134744607D01*
X118948377Y-134653015D01*
X119008551Y-134481047D01*
X119028950Y-134300000D01*
X119008551Y-134118953D01*
X118948377Y-133946985D01*
X118943007Y-133938439D01*
X118885261Y-133846536D01*
X118865998Y-133783034D01*
X118881670Y-133718551D01*
X118927931Y-133670975D01*
X118991948Y-133653500D01*
X119437361Y-133653500D01*
X119492031Y-133665978D01*
G37*
%TD.AperFunction*%
%TA.AperFunction,Conductor*%
G36*
X140414145Y-138049869D02*
G01*
X140460114Y-138094723D01*
X140478002Y-138156408D01*
X140463162Y-138218896D01*
X140432141Y-138276931D01*
X140427426Y-138288313D01*
X140392977Y-138401877D01*
X140392272Y-138413345D01*
X140403448Y-138416000D01*
X141493000Y-138416000D01*
X141556000Y-138432881D01*
X141602119Y-138479000D01*
X141619000Y-138542000D01*
X141619000Y-138798000D01*
X141602119Y-138861000D01*
X141556000Y-138907119D01*
X141493000Y-138924000D01*
X140403448Y-138924000D01*
X140392272Y-138926654D01*
X140392977Y-138938122D01*
X140427426Y-139051686D01*
X140432141Y-139063069D01*
X140519904Y-139227261D01*
X140526755Y-139237514D01*
X140644861Y-139381427D01*
X140653572Y-139390138D01*
X140797485Y-139508244D01*
X140807738Y-139515095D01*
X140971930Y-139602858D01*
X140983303Y-139607569D01*
X140984091Y-139607808D01*
X140984523Y-139608074D01*
X140989030Y-139609941D01*
X140988729Y-139610666D01*
X141038772Y-139641500D01*
X141069742Y-139697766D01*
X141068955Y-139761989D01*
X141036614Y-139817479D01*
X138644500Y-142209595D01*
X138603623Y-142236909D01*
X138555405Y-142246500D01*
X132867038Y-142246500D01*
X132807069Y-142231314D01*
X132761555Y-142189416D01*
X132748564Y-142169532D01*
X132665722Y-142042732D01*
X132591679Y-141962301D01*
X132516772Y-141880930D01*
X132516767Y-141880925D01*
X132513240Y-141877094D01*
X132335576Y-141738811D01*
X132331002Y-141736336D01*
X132330995Y-141736331D01*
X132302320Y-141720814D01*
X132254048Y-141674498D01*
X132236289Y-141610000D01*
X132254048Y-141545502D01*
X132302320Y-141499186D01*
X132317669Y-141490880D01*
X132335576Y-141481189D01*
X132513240Y-141342906D01*
X132665722Y-141177268D01*
X132788860Y-140988791D01*
X132879296Y-140782616D01*
X132934564Y-140564368D01*
X132953156Y-140340000D01*
X132934564Y-140115632D01*
X132879296Y-139897384D01*
X132874319Y-139886038D01*
X132857246Y-139847114D01*
X132847063Y-139786095D01*
X132867150Y-139727585D01*
X132912664Y-139685686D01*
X132972633Y-139670500D01*
X134684233Y-139670500D01*
X134695416Y-139671027D01*
X134702909Y-139672702D01*
X134770985Y-139670562D01*
X134774945Y-139670500D01*
X134798894Y-139670500D01*
X134802856Y-139670500D01*
X134806856Y-139669994D01*
X134818699Y-139669061D01*
X134862889Y-139667673D01*
X134882333Y-139662023D01*
X134901702Y-139658012D01*
X134921797Y-139655474D01*
X134962915Y-139639193D01*
X134974117Y-139635357D01*
X135016593Y-139623018D01*
X135034039Y-139612699D01*
X135051769Y-139604013D01*
X135070617Y-139596552D01*
X135106387Y-139570561D01*
X135116298Y-139564051D01*
X135154362Y-139541542D01*
X135168688Y-139527215D01*
X135183717Y-139514378D01*
X135200107Y-139502472D01*
X135228294Y-139468397D01*
X135236262Y-139459640D01*
X136625501Y-138070402D01*
X136666376Y-138043091D01*
X136714594Y-138033500D01*
X140352040Y-138033500D01*
X140414145Y-138049869D01*
G37*
%TD.AperFunction*%
%TA.AperFunction,Conductor*%
G36*
X133170253Y-118117223D02*
G01*
X137396171Y-122343141D01*
X137401388Y-122348682D01*
X137441727Y-122394215D01*
X137447999Y-122398544D01*
X137448000Y-122398545D01*
X137491768Y-122428756D01*
X137497899Y-122433267D01*
X137528657Y-122457365D01*
X137545774Y-122470775D01*
X137555072Y-122474959D01*
X137574926Y-122486157D01*
X137583325Y-122491954D01*
X137640203Y-122513524D01*
X137647177Y-122516413D01*
X137702671Y-122541389D01*
X137712705Y-122543227D01*
X137734662Y-122549348D01*
X137744199Y-122552965D01*
X137804604Y-122560299D01*
X137812052Y-122561433D01*
X137871907Y-122572402D01*
X137932609Y-122568730D01*
X137940218Y-122568500D01*
X140313336Y-122568500D01*
X140372732Y-122583378D01*
X140418101Y-122624498D01*
X140438729Y-122682150D01*
X140429745Y-122742718D01*
X140427425Y-122748317D01*
X140392977Y-122861877D01*
X140392272Y-122873345D01*
X140403448Y-122876000D01*
X141493000Y-122876000D01*
X141556000Y-122892881D01*
X141602119Y-122939000D01*
X141619000Y-123002000D01*
X141619000Y-124528000D01*
X141602119Y-124591000D01*
X141556000Y-124637119D01*
X141493000Y-124654000D01*
X140403448Y-124654000D01*
X140392272Y-124656654D01*
X140392977Y-124668122D01*
X140427426Y-124781686D01*
X140432141Y-124793069D01*
X140519907Y-124957266D01*
X140524769Y-124964543D01*
X140543584Y-125009963D01*
X140543584Y-125059125D01*
X140525135Y-125103669D01*
X140522405Y-125106996D01*
X140519488Y-125112453D01*
X140519485Y-125112458D01*
X140441154Y-125259006D01*
X140428759Y-125282196D01*
X140426963Y-125288116D01*
X140426962Y-125288119D01*
X140372888Y-125466376D01*
X140372886Y-125466382D01*
X140371092Y-125472299D01*
X140370486Y-125478450D01*
X140370484Y-125478461D01*
X140357751Y-125607747D01*
X140351620Y-125670000D01*
X140352227Y-125676163D01*
X140370484Y-125861538D01*
X140370485Y-125861547D01*
X140371092Y-125867701D01*
X140372887Y-125873619D01*
X140372888Y-125873623D01*
X140405309Y-125980500D01*
X140428759Y-126057804D01*
X140431678Y-126063265D01*
X140519486Y-126227544D01*
X140519488Y-126227548D01*
X140522405Y-126233004D01*
X140525134Y-126236329D01*
X140543583Y-126280871D01*
X140543584Y-126330029D01*
X140524775Y-126375446D01*
X140519908Y-126382730D01*
X140432141Y-126546930D01*
X140427426Y-126558313D01*
X140392977Y-126671877D01*
X140392272Y-126683345D01*
X140403448Y-126686000D01*
X141493000Y-126686000D01*
X141556000Y-126702881D01*
X141602119Y-126749000D01*
X141619000Y-126812000D01*
X141619000Y-127007905D01*
X141609409Y-127056123D01*
X141582095Y-127097000D01*
X141522000Y-127157095D01*
X141481123Y-127184409D01*
X141432905Y-127194000D01*
X140403448Y-127194000D01*
X140392272Y-127196654D01*
X140392977Y-127208122D01*
X140427426Y-127321686D01*
X140432141Y-127333069D01*
X140484542Y-127431104D01*
X140499382Y-127493592D01*
X140481494Y-127555277D01*
X140435525Y-127600131D01*
X140373420Y-127616500D01*
X140314594Y-127616500D01*
X140266376Y-127606909D01*
X140225499Y-127579595D01*
X138987107Y-126341203D01*
X137733646Y-125087741D01*
X137726112Y-125079463D01*
X137722000Y-125072982D01*
X137672348Y-125026356D01*
X137669506Y-125023601D01*
X137652574Y-125006669D01*
X137652573Y-125006668D01*
X137649770Y-125003865D01*
X137646575Y-125001386D01*
X137637554Y-124993682D01*
X137611097Y-124968838D01*
X137605321Y-124963414D01*
X137598377Y-124959596D01*
X137598371Y-124959592D01*
X137587566Y-124953652D01*
X137571047Y-124942801D01*
X137555041Y-124930386D01*
X137547766Y-124927238D01*
X137547763Y-124927236D01*
X137514466Y-124912828D01*
X137503804Y-124907605D01*
X137472007Y-124890124D01*
X137472005Y-124890123D01*
X137465060Y-124886305D01*
X137457383Y-124884334D01*
X137457381Y-124884333D01*
X137445438Y-124881267D01*
X137426734Y-124874863D01*
X137415420Y-124869967D01*
X137415418Y-124869966D01*
X137408145Y-124866819D01*
X137400319Y-124865579D01*
X137400318Y-124865579D01*
X137364475Y-124859902D01*
X137352859Y-124857496D01*
X137310030Y-124846500D01*
X137302101Y-124846500D01*
X137289776Y-124846500D01*
X137270065Y-124844949D01*
X137257885Y-124843019D01*
X137257878Y-124843018D01*
X137250057Y-124841780D01*
X137242173Y-124842525D01*
X137242165Y-124842525D01*
X137206039Y-124845941D01*
X137194181Y-124846500D01*
X132914538Y-124846500D01*
X132854569Y-124831314D01*
X132809055Y-124789416D01*
X132808002Y-124787804D01*
X132713222Y-124642732D01*
X132607603Y-124528000D01*
X132564272Y-124480930D01*
X132564267Y-124480925D01*
X132560740Y-124477094D01*
X132383076Y-124338811D01*
X132378502Y-124336336D01*
X132378495Y-124336331D01*
X132349820Y-124320814D01*
X132301548Y-124274498D01*
X132283789Y-124210000D01*
X132301548Y-124145502D01*
X132303796Y-124143345D01*
X140392272Y-124143345D01*
X140403448Y-124146000D01*
X141094410Y-124146000D01*
X141107493Y-124142493D01*
X141111000Y-124129410D01*
X141111000Y-123400590D01*
X141107493Y-123387506D01*
X141094410Y-123384000D01*
X140403448Y-123384000D01*
X140392272Y-123386654D01*
X140392977Y-123398122D01*
X140427426Y-123511686D01*
X140432141Y-123523069D01*
X140519905Y-123687263D01*
X140525071Y-123694994D01*
X140543886Y-123740413D01*
X140543888Y-123789576D01*
X140525076Y-123834996D01*
X140519908Y-123842730D01*
X140432141Y-124006930D01*
X140427426Y-124018313D01*
X140392977Y-124131877D01*
X140392272Y-124143345D01*
X132303796Y-124143345D01*
X132349820Y-124099186D01*
X132378495Y-124083668D01*
X132378494Y-124083668D01*
X132383076Y-124081189D01*
X132560740Y-123942906D01*
X132713222Y-123777268D01*
X132836360Y-123588791D01*
X132926796Y-123382616D01*
X132982064Y-123164368D01*
X133000656Y-122940000D01*
X132982064Y-122715632D01*
X132926796Y-122497384D01*
X132836360Y-122291209D01*
X132713222Y-122102732D01*
X132636048Y-122018899D01*
X132564272Y-121940930D01*
X132564267Y-121940925D01*
X132560740Y-121937094D01*
X132383076Y-121798811D01*
X132378497Y-121796333D01*
X132378494Y-121796331D01*
X132349818Y-121780812D01*
X132301547Y-121734494D01*
X132283789Y-121669996D01*
X132301550Y-121605499D01*
X132349821Y-121559185D01*
X132383076Y-121541189D01*
X132560740Y-121402906D01*
X132713222Y-121237268D01*
X132836360Y-121048791D01*
X132926796Y-120842616D01*
X132982064Y-120624368D01*
X133000656Y-120400000D01*
X132982064Y-120175632D01*
X132926796Y-119957384D01*
X132836360Y-119751209D01*
X132713222Y-119562732D01*
X132618761Y-119460121D01*
X132564272Y-119400930D01*
X132564267Y-119400925D01*
X132560740Y-119397094D01*
X132383076Y-119258811D01*
X132378502Y-119256336D01*
X132378495Y-119256331D01*
X132349820Y-119240814D01*
X132301548Y-119194498D01*
X132283789Y-119130000D01*
X132301548Y-119065502D01*
X132349820Y-119019186D01*
X132378495Y-119003668D01*
X132378494Y-119003668D01*
X132383076Y-119001189D01*
X132560740Y-118862906D01*
X132713222Y-118697268D01*
X132836360Y-118508791D01*
X132926796Y-118302616D01*
X132959015Y-118175382D01*
X132991146Y-118118148D01*
X133047709Y-118084839D01*
X133113350Y-118084500D01*
X133170253Y-118117223D01*
G37*
%TD.AperFunction*%
%TA.AperFunction,Conductor*%
G36*
X129186594Y-120129884D02*
G01*
X130210638Y-121153928D01*
X130220170Y-121159947D01*
X130228265Y-121152099D01*
X130261717Y-121100898D01*
X130307231Y-121058999D01*
X130367200Y-121043813D01*
X130427169Y-121058999D01*
X130472683Y-121100898D01*
X130561778Y-121237268D01*
X130565306Y-121241100D01*
X130710727Y-121399069D01*
X130710731Y-121399073D01*
X130714260Y-121402906D01*
X130891924Y-121541189D01*
X130896502Y-121543666D01*
X130896509Y-121543671D01*
X130925180Y-121559187D01*
X130973451Y-121605503D01*
X130991210Y-121670000D01*
X130973451Y-121734497D01*
X130925180Y-121780813D01*
X130896509Y-121796328D01*
X130896493Y-121796338D01*
X130891924Y-121798811D01*
X130887813Y-121802010D01*
X130887811Y-121802012D01*
X130718378Y-121933888D01*
X130718372Y-121933893D01*
X130714260Y-121937094D01*
X130710737Y-121940919D01*
X130710727Y-121940930D01*
X130565306Y-122098899D01*
X130565302Y-122098902D01*
X130561778Y-122102732D01*
X130558930Y-122107090D01*
X130558927Y-122107095D01*
X130472983Y-122238643D01*
X130427469Y-122280542D01*
X130367500Y-122295728D01*
X130307531Y-122280542D01*
X130262017Y-122238643D01*
X130247345Y-122216186D01*
X130173222Y-122102732D01*
X130096048Y-122018899D01*
X130024272Y-121940930D01*
X130024267Y-121940925D01*
X130020740Y-121937094D01*
X129843076Y-121798811D01*
X129838500Y-121796334D01*
X129838490Y-121796328D01*
X129809294Y-121780529D01*
X129761021Y-121734213D01*
X129743262Y-121669715D01*
X129761022Y-121605217D01*
X129809294Y-121558900D01*
X129838225Y-121543243D01*
X129846910Y-121537569D01*
X129849052Y-121535902D01*
X129857287Y-121524533D01*
X129850519Y-121512229D01*
X129109229Y-120770939D01*
X129097499Y-120764167D01*
X129085771Y-120770938D01*
X128344478Y-121512230D01*
X128337710Y-121524532D01*
X128345946Y-121535901D01*
X128348092Y-121537571D01*
X128356777Y-121543245D01*
X128385706Y-121558901D01*
X128433978Y-121605217D01*
X128451737Y-121669715D01*
X128433978Y-121734212D01*
X128385707Y-121780528D01*
X128374201Y-121786755D01*
X128356500Y-121796334D01*
X128356494Y-121796337D01*
X128351924Y-121798811D01*
X128347813Y-121802010D01*
X128347811Y-121802012D01*
X128178378Y-121933888D01*
X128178372Y-121933893D01*
X128174260Y-121937094D01*
X128170737Y-121940919D01*
X128170727Y-121940930D01*
X128025306Y-122098899D01*
X128025302Y-122098902D01*
X128021778Y-122102732D01*
X128018930Y-122107090D01*
X128018927Y-122107095D01*
X127912415Y-122270124D01*
X127898640Y-122291209D01*
X127896548Y-122295978D01*
X127896546Y-122295982D01*
X127810299Y-122492606D01*
X127810296Y-122492614D01*
X127808204Y-122497384D01*
X127806923Y-122502440D01*
X127806922Y-122502445D01*
X127789207Y-122572402D01*
X127752936Y-122715632D01*
X127752506Y-122720820D01*
X127752505Y-122720827D01*
X127740808Y-122861989D01*
X127734344Y-122940000D01*
X127734774Y-122945189D01*
X127750598Y-123136163D01*
X127752936Y-123164368D01*
X127808204Y-123382616D01*
X127810297Y-123387389D01*
X127810299Y-123387393D01*
X127811395Y-123389891D01*
X127811620Y-123391240D01*
X127811991Y-123392321D01*
X127811810Y-123392382D01*
X127821574Y-123450909D01*
X127801487Y-123509418D01*
X127755973Y-123551314D01*
X127696005Y-123566500D01*
X125470085Y-123566500D01*
X125412882Y-123552767D01*
X125368149Y-123514561D01*
X125345636Y-123460211D01*
X125350252Y-123401564D01*
X125380990Y-123351405D01*
X125921506Y-122810889D01*
X127704339Y-121028055D01*
X127753745Y-120997566D01*
X127811584Y-120992469D01*
X127865567Y-121013848D01*
X127897478Y-121049599D01*
X127899082Y-121048552D01*
X127966733Y-121152099D01*
X127974828Y-121159947D01*
X127984360Y-121153928D01*
X129008404Y-120129884D01*
X129064888Y-120097272D01*
X129130110Y-120097272D01*
X129186594Y-120129884D01*
G37*
%TD.AperFunction*%
%TA.AperFunction,Conductor*%
G36*
X143002898Y-105010634D02*
G01*
X143362286Y-105027250D01*
X143373874Y-105028324D01*
X143472400Y-105042067D01*
X143727317Y-105077626D01*
X143738728Y-105079760D01*
X144086113Y-105161464D01*
X144097296Y-105164646D01*
X144435650Y-105278050D01*
X144446498Y-105282253D01*
X144772952Y-105426396D01*
X144783361Y-105431580D01*
X144892904Y-105492595D01*
X145095106Y-105605221D01*
X145105000Y-105611346D01*
X145399416Y-105813025D01*
X145408682Y-105820022D01*
X145622671Y-105997717D01*
X145683234Y-106048008D01*
X145691834Y-106055849D01*
X145944150Y-106308165D01*
X145951991Y-106316765D01*
X146179974Y-106591314D01*
X146186976Y-106600586D01*
X146276379Y-106731099D01*
X146388652Y-106894998D01*
X146394778Y-106904893D01*
X146568417Y-107216634D01*
X146573605Y-107227052D01*
X146717746Y-107553501D01*
X146721950Y-107564353D01*
X146835350Y-107902694D01*
X146838535Y-107913888D01*
X146920236Y-108261255D01*
X146922375Y-108272696D01*
X146971675Y-108626125D01*
X146972749Y-108637712D01*
X146989366Y-108997101D01*
X146989500Y-109002921D01*
X146989500Y-149997079D01*
X146989366Y-150002899D01*
X146972749Y-150362287D01*
X146971675Y-150373874D01*
X146922375Y-150727303D01*
X146920236Y-150738744D01*
X146838535Y-151086111D01*
X146835350Y-151097305D01*
X146721950Y-151435646D01*
X146717746Y-151446498D01*
X146573605Y-151772947D01*
X146568417Y-151783365D01*
X146394778Y-152095106D01*
X146388652Y-152105001D01*
X146186982Y-152399405D01*
X146179968Y-152408693D01*
X145951991Y-152683234D01*
X145944150Y-152691834D01*
X145691834Y-152944150D01*
X145683234Y-152951991D01*
X145408693Y-153179968D01*
X145399405Y-153186982D01*
X145105001Y-153388652D01*
X145095106Y-153394778D01*
X144783365Y-153568417D01*
X144772947Y-153573605D01*
X144446498Y-153717746D01*
X144435646Y-153721950D01*
X144097305Y-153835350D01*
X144086111Y-153838535D01*
X143738744Y-153920236D01*
X143727303Y-153922375D01*
X143373874Y-153971675D01*
X143362287Y-153972749D01*
X143014366Y-153988835D01*
X143002897Y-153989366D01*
X142997079Y-153989500D01*
X102002921Y-153989500D01*
X101997102Y-153989366D01*
X101985090Y-153988810D01*
X101637712Y-153972749D01*
X101626125Y-153971675D01*
X101272696Y-153922375D01*
X101261255Y-153920236D01*
X100913888Y-153838535D01*
X100902694Y-153835350D01*
X100564353Y-153721950D01*
X100553501Y-153717746D01*
X100227052Y-153573605D01*
X100216634Y-153568417D01*
X99904893Y-153394778D01*
X99894998Y-153388652D01*
X99640420Y-153214263D01*
X99600586Y-153186976D01*
X99591314Y-153179974D01*
X99316765Y-152951991D01*
X99308165Y-152944150D01*
X99055849Y-152691834D01*
X99048008Y-152683234D01*
X98881165Y-152482313D01*
X98820022Y-152408682D01*
X98813025Y-152399416D01*
X98611346Y-152105000D01*
X98605221Y-152095106D01*
X98474025Y-151859564D01*
X98431580Y-151783361D01*
X98426394Y-151772947D01*
X98282253Y-151446498D01*
X98278049Y-151435646D01*
X98182529Y-151150652D01*
X98164646Y-151097296D01*
X98161464Y-151086111D01*
X98079760Y-150738728D01*
X98077626Y-150727317D01*
X98028324Y-150373874D01*
X98027250Y-150362286D01*
X98010634Y-150002898D01*
X98010567Y-150000000D01*
X98286411Y-150000000D01*
X98286584Y-150003301D01*
X98306581Y-150384886D01*
X98306582Y-150384897D01*
X98306754Y-150388176D01*
X98307267Y-150391417D01*
X98307268Y-150391423D01*
X98367045Y-150768838D01*
X98367046Y-150768847D01*
X98367562Y-150772099D01*
X98368414Y-150775279D01*
X98368416Y-150775288D01*
X98467311Y-151144369D01*
X98468167Y-151147562D01*
X98469352Y-151150649D01*
X98469353Y-151150652D01*
X98606283Y-151507368D01*
X98606288Y-151507380D01*
X98607468Y-151510453D01*
X98608961Y-151513384D01*
X98608965Y-151513392D01*
X98774625Y-151838518D01*
X98783938Y-151856795D01*
X98785734Y-151859561D01*
X98785736Y-151859564D01*
X98938698Y-152095106D01*
X98995643Y-152182793D01*
X99240266Y-152484876D01*
X99515124Y-152759734D01*
X99817207Y-153004357D01*
X100143205Y-153216062D01*
X100489547Y-153392532D01*
X100852438Y-153531833D01*
X101227901Y-153632438D01*
X101611824Y-153693246D01*
X102000000Y-153713589D01*
X102388176Y-153693246D01*
X102772099Y-153632438D01*
X103147562Y-153531833D01*
X103510453Y-153392532D01*
X103856795Y-153216062D01*
X104182793Y-153004357D01*
X104484876Y-152759734D01*
X104759734Y-152484876D01*
X105004357Y-152182793D01*
X105216062Y-151856795D01*
X105392532Y-151510453D01*
X105531833Y-151147562D01*
X105632438Y-150772099D01*
X105693246Y-150388176D01*
X105713589Y-150000000D01*
X139286411Y-150000000D01*
X139286584Y-150003301D01*
X139306581Y-150384886D01*
X139306582Y-150384897D01*
X139306754Y-150388176D01*
X139307267Y-150391417D01*
X139307268Y-150391423D01*
X139367045Y-150768838D01*
X139367046Y-150768847D01*
X139367562Y-150772099D01*
X139368414Y-150775279D01*
X139368416Y-150775288D01*
X139467311Y-151144369D01*
X139468167Y-151147562D01*
X139469352Y-151150649D01*
X139469353Y-151150652D01*
X139606283Y-151507368D01*
X139606288Y-151507380D01*
X139607468Y-151510453D01*
X139608961Y-151513384D01*
X139608965Y-151513392D01*
X139774625Y-151838518D01*
X139783938Y-151856795D01*
X139785734Y-151859561D01*
X139785736Y-151859564D01*
X139938698Y-152095106D01*
X139995643Y-152182793D01*
X140240266Y-152484876D01*
X140515124Y-152759734D01*
X140817207Y-153004357D01*
X141143205Y-153216062D01*
X141489547Y-153392532D01*
X141852438Y-153531833D01*
X142227901Y-153632438D01*
X142611824Y-153693246D01*
X143000000Y-153713589D01*
X143388176Y-153693246D01*
X143772099Y-153632438D01*
X144147562Y-153531833D01*
X144510453Y-153392532D01*
X144856795Y-153216062D01*
X145182793Y-153004357D01*
X145484876Y-152759734D01*
X145759734Y-152484876D01*
X146004357Y-152182793D01*
X146216062Y-151856795D01*
X146392532Y-151510453D01*
X146531833Y-151147562D01*
X146632438Y-150772099D01*
X146693246Y-150388176D01*
X146713589Y-150000000D01*
X146693246Y-149611824D01*
X146632438Y-149227901D01*
X146531833Y-148852438D01*
X146392532Y-148489547D01*
X146216062Y-148143206D01*
X146004357Y-147817207D01*
X145759734Y-147515124D01*
X145484876Y-147240266D01*
X145182793Y-146995643D01*
X145180033Y-146993850D01*
X145180028Y-146993847D01*
X144859564Y-146785736D01*
X144859561Y-146785734D01*
X144856795Y-146783938D01*
X144838518Y-146774625D01*
X144513392Y-146608965D01*
X144513384Y-146608961D01*
X144510453Y-146607468D01*
X144507380Y-146606288D01*
X144507368Y-146606283D01*
X144150652Y-146469353D01*
X144150649Y-146469352D01*
X144147562Y-146468167D01*
X144144376Y-146467313D01*
X144144369Y-146467311D01*
X143775288Y-146368416D01*
X143775279Y-146368414D01*
X143772099Y-146367562D01*
X143768847Y-146367046D01*
X143768838Y-146367045D01*
X143391423Y-146307268D01*
X143391417Y-146307267D01*
X143388176Y-146306754D01*
X143384897Y-146306582D01*
X143384886Y-146306581D01*
X143003301Y-146286584D01*
X143000000Y-146286411D01*
X142996699Y-146286584D01*
X142615113Y-146306581D01*
X142615100Y-146306582D01*
X142611824Y-146306754D01*
X142608584Y-146307267D01*
X142608576Y-146307268D01*
X142231161Y-146367045D01*
X142231148Y-146367047D01*
X142227901Y-146367562D01*
X142224724Y-146368413D01*
X142224711Y-146368416D01*
X141855630Y-146467311D01*
X141855617Y-146467315D01*
X141852438Y-146468167D01*
X141849355Y-146469350D01*
X141849347Y-146469353D01*
X141492631Y-146606283D01*
X141492612Y-146606291D01*
X141489547Y-146607468D01*
X141486622Y-146608958D01*
X141486607Y-146608965D01*
X141146147Y-146782439D01*
X141146139Y-146782443D01*
X141143206Y-146783938D01*
X141140447Y-146785729D01*
X141140436Y-146785736D01*
X140819971Y-146993847D01*
X140819957Y-146993856D01*
X140817207Y-146995643D01*
X140814653Y-146997711D01*
X140814645Y-146997717D01*
X140517686Y-147238191D01*
X140515124Y-147240266D01*
X140512797Y-147242592D01*
X140512787Y-147242602D01*
X140242602Y-147512787D01*
X140242592Y-147512797D01*
X140240266Y-147515124D01*
X140238194Y-147517682D01*
X140238191Y-147517686D01*
X139997717Y-147814645D01*
X139997711Y-147814653D01*
X139995643Y-147817207D01*
X139993856Y-147819957D01*
X139993847Y-147819971D01*
X139785736Y-148140436D01*
X139785729Y-148140447D01*
X139783938Y-148143206D01*
X139782443Y-148146139D01*
X139782439Y-148146147D01*
X139608965Y-148486607D01*
X139608958Y-148486622D01*
X139607468Y-148489547D01*
X139606291Y-148492612D01*
X139606283Y-148492631D01*
X139469353Y-148849347D01*
X139469350Y-148849355D01*
X139468167Y-148852438D01*
X139467315Y-148855617D01*
X139467311Y-148855630D01*
X139368416Y-149224711D01*
X139368413Y-149224724D01*
X139367562Y-149227901D01*
X139367047Y-149231148D01*
X139367045Y-149231161D01*
X139307268Y-149608576D01*
X139306754Y-149611824D01*
X139306582Y-149615100D01*
X139306581Y-149615113D01*
X139286761Y-149993313D01*
X139286411Y-150000000D01*
X105713589Y-150000000D01*
X105693246Y-149611824D01*
X105632438Y-149227901D01*
X105531833Y-148852438D01*
X105392532Y-148489547D01*
X105216062Y-148143206D01*
X105004357Y-147817207D01*
X104759734Y-147515124D01*
X104484876Y-147240266D01*
X104182793Y-146995643D01*
X104180033Y-146993850D01*
X104180028Y-146993847D01*
X103859564Y-146785736D01*
X103859561Y-146785734D01*
X103856795Y-146783938D01*
X103838518Y-146774625D01*
X103513392Y-146608965D01*
X103513384Y-146608961D01*
X103510453Y-146607468D01*
X103507380Y-146606288D01*
X103507368Y-146606283D01*
X103150652Y-146469353D01*
X103150649Y-146469352D01*
X103147562Y-146468167D01*
X103144376Y-146467313D01*
X103144369Y-146467311D01*
X102775288Y-146368416D01*
X102775279Y-146368414D01*
X102772099Y-146367562D01*
X102768847Y-146367046D01*
X102768838Y-146367045D01*
X102391423Y-146307268D01*
X102391417Y-146307267D01*
X102388176Y-146306754D01*
X102384897Y-146306582D01*
X102384886Y-146306581D01*
X102003301Y-146286584D01*
X102000000Y-146286411D01*
X101996699Y-146286584D01*
X101615113Y-146306581D01*
X101615100Y-146306582D01*
X101611824Y-146306754D01*
X101608584Y-146307267D01*
X101608576Y-146307268D01*
X101231161Y-146367045D01*
X101231148Y-146367047D01*
X101227901Y-146367562D01*
X101224724Y-146368413D01*
X101224711Y-146368416D01*
X100855630Y-146467311D01*
X100855617Y-146467315D01*
X100852438Y-146468167D01*
X100849355Y-146469350D01*
X100849347Y-146469353D01*
X100492631Y-146606283D01*
X100492612Y-146606291D01*
X100489547Y-146607468D01*
X100486622Y-146608958D01*
X100486607Y-146608965D01*
X100146147Y-146782439D01*
X100146139Y-146782443D01*
X100143206Y-146783938D01*
X100140447Y-146785729D01*
X100140436Y-146785736D01*
X99819971Y-146993847D01*
X99819957Y-146993856D01*
X99817207Y-146995643D01*
X99814653Y-146997711D01*
X99814645Y-146997717D01*
X99517686Y-147238191D01*
X99515124Y-147240266D01*
X99512797Y-147242592D01*
X99512787Y-147242602D01*
X99242602Y-147512787D01*
X99242592Y-147512797D01*
X99240266Y-147515124D01*
X99238194Y-147517682D01*
X99238191Y-147517686D01*
X98997717Y-147814645D01*
X98997711Y-147814653D01*
X98995643Y-147817207D01*
X98993856Y-147819957D01*
X98993847Y-147819971D01*
X98785736Y-148140436D01*
X98785729Y-148140447D01*
X98783938Y-148143206D01*
X98782443Y-148146139D01*
X98782439Y-148146147D01*
X98608965Y-148486607D01*
X98608958Y-148486622D01*
X98607468Y-148489547D01*
X98606291Y-148492612D01*
X98606283Y-148492631D01*
X98469353Y-148849347D01*
X98469350Y-148849355D01*
X98468167Y-148852438D01*
X98467315Y-148855617D01*
X98467311Y-148855630D01*
X98368416Y-149224711D01*
X98368413Y-149224724D01*
X98367562Y-149227901D01*
X98367047Y-149231148D01*
X98367045Y-149231161D01*
X98307268Y-149608576D01*
X98306754Y-149611824D01*
X98306582Y-149615100D01*
X98306581Y-149615113D01*
X98286761Y-149993313D01*
X98286411Y-150000000D01*
X98010567Y-150000000D01*
X98010500Y-149997079D01*
X98010500Y-140640000D01*
X105999344Y-140640000D01*
X105999774Y-140645189D01*
X106011557Y-140787393D01*
X106017936Y-140864368D01*
X106073204Y-141082616D01*
X106075297Y-141087389D01*
X106075299Y-141087393D01*
X106114722Y-141177268D01*
X106163640Y-141288791D01*
X106286778Y-141477268D01*
X106306955Y-141499186D01*
X106435727Y-141639069D01*
X106435731Y-141639073D01*
X106439260Y-141642906D01*
X106616924Y-141781189D01*
X106814926Y-141888342D01*
X106819855Y-141890034D01*
X106819857Y-141890035D01*
X106921395Y-141924892D01*
X107027865Y-141961444D01*
X107249931Y-141998500D01*
X107469858Y-141998500D01*
X107475069Y-141998500D01*
X107697135Y-141961444D01*
X107910074Y-141888342D01*
X108108076Y-141781189D01*
X108285740Y-141642906D01*
X108399270Y-141519580D01*
X108450374Y-141485984D01*
X108511280Y-141480409D01*
X108567636Y-141504170D01*
X108606164Y-141551670D01*
X108608076Y-141555772D01*
X108610385Y-141562738D01*
X108614235Y-141568980D01*
X108614237Y-141568984D01*
X108659833Y-141642906D01*
X108703470Y-141713652D01*
X108828848Y-141839030D01*
X108835096Y-141842883D01*
X108835095Y-141842883D01*
X108973518Y-141928264D01*
X108973520Y-141928265D01*
X108979762Y-141932115D01*
X109148074Y-141987887D01*
X109251955Y-141998500D01*
X110553044Y-141998499D01*
X110656926Y-141987887D01*
X110825238Y-141932115D01*
X110976152Y-141839030D01*
X111101530Y-141713652D01*
X111194615Y-141562738D01*
X111236986Y-141434867D01*
X111263282Y-141389827D01*
X111305565Y-141359294D01*
X111356591Y-141348500D01*
X115367141Y-141348500D01*
X115384782Y-141348500D01*
X115392390Y-141348730D01*
X115453093Y-141352402D01*
X115460591Y-141351028D01*
X115463124Y-141350564D01*
X115485835Y-141348500D01*
X122226136Y-141348500D01*
X122293172Y-141367813D01*
X122390993Y-141429278D01*
X122396985Y-141433043D01*
X122568953Y-141493217D01*
X122750000Y-141513616D01*
X122931047Y-141493217D01*
X123103015Y-141433043D01*
X123253839Y-141338273D01*
X123306761Y-141319755D01*
X123362484Y-141326034D01*
X123409964Y-141355868D01*
X127146342Y-145092246D01*
X127153884Y-145100533D01*
X127158000Y-145107018D01*
X127163779Y-145112444D01*
X127163780Y-145112446D01*
X127207667Y-145153658D01*
X127210508Y-145156412D01*
X127230231Y-145176135D01*
X127233359Y-145178561D01*
X127233360Y-145178562D01*
X127233414Y-145178604D01*
X127242446Y-145186317D01*
X127274679Y-145216586D01*
X127281624Y-145220404D01*
X127292430Y-145226345D01*
X127308956Y-145237201D01*
X127318690Y-145244751D01*
X127318692Y-145244752D01*
X127324960Y-145249614D01*
X127365530Y-145267170D01*
X127376186Y-145272390D01*
X127407993Y-145289876D01*
X127414940Y-145293695D01*
X127434566Y-145298734D01*
X127453259Y-145305134D01*
X127471855Y-145313181D01*
X127479686Y-145314421D01*
X127479689Y-145314422D01*
X127496128Y-145317025D01*
X127515525Y-145320097D01*
X127527125Y-145322498D01*
X127569970Y-145333500D01*
X127590224Y-145333500D01*
X127609934Y-145335050D01*
X127629943Y-145338220D01*
X127673961Y-145334058D01*
X127685819Y-145333500D01*
X129691233Y-145333500D01*
X129702416Y-145334027D01*
X129709909Y-145335702D01*
X129777985Y-145333562D01*
X129781945Y-145333500D01*
X129805894Y-145333500D01*
X129809856Y-145333500D01*
X129813856Y-145332994D01*
X129825699Y-145332061D01*
X129869889Y-145330673D01*
X129889333Y-145325023D01*
X129908702Y-145321012D01*
X129928797Y-145318474D01*
X129969915Y-145302193D01*
X129981117Y-145298357D01*
X130023593Y-145286018D01*
X130041039Y-145275699D01*
X130058769Y-145267013D01*
X130077617Y-145259552D01*
X130113387Y-145233561D01*
X130123298Y-145227051D01*
X130161362Y-145204542D01*
X130175688Y-145190215D01*
X130190717Y-145177378D01*
X130207107Y-145165472D01*
X130235294Y-145131397D01*
X130243272Y-145122630D01*
X131132559Y-144233343D01*
X131188205Y-144200960D01*
X131252040Y-144200302D01*
X131255365Y-144201444D01*
X131477431Y-144238500D01*
X131697358Y-144238500D01*
X131702569Y-144238500D01*
X131924635Y-144201444D01*
X132137574Y-144128342D01*
X132335576Y-144021189D01*
X132513240Y-143882906D01*
X132665722Y-143717268D01*
X132761555Y-143570583D01*
X132807069Y-143528686D01*
X132867038Y-143513500D01*
X138791233Y-143513500D01*
X138802416Y-143514027D01*
X138809909Y-143515702D01*
X138877985Y-143513562D01*
X138881945Y-143513500D01*
X138905894Y-143513500D01*
X138909856Y-143513500D01*
X138913856Y-143512994D01*
X138925699Y-143512061D01*
X138969889Y-143510673D01*
X138989333Y-143505023D01*
X139008702Y-143501012D01*
X139028797Y-143498474D01*
X139069915Y-143482193D01*
X139081117Y-143478357D01*
X139123593Y-143466018D01*
X139141039Y-143455699D01*
X139158769Y-143447013D01*
X139177617Y-143439552D01*
X139213387Y-143413561D01*
X139223298Y-143407051D01*
X139261362Y-143384542D01*
X139275688Y-143370215D01*
X139290717Y-143357378D01*
X139307107Y-143345472D01*
X139335294Y-143311397D01*
X139343272Y-143302630D01*
X142256875Y-140389028D01*
X142314956Y-140356001D01*
X142381760Y-140357316D01*
X142438499Y-140392603D01*
X142463424Y-140440751D01*
X142465958Y-140439928D01*
X142522930Y-140615271D01*
X142522933Y-140615278D01*
X142524973Y-140621556D01*
X142620460Y-140786944D01*
X142748247Y-140928866D01*
X142902748Y-141041118D01*
X143077212Y-141118794D01*
X143264013Y-141158500D01*
X143448384Y-141158500D01*
X143454987Y-141158500D01*
X143641788Y-141118794D01*
X143816252Y-141041118D01*
X143970753Y-140928866D01*
X144098540Y-140786944D01*
X144194027Y-140621556D01*
X144253042Y-140439928D01*
X144273004Y-140250000D01*
X144274470Y-140250154D01*
X144279054Y-140222212D01*
X144291926Y-140198342D01*
X144290718Y-140197628D01*
X144294750Y-140190809D01*
X144299613Y-140184541D01*
X144317167Y-140143975D01*
X144322392Y-140133308D01*
X144329255Y-140120826D01*
X144343695Y-140094560D01*
X144348732Y-140074942D01*
X144355138Y-140056230D01*
X144363181Y-140037645D01*
X144370099Y-139993956D01*
X144372503Y-139982356D01*
X144383500Y-139939530D01*
X144383500Y-139919269D01*
X144385051Y-139899558D01*
X144388219Y-139879557D01*
X144384058Y-139835545D01*
X144383500Y-139823689D01*
X144383500Y-138078767D01*
X144384027Y-138067583D01*
X144385702Y-138060091D01*
X144383562Y-137992014D01*
X144383500Y-137988055D01*
X144383500Y-137964108D01*
X144383500Y-137960144D01*
X144382994Y-137956147D01*
X144382061Y-137944297D01*
X144380673Y-137900110D01*
X144375020Y-137880656D01*
X144371012Y-137861297D01*
X144368474Y-137841203D01*
X144352197Y-137800093D01*
X144348351Y-137788860D01*
X144336018Y-137746407D01*
X144325708Y-137728973D01*
X144317007Y-137711213D01*
X144309552Y-137692383D01*
X144283565Y-137656616D01*
X144277047Y-137646693D01*
X144258578Y-137615463D01*
X144254542Y-137608638D01*
X144240218Y-137594314D01*
X144227382Y-137579286D01*
X144215472Y-137562893D01*
X144209367Y-137557842D01*
X144209360Y-137557835D01*
X144181400Y-137534705D01*
X144172620Y-137526716D01*
X143653646Y-137007741D01*
X143646111Y-136999459D01*
X143642000Y-136992982D01*
X143611241Y-136964098D01*
X143592347Y-136946355D01*
X143589505Y-136943600D01*
X143572574Y-136926669D01*
X143572573Y-136926668D01*
X143569770Y-136923865D01*
X143566575Y-136921386D01*
X143557554Y-136913682D01*
X143537124Y-136894498D01*
X143525321Y-136883414D01*
X143518377Y-136879596D01*
X143511961Y-136874935D01*
X143513507Y-136872806D01*
X143480661Y-136842678D01*
X143480515Y-136842460D01*
X143477595Y-136836996D01*
X143475099Y-136833955D01*
X143456719Y-136789585D01*
X143456718Y-136740417D01*
X143475099Y-136696045D01*
X143477595Y-136693004D01*
X143571241Y-136517804D01*
X143576100Y-136501788D01*
X143610143Y-136389561D01*
X143628908Y-136327701D01*
X143648380Y-136130000D01*
X143628908Y-135932299D01*
X143571241Y-135742196D01*
X143477595Y-135566996D01*
X143351568Y-135413432D01*
X143303448Y-135373941D01*
X143278208Y-135345927D01*
X143262388Y-135311696D01*
X143260018Y-135303539D01*
X143256013Y-135284195D01*
X143253474Y-135264097D01*
X143237199Y-135222992D01*
X143233353Y-135211759D01*
X143223229Y-135176912D01*
X143221018Y-135169301D01*
X143210708Y-135151867D01*
X143202007Y-135134107D01*
X143194552Y-135115277D01*
X143168565Y-135079510D01*
X143162047Y-135069587D01*
X143139542Y-135031532D01*
X143125217Y-135017207D01*
X143112382Y-135002180D01*
X143100472Y-134985787D01*
X143094367Y-134980736D01*
X143094360Y-134980729D01*
X143066400Y-134957599D01*
X143057620Y-134949610D01*
X142615752Y-134507741D01*
X142608217Y-134499459D01*
X142604106Y-134492982D01*
X142591396Y-134481047D01*
X142554453Y-134446355D01*
X142551611Y-134443600D01*
X142534680Y-134426669D01*
X142531876Y-134423865D01*
X142528681Y-134421386D01*
X142519660Y-134413682D01*
X142512958Y-134407389D01*
X142487427Y-134383414D01*
X142480483Y-134379596D01*
X142480477Y-134379592D01*
X142469672Y-134373652D01*
X142453153Y-134362801D01*
X142437147Y-134350386D01*
X142429872Y-134347238D01*
X142429869Y-134347236D01*
X142396572Y-134332828D01*
X142385910Y-134327605D01*
X142354113Y-134310124D01*
X142354111Y-134310123D01*
X142347166Y-134306305D01*
X142339489Y-134304334D01*
X142339487Y-134304333D01*
X142330137Y-134301932D01*
X142327542Y-134301266D01*
X142308840Y-134294863D01*
X142297526Y-134289967D01*
X142297524Y-134289966D01*
X142290251Y-134286819D01*
X142282425Y-134285579D01*
X142282424Y-134285579D01*
X142246581Y-134279902D01*
X142234965Y-134277496D01*
X142192136Y-134266500D01*
X142184207Y-134266500D01*
X142171882Y-134266500D01*
X142152171Y-134264949D01*
X142139991Y-134263019D01*
X142139984Y-134263018D01*
X142132163Y-134261780D01*
X142124279Y-134262525D01*
X142124271Y-134262525D01*
X142088145Y-134265941D01*
X142076287Y-134266500D01*
X134568763Y-134266500D01*
X134557579Y-134265972D01*
X134550091Y-134264299D01*
X134542176Y-134264547D01*
X134542168Y-134264547D01*
X134482033Y-134266438D01*
X134478075Y-134266500D01*
X134450144Y-134266500D01*
X134446232Y-134266993D01*
X134446199Y-134266996D01*
X134446101Y-134267009D01*
X134434300Y-134267937D01*
X134398030Y-134269077D01*
X134398022Y-134269078D01*
X134390110Y-134269327D01*
X134382504Y-134271536D01*
X134382501Y-134271537D01*
X134370655Y-134274979D01*
X134351306Y-134278986D01*
X134339062Y-134280533D01*
X134331203Y-134281526D01*
X134323841Y-134284440D01*
X134323832Y-134284443D01*
X134290097Y-134297800D01*
X134278870Y-134301645D01*
X134244012Y-134311772D01*
X134244008Y-134311773D01*
X134236407Y-134313982D01*
X134229593Y-134318011D01*
X134229585Y-134318015D01*
X134218961Y-134324298D01*
X134201220Y-134332989D01*
X134189759Y-134337527D01*
X134189755Y-134337528D01*
X134182383Y-134340448D01*
X134175967Y-134345109D01*
X134175964Y-134345111D01*
X134146625Y-134366427D01*
X134136707Y-134372943D01*
X134105459Y-134391423D01*
X134105456Y-134391425D01*
X134098637Y-134395458D01*
X134093036Y-134401057D01*
X134093029Y-134401064D01*
X134084304Y-134409789D01*
X134069282Y-134422618D01*
X134059311Y-134429863D01*
X134059302Y-134429871D01*
X134052893Y-134434528D01*
X134047846Y-134440628D01*
X134047838Y-134440636D01*
X134024710Y-134468593D01*
X134016723Y-134477370D01*
X132047439Y-136446654D01*
X131991790Y-136479039D01*
X131927956Y-136479696D01*
X131924635Y-136478556D01*
X131919501Y-136477699D01*
X131919500Y-136477699D01*
X131707706Y-136442357D01*
X131707703Y-136442356D01*
X131702569Y-136441500D01*
X131477431Y-136441500D01*
X131472297Y-136442356D01*
X131472293Y-136442357D01*
X131260498Y-136477699D01*
X131260492Y-136477700D01*
X131255365Y-136478556D01*
X131252037Y-136479698D01*
X131188203Y-136479038D01*
X131132558Y-136446654D01*
X127293646Y-132607741D01*
X127286112Y-132599463D01*
X127282000Y-132592982D01*
X127232348Y-132546356D01*
X127229506Y-132543601D01*
X127212574Y-132526669D01*
X127209770Y-132523865D01*
X127206575Y-132521386D01*
X127197554Y-132513682D01*
X127171097Y-132488838D01*
X127165321Y-132483414D01*
X127158377Y-132479596D01*
X127158371Y-132479592D01*
X127147566Y-132473652D01*
X127131047Y-132462801D01*
X127115041Y-132450386D01*
X127107766Y-132447238D01*
X127107763Y-132447236D01*
X127074466Y-132432828D01*
X127063804Y-132427605D01*
X127032007Y-132410124D01*
X127032005Y-132410123D01*
X127025060Y-132406305D01*
X127017383Y-132404334D01*
X127017381Y-132404333D01*
X127005438Y-132401267D01*
X126986734Y-132394863D01*
X126975420Y-132389967D01*
X126975418Y-132389966D01*
X126968145Y-132386819D01*
X126960319Y-132385579D01*
X126960318Y-132385579D01*
X126924475Y-132379902D01*
X126912859Y-132377496D01*
X126870030Y-132366500D01*
X126862101Y-132366500D01*
X126849776Y-132366500D01*
X126830065Y-132364949D01*
X126817885Y-132363019D01*
X126817878Y-132363018D01*
X126810057Y-132361780D01*
X126802173Y-132362525D01*
X126802165Y-132362525D01*
X126766039Y-132365941D01*
X126754181Y-132366500D01*
X126009500Y-132366500D01*
X125946500Y-132349619D01*
X125900381Y-132303500D01*
X125883500Y-132240500D01*
X125883500Y-127347736D01*
X125902813Y-127280700D01*
X125928951Y-127239102D01*
X125983043Y-127153015D01*
X126043217Y-126981047D01*
X126063616Y-126800000D01*
X126060642Y-126773607D01*
X126072328Y-126704831D01*
X126118814Y-126652813D01*
X126185850Y-126633500D01*
X126335406Y-126633500D01*
X126383624Y-126643091D01*
X126424501Y-126670405D01*
X127146342Y-127392246D01*
X127153884Y-127400533D01*
X127158000Y-127407018D01*
X127163779Y-127412444D01*
X127163780Y-127412446D01*
X127207667Y-127453658D01*
X127210508Y-127456412D01*
X127230231Y-127476135D01*
X127233359Y-127478561D01*
X127233360Y-127478562D01*
X127233414Y-127478604D01*
X127242446Y-127486317D01*
X127274679Y-127516586D01*
X127281624Y-127520404D01*
X127292430Y-127526345D01*
X127308956Y-127537201D01*
X127318690Y-127544751D01*
X127318692Y-127544752D01*
X127324960Y-127549614D01*
X127365530Y-127567170D01*
X127376186Y-127572390D01*
X127407993Y-127589876D01*
X127414940Y-127593695D01*
X127434566Y-127598734D01*
X127453259Y-127605134D01*
X127471855Y-127613181D01*
X127479686Y-127614421D01*
X127479689Y-127614422D01*
X127492811Y-127616500D01*
X127515525Y-127620097D01*
X127527125Y-127622498D01*
X127569970Y-127633500D01*
X127590224Y-127633500D01*
X127609934Y-127635050D01*
X127629943Y-127638220D01*
X127673961Y-127634058D01*
X127685819Y-127633500D01*
X130171233Y-127633500D01*
X130182416Y-127634027D01*
X130189909Y-127635702D01*
X130257985Y-127633562D01*
X130261945Y-127633500D01*
X130285894Y-127633500D01*
X130289856Y-127633500D01*
X130293856Y-127632994D01*
X130305699Y-127632061D01*
X130349889Y-127630673D01*
X130369333Y-127625023D01*
X130388702Y-127621012D01*
X130408797Y-127618474D01*
X130449915Y-127602193D01*
X130461117Y-127598357D01*
X130503593Y-127586018D01*
X130521039Y-127575699D01*
X130538769Y-127567013D01*
X130557617Y-127559552D01*
X130593387Y-127533561D01*
X130603298Y-127527051D01*
X130641362Y-127504542D01*
X130655688Y-127490215D01*
X130670717Y-127477378D01*
X130687107Y-127465472D01*
X130715294Y-127431397D01*
X130723272Y-127422630D01*
X131292650Y-126853252D01*
X131343302Y-126822356D01*
X131402482Y-126818067D01*
X131422413Y-126821392D01*
X131524931Y-126838500D01*
X131744858Y-126838500D01*
X131750069Y-126838500D01*
X131972135Y-126801444D01*
X132185074Y-126728342D01*
X132383076Y-126621189D01*
X132560740Y-126482906D01*
X132713222Y-126317268D01*
X132809055Y-126170583D01*
X132854569Y-126128686D01*
X132914538Y-126113500D01*
X136915406Y-126113500D01*
X136963624Y-126123091D01*
X137004501Y-126150405D01*
X139005501Y-128151405D01*
X139036239Y-128201564D01*
X139040855Y-128260211D01*
X139018342Y-128314561D01*
X138973609Y-128352767D01*
X138916406Y-128366500D01*
X138458200Y-128366500D01*
X138406953Y-128355608D01*
X138371275Y-128329687D01*
X138370580Y-128330460D01*
X138365667Y-128326037D01*
X138361253Y-128321134D01*
X138206752Y-128208882D01*
X138032288Y-128131206D01*
X138025835Y-128129834D01*
X138025831Y-128129833D01*
X137851943Y-128092872D01*
X137851940Y-128092871D01*
X137845487Y-128091500D01*
X137654513Y-128091500D01*
X137648060Y-128092871D01*
X137648056Y-128092872D01*
X137474168Y-128129833D01*
X137474161Y-128129835D01*
X137467712Y-128131206D01*
X137461682Y-128133890D01*
X137461681Y-128133891D01*
X137299278Y-128206197D01*
X137299275Y-128206198D01*
X137293248Y-128208882D01*
X137287907Y-128212762D01*
X137287906Y-128212763D01*
X137144091Y-128317250D01*
X137144087Y-128317254D01*
X137138747Y-128321134D01*
X137134330Y-128326039D01*
X137134325Y-128326044D01*
X137031270Y-128440499D01*
X137010960Y-128463056D01*
X137007661Y-128468769D01*
X137007658Y-128468774D01*
X136935987Y-128592913D01*
X136915473Y-128628444D01*
X136913434Y-128634718D01*
X136913430Y-128634728D01*
X136858497Y-128803794D01*
X136858495Y-128803801D01*
X136856458Y-128810072D01*
X136836496Y-129000000D01*
X136837186Y-129006565D01*
X136855524Y-129181047D01*
X136856458Y-129189928D01*
X136858495Y-129196200D01*
X136858497Y-129196205D01*
X136913430Y-129365271D01*
X136913433Y-129365278D01*
X136915473Y-129371556D01*
X137010960Y-129536944D01*
X137138747Y-129678866D01*
X137293248Y-129791118D01*
X137467712Y-129868794D01*
X137654513Y-129908500D01*
X137838884Y-129908500D01*
X137845487Y-129908500D01*
X138032288Y-129868794D01*
X138206752Y-129791118D01*
X138361253Y-129678866D01*
X138365669Y-129673961D01*
X138370580Y-129669540D01*
X138371275Y-129670312D01*
X138406953Y-129644392D01*
X138458200Y-129633500D01*
X142171233Y-129633500D01*
X142182416Y-129634027D01*
X142189909Y-129635702D01*
X142257985Y-129633562D01*
X142261945Y-129633500D01*
X142285894Y-129633500D01*
X142289856Y-129633500D01*
X142293856Y-129632994D01*
X142305699Y-129632061D01*
X142349889Y-129630673D01*
X142369333Y-129625023D01*
X142388702Y-129621012D01*
X142408797Y-129618474D01*
X142449915Y-129602193D01*
X142461117Y-129598357D01*
X142503593Y-129586018D01*
X142521039Y-129575699D01*
X142538769Y-129567013D01*
X142557617Y-129559552D01*
X142593387Y-129533561D01*
X142603298Y-129527051D01*
X142641362Y-129504542D01*
X142655688Y-129490215D01*
X142670717Y-129477378D01*
X142687107Y-129465472D01*
X142715294Y-129431397D01*
X142723272Y-129422630D01*
X144142259Y-128003643D01*
X144150533Y-127996114D01*
X144157018Y-127992000D01*
X144203676Y-127942312D01*
X144206368Y-127939534D01*
X144226134Y-127919770D01*
X144228601Y-127916588D01*
X144236310Y-127907561D01*
X144266586Y-127875321D01*
X144276345Y-127857567D01*
X144287199Y-127841043D01*
X144299613Y-127825041D01*
X144317167Y-127784475D01*
X144322392Y-127773808D01*
X144339875Y-127742008D01*
X144339874Y-127742008D01*
X144343695Y-127735060D01*
X144348732Y-127715442D01*
X144355138Y-127696730D01*
X144363181Y-127678145D01*
X144370099Y-127634456D01*
X144372503Y-127622856D01*
X144383500Y-127580030D01*
X144383500Y-127559769D01*
X144385051Y-127540058D01*
X144388219Y-127520057D01*
X144386752Y-127504542D01*
X144384059Y-127476046D01*
X144383500Y-127464189D01*
X144383500Y-126578767D01*
X144384027Y-126567583D01*
X144385702Y-126560091D01*
X144383562Y-126492014D01*
X144383500Y-126488055D01*
X144383500Y-126464108D01*
X144383500Y-126460144D01*
X144382994Y-126456147D01*
X144382061Y-126444297D01*
X144380673Y-126400110D01*
X144375020Y-126380656D01*
X144371012Y-126361297D01*
X144368474Y-126341203D01*
X144352197Y-126300093D01*
X144348351Y-126288860D01*
X144338229Y-126254019D01*
X144336018Y-126246407D01*
X144325707Y-126228973D01*
X144317008Y-126211215D01*
X144312469Y-126199751D01*
X144309552Y-126192383D01*
X144283561Y-126156610D01*
X144277050Y-126146698D01*
X144270257Y-126135211D01*
X144254542Y-126108637D01*
X144240218Y-126094313D01*
X144227376Y-126079277D01*
X144220134Y-126069309D01*
X144220131Y-126069306D01*
X144215472Y-126062893D01*
X144209320Y-126057804D01*
X144181405Y-126034710D01*
X144172626Y-126026721D01*
X143655887Y-125509982D01*
X143624407Y-125457462D01*
X143622261Y-125450386D01*
X143571241Y-125282196D01*
X143503724Y-125155880D01*
X143480512Y-125112453D01*
X143480511Y-125112451D01*
X143477595Y-125106996D01*
X143475099Y-125103955D01*
X143456718Y-125059578D01*
X143456719Y-125010411D01*
X143475100Y-124966043D01*
X143477595Y-124963004D01*
X143571241Y-124787804D01*
X143628908Y-124597701D01*
X143648380Y-124400000D01*
X143634230Y-124256331D01*
X143629515Y-124208461D01*
X143629514Y-124208460D01*
X143628908Y-124202299D01*
X143571241Y-124012196D01*
X143477595Y-123836996D01*
X143475099Y-123833954D01*
X143456719Y-123789581D01*
X143456719Y-123740419D01*
X143475099Y-123696044D01*
X143477595Y-123693004D01*
X143571241Y-123517804D01*
X143628908Y-123327701D01*
X143648380Y-123130000D01*
X143643688Y-123082361D01*
X143650446Y-123027564D01*
X143679984Y-122980919D01*
X144142264Y-122518639D01*
X144150535Y-122511113D01*
X144157018Y-122507000D01*
X144203661Y-122457328D01*
X144206353Y-122454550D01*
X144226135Y-122434770D01*
X144228613Y-122431574D01*
X144236308Y-122422563D01*
X144266586Y-122390321D01*
X144276348Y-122372562D01*
X144287195Y-122356050D01*
X144299614Y-122340041D01*
X144317179Y-122299446D01*
X144322388Y-122288814D01*
X144343695Y-122250060D01*
X144348733Y-122230434D01*
X144355134Y-122211737D01*
X144363181Y-122193145D01*
X144370096Y-122149477D01*
X144372504Y-122137853D01*
X144383500Y-122095030D01*
X144383500Y-122074776D01*
X144385051Y-122055065D01*
X144386980Y-122042885D01*
X144388220Y-122035057D01*
X144384058Y-121991038D01*
X144383500Y-121979181D01*
X144383500Y-120078763D01*
X144384027Y-120067579D01*
X144385701Y-120060091D01*
X144383561Y-119992032D01*
X144383500Y-119988075D01*
X144383500Y-119964100D01*
X144383500Y-119960144D01*
X144382993Y-119956134D01*
X144382061Y-119944294D01*
X144381701Y-119932828D01*
X144380673Y-119900110D01*
X144375020Y-119880656D01*
X144371012Y-119861297D01*
X144370458Y-119856909D01*
X144368474Y-119841203D01*
X144352197Y-119800092D01*
X144348358Y-119788882D01*
X144336018Y-119746406D01*
X144325703Y-119728966D01*
X144317010Y-119711221D01*
X144309552Y-119692383D01*
X144297809Y-119676221D01*
X144283564Y-119656614D01*
X144277046Y-119646690D01*
X144258578Y-119615462D01*
X144254542Y-119608637D01*
X144240218Y-119594312D01*
X144227376Y-119579277D01*
X144220134Y-119569309D01*
X144220131Y-119569306D01*
X144215472Y-119562893D01*
X144181405Y-119534710D01*
X144172626Y-119526721D01*
X142153646Y-117507741D01*
X142146112Y-117499463D01*
X142142000Y-117492982D01*
X142092348Y-117446356D01*
X142089506Y-117443601D01*
X142072574Y-117426669D01*
X142072573Y-117426668D01*
X142069770Y-117423865D01*
X142066575Y-117421386D01*
X142057554Y-117413682D01*
X142031097Y-117388838D01*
X142025321Y-117383414D01*
X142018377Y-117379596D01*
X142018371Y-117379592D01*
X142007566Y-117373652D01*
X141991047Y-117362801D01*
X141975041Y-117350386D01*
X141967766Y-117347238D01*
X141967763Y-117347236D01*
X141934466Y-117332828D01*
X141923804Y-117327605D01*
X141892007Y-117310124D01*
X141892005Y-117310123D01*
X141885060Y-117306305D01*
X141877383Y-117304334D01*
X141877381Y-117304333D01*
X141865438Y-117301267D01*
X141846734Y-117294863D01*
X141835420Y-117289967D01*
X141835418Y-117289966D01*
X141828145Y-117286819D01*
X141820319Y-117285579D01*
X141820318Y-117285579D01*
X141784475Y-117279902D01*
X141772859Y-117277496D01*
X141730030Y-117266500D01*
X141722101Y-117266500D01*
X141709776Y-117266500D01*
X141690065Y-117264949D01*
X141677885Y-117263019D01*
X141677878Y-117263018D01*
X141670057Y-117261780D01*
X141662173Y-117262525D01*
X141662165Y-117262525D01*
X141626039Y-117265941D01*
X141614181Y-117266500D01*
X138108200Y-117266500D01*
X138056953Y-117255608D01*
X138021275Y-117229687D01*
X138020580Y-117230460D01*
X138015667Y-117226037D01*
X138011253Y-117221134D01*
X137997592Y-117211209D01*
X137959608Y-117183612D01*
X137856752Y-117108882D01*
X137682288Y-117031206D01*
X137675835Y-117029834D01*
X137675831Y-117029833D01*
X137501943Y-116992872D01*
X137501940Y-116992871D01*
X137495487Y-116991500D01*
X137304513Y-116991500D01*
X137298060Y-116992871D01*
X137298056Y-116992872D01*
X137124168Y-117029833D01*
X137124161Y-117029835D01*
X137117712Y-117031206D01*
X137111682Y-117033890D01*
X137111681Y-117033891D01*
X136949278Y-117106197D01*
X136949275Y-117106198D01*
X136943248Y-117108882D01*
X136937907Y-117112762D01*
X136937906Y-117112763D01*
X136794091Y-117217250D01*
X136794087Y-117217254D01*
X136788747Y-117221134D01*
X136784330Y-117226039D01*
X136784325Y-117226044D01*
X136708620Y-117310124D01*
X136660960Y-117363056D01*
X136657661Y-117368769D01*
X136657658Y-117368774D01*
X136577426Y-117507741D01*
X136565473Y-117528444D01*
X136563434Y-117534719D01*
X136563431Y-117534726D01*
X136533092Y-117628101D01*
X136498787Y-117681689D01*
X136442673Y-117711683D01*
X136379057Y-117710433D01*
X136324164Y-117678259D01*
X133573646Y-114927741D01*
X133566112Y-114919463D01*
X133562000Y-114912982D01*
X133512348Y-114866356D01*
X133509506Y-114863601D01*
X133492574Y-114846669D01*
X133492573Y-114846668D01*
X133489770Y-114843865D01*
X133486575Y-114841386D01*
X133477554Y-114833682D01*
X133475035Y-114831317D01*
X133445321Y-114803414D01*
X133438377Y-114799596D01*
X133438371Y-114799592D01*
X133427566Y-114793652D01*
X133411047Y-114782801D01*
X133395041Y-114770386D01*
X133387766Y-114767238D01*
X133387763Y-114767236D01*
X133354466Y-114752828D01*
X133343804Y-114747605D01*
X133312007Y-114730124D01*
X133312005Y-114730123D01*
X133305060Y-114726305D01*
X133297383Y-114724334D01*
X133297381Y-114724333D01*
X133285438Y-114721267D01*
X133266734Y-114714863D01*
X133255420Y-114709967D01*
X133255418Y-114709966D01*
X133248145Y-114706819D01*
X133240319Y-114705579D01*
X133240318Y-114705579D01*
X133204475Y-114699902D01*
X133192859Y-114697496D01*
X133150030Y-114686500D01*
X133142101Y-114686500D01*
X133129776Y-114686500D01*
X133110065Y-114684949D01*
X133097885Y-114683019D01*
X133097878Y-114683018D01*
X133090057Y-114681780D01*
X133082173Y-114682525D01*
X133082165Y-114682525D01*
X133046039Y-114685941D01*
X133034181Y-114686500D01*
X132914538Y-114686500D01*
X132854569Y-114671314D01*
X132809055Y-114629416D01*
X132713222Y-114482732D01*
X132634541Y-114397262D01*
X132564272Y-114320930D01*
X132564267Y-114320925D01*
X132560740Y-114317094D01*
X132383076Y-114178811D01*
X132378497Y-114176333D01*
X132378494Y-114176331D01*
X132189659Y-114074139D01*
X132189656Y-114074137D01*
X132185074Y-114071658D01*
X132180150Y-114069967D01*
X132180142Y-114069964D01*
X131977065Y-114000248D01*
X131977059Y-114000246D01*
X131972135Y-113998556D01*
X131966998Y-113997698D01*
X131966995Y-113997698D01*
X131755206Y-113962357D01*
X131755203Y-113962356D01*
X131750069Y-113961500D01*
X131524931Y-113961500D01*
X131519797Y-113962356D01*
X131519793Y-113962357D01*
X131308004Y-113997698D01*
X131307998Y-113997699D01*
X131302865Y-113998556D01*
X131297943Y-114000245D01*
X131297934Y-114000248D01*
X131094857Y-114069964D01*
X131094844Y-114069969D01*
X131089926Y-114071658D01*
X131085347Y-114074135D01*
X131085340Y-114074139D01*
X130896505Y-114176331D01*
X130896497Y-114176336D01*
X130891924Y-114178811D01*
X130887813Y-114182010D01*
X130887811Y-114182012D01*
X130718378Y-114313888D01*
X130718372Y-114313893D01*
X130714260Y-114317094D01*
X130710729Y-114320929D01*
X130710721Y-114320937D01*
X130600730Y-114440417D01*
X130549624Y-114474016D01*
X130488718Y-114479590D01*
X130432361Y-114455828D01*
X130393834Y-114408327D01*
X130391924Y-114404232D01*
X130389615Y-114397262D01*
X130296530Y-114246348D01*
X130171152Y-114120970D01*
X130164904Y-114117116D01*
X130026481Y-114031735D01*
X130026476Y-114031732D01*
X130020238Y-114027885D01*
X130013276Y-114025578D01*
X130013274Y-114025577D01*
X129858451Y-113974275D01*
X129858449Y-113974274D01*
X129851926Y-113972113D01*
X129845089Y-113971414D01*
X129845087Y-113971414D01*
X129751229Y-113961825D01*
X129751223Y-113961824D01*
X129748045Y-113961500D01*
X129744839Y-113961500D01*
X128450161Y-113961500D01*
X128450141Y-113961500D01*
X128446956Y-113961501D01*
X128443779Y-113961825D01*
X128443770Y-113961826D01*
X128349911Y-113971414D01*
X128349905Y-113971415D01*
X128343074Y-113972113D01*
X128336558Y-113974271D01*
X128336549Y-113974274D01*
X128181725Y-114025577D01*
X128181719Y-114025579D01*
X128174762Y-114027885D01*
X128168526Y-114031730D01*
X128168518Y-114031735D01*
X128030095Y-114117116D01*
X128030090Y-114117119D01*
X128023848Y-114120970D01*
X128018658Y-114126159D01*
X128018654Y-114126163D01*
X127903663Y-114241154D01*
X127903659Y-114241158D01*
X127898470Y-114246348D01*
X127894619Y-114252590D01*
X127894616Y-114252595D01*
X127809235Y-114391018D01*
X127809230Y-114391026D01*
X127805385Y-114397262D01*
X127803079Y-114404219D01*
X127803077Y-114404225D01*
X127763014Y-114525132D01*
X127736718Y-114570173D01*
X127694435Y-114600706D01*
X127643409Y-114611500D01*
X127355223Y-114611500D01*
X127347616Y-114611270D01*
X127294515Y-114608058D01*
X127294513Y-114608058D01*
X127286908Y-114607598D01*
X127227063Y-114618563D01*
X127219568Y-114619704D01*
X127166764Y-114626116D01*
X127166761Y-114626116D01*
X127159199Y-114627035D01*
X127152074Y-114629736D01*
X127152073Y-114629737D01*
X127149663Y-114630651D01*
X127127714Y-114636770D01*
X127117671Y-114638611D01*
X127110724Y-114641737D01*
X127110716Y-114641740D01*
X127062211Y-114663570D01*
X127055183Y-114666481D01*
X127005452Y-114685342D01*
X127005445Y-114685345D01*
X126998325Y-114688046D01*
X126992055Y-114692373D01*
X126992054Y-114692374D01*
X126989924Y-114693844D01*
X126970077Y-114705037D01*
X126967724Y-114706095D01*
X126967713Y-114706101D01*
X126960774Y-114709225D01*
X126954783Y-114713918D01*
X126954774Y-114713924D01*
X126912898Y-114746731D01*
X126906774Y-114751238D01*
X126862996Y-114781457D01*
X126862992Y-114781460D01*
X126856727Y-114785785D01*
X126851679Y-114791482D01*
X126851672Y-114791489D01*
X126816387Y-114831317D01*
X126811172Y-114836856D01*
X117546670Y-124101358D01*
X117499192Y-124131192D01*
X117403659Y-124164621D01*
X117403654Y-124164623D01*
X117396985Y-124166957D01*
X117390996Y-124170719D01*
X117390994Y-124170721D01*
X117248714Y-124260121D01*
X117248707Y-124260126D01*
X117242719Y-124263889D01*
X117237715Y-124268893D01*
X117165351Y-124341257D01*
X117108867Y-124373868D01*
X117043645Y-124373868D01*
X116987161Y-124341256D01*
X115113646Y-122467741D01*
X115106112Y-122459463D01*
X115102000Y-122452982D01*
X115052348Y-122406356D01*
X115049506Y-122403601D01*
X115032574Y-122386669D01*
X115029770Y-122383865D01*
X115026575Y-122381386D01*
X115017554Y-122373682D01*
X115016378Y-122372578D01*
X114985321Y-122343414D01*
X114978377Y-122339596D01*
X114978371Y-122339592D01*
X114967566Y-122333652D01*
X114951047Y-122322801D01*
X114935041Y-122310386D01*
X114927766Y-122307238D01*
X114927763Y-122307236D01*
X114894466Y-122292828D01*
X114883804Y-122287605D01*
X114852007Y-122270124D01*
X114852005Y-122270123D01*
X114845060Y-122266305D01*
X114837383Y-122264334D01*
X114837381Y-122264333D01*
X114825438Y-122261267D01*
X114806734Y-122254863D01*
X114795420Y-122249967D01*
X114795418Y-122249966D01*
X114788145Y-122246819D01*
X114780319Y-122245579D01*
X114780318Y-122245579D01*
X114744475Y-122239902D01*
X114732859Y-122237496D01*
X114690030Y-122226500D01*
X114682101Y-122226500D01*
X114669776Y-122226500D01*
X114650065Y-122224949D01*
X114637885Y-122223019D01*
X114637878Y-122223018D01*
X114630057Y-122221780D01*
X114622173Y-122222525D01*
X114622165Y-122222525D01*
X114586039Y-122225941D01*
X114574181Y-122226500D01*
X111179538Y-122226500D01*
X111119569Y-122211314D01*
X111074055Y-122169416D01*
X110978222Y-122022732D01*
X110896435Y-121933888D01*
X110829272Y-121860930D01*
X110829267Y-121860925D01*
X110825740Y-121857094D01*
X110648076Y-121718811D01*
X110643502Y-121716336D01*
X110643495Y-121716331D01*
X110614820Y-121700814D01*
X110566548Y-121654498D01*
X110548789Y-121590000D01*
X110566548Y-121525502D01*
X110614820Y-121479186D01*
X110643490Y-121463671D01*
X110648076Y-121461189D01*
X110825740Y-121322906D01*
X110978222Y-121157268D01*
X111101360Y-120968791D01*
X111191796Y-120762616D01*
X111247064Y-120544368D01*
X111265656Y-120320000D01*
X111247064Y-120095632D01*
X111191796Y-119877384D01*
X111101360Y-119671209D01*
X110978222Y-119482732D01*
X110871643Y-119366957D01*
X110829272Y-119320930D01*
X110829267Y-119320925D01*
X110825740Y-119317094D01*
X110648076Y-119178811D01*
X110643502Y-119176336D01*
X110643495Y-119176331D01*
X110614820Y-119160814D01*
X110566548Y-119114498D01*
X110548789Y-119050000D01*
X110566548Y-118985502D01*
X110614820Y-118939186D01*
X110643490Y-118923671D01*
X110648076Y-118921189D01*
X110825740Y-118782906D01*
X110978222Y-118617268D01*
X111101360Y-118428791D01*
X111191796Y-118222616D01*
X111247064Y-118004368D01*
X111265656Y-117780000D01*
X111247064Y-117555632D01*
X111191796Y-117337384D01*
X111101360Y-117131209D01*
X110978222Y-116942732D01*
X110917456Y-116876723D01*
X110829272Y-116780930D01*
X110829267Y-116780925D01*
X110825740Y-116777094D01*
X110648076Y-116638811D01*
X110643497Y-116636333D01*
X110643494Y-116636331D01*
X110454659Y-116534139D01*
X110454656Y-116534137D01*
X110450074Y-116531658D01*
X110445150Y-116529967D01*
X110445142Y-116529964D01*
X110242065Y-116460248D01*
X110242059Y-116460246D01*
X110237135Y-116458556D01*
X110231998Y-116457698D01*
X110231995Y-116457698D01*
X110020206Y-116422357D01*
X110020203Y-116422356D01*
X110015069Y-116421500D01*
X109789931Y-116421500D01*
X109784797Y-116422356D01*
X109784793Y-116422357D01*
X109573004Y-116457698D01*
X109572998Y-116457699D01*
X109567865Y-116458556D01*
X109562943Y-116460245D01*
X109562934Y-116460248D01*
X109359857Y-116529964D01*
X109359844Y-116529969D01*
X109354926Y-116531658D01*
X109350347Y-116534135D01*
X109350340Y-116534139D01*
X109161505Y-116636331D01*
X109161497Y-116636336D01*
X109156924Y-116638811D01*
X109152813Y-116642010D01*
X109152811Y-116642012D01*
X108983378Y-116773888D01*
X108983372Y-116773893D01*
X108979260Y-116777094D01*
X108975737Y-116780919D01*
X108975727Y-116780930D01*
X108830306Y-116938899D01*
X108830302Y-116938902D01*
X108826778Y-116942732D01*
X108823931Y-116947090D01*
X108737683Y-117079102D01*
X108692169Y-117121000D01*
X108632200Y-117136186D01*
X108572231Y-117121000D01*
X108526718Y-117079102D01*
X108493264Y-117027898D01*
X108485170Y-117020051D01*
X108475638Y-117026070D01*
X107733438Y-117768271D01*
X107726667Y-117779999D01*
X107733439Y-117791729D01*
X108475638Y-118533928D01*
X108485170Y-118539947D01*
X108493265Y-118532099D01*
X108526717Y-118480898D01*
X108572231Y-118438999D01*
X108632200Y-118423813D01*
X108692169Y-118438999D01*
X108737683Y-118480898D01*
X108758758Y-118513156D01*
X108826778Y-118617268D01*
X108830306Y-118621100D01*
X108975727Y-118779069D01*
X108975731Y-118779073D01*
X108979260Y-118782906D01*
X109156924Y-118921189D01*
X109161502Y-118923666D01*
X109161509Y-118923671D01*
X109190180Y-118939187D01*
X109238451Y-118985503D01*
X109256210Y-119050000D01*
X109238451Y-119114497D01*
X109190180Y-119160813D01*
X109161509Y-119176328D01*
X109161493Y-119176338D01*
X109156924Y-119178811D01*
X109152813Y-119182010D01*
X109152811Y-119182012D01*
X108983378Y-119313888D01*
X108983372Y-119313893D01*
X108979260Y-119317094D01*
X108975737Y-119320919D01*
X108975727Y-119320930D01*
X108830306Y-119478899D01*
X108830302Y-119478902D01*
X108826778Y-119482732D01*
X108823931Y-119487090D01*
X108737683Y-119619102D01*
X108692169Y-119661000D01*
X108632200Y-119676186D01*
X108572231Y-119661000D01*
X108526718Y-119619102D01*
X108493264Y-119567898D01*
X108485170Y-119560051D01*
X108475638Y-119566070D01*
X107733438Y-120308271D01*
X107726667Y-120319999D01*
X107733439Y-120331729D01*
X108475638Y-121073928D01*
X108485170Y-121079947D01*
X108493265Y-121072099D01*
X108526717Y-121020898D01*
X108572231Y-120978999D01*
X108632200Y-120963813D01*
X108692169Y-120978999D01*
X108737683Y-121020898D01*
X108756434Y-121049599D01*
X108826778Y-121157268D01*
X108830306Y-121161100D01*
X108975727Y-121319069D01*
X108975731Y-121319073D01*
X108979260Y-121322906D01*
X109156924Y-121461189D01*
X109161502Y-121463666D01*
X109161509Y-121463671D01*
X109190180Y-121479187D01*
X109238451Y-121525503D01*
X109256210Y-121590000D01*
X109238451Y-121654497D01*
X109190180Y-121700813D01*
X109161509Y-121716328D01*
X109161493Y-121716338D01*
X109156924Y-121718811D01*
X109152813Y-121722010D01*
X109152811Y-121722012D01*
X108983378Y-121853888D01*
X108983372Y-121853893D01*
X108979260Y-121857094D01*
X108975737Y-121860919D01*
X108975727Y-121860930D01*
X108830306Y-122018899D01*
X108830302Y-122018902D01*
X108826778Y-122022732D01*
X108805654Y-122055065D01*
X108737683Y-122159102D01*
X108692169Y-122201000D01*
X108632200Y-122216186D01*
X108572231Y-122201000D01*
X108526718Y-122159102D01*
X108493264Y-122107898D01*
X108485170Y-122100051D01*
X108475638Y-122106070D01*
X107733438Y-122848271D01*
X107726667Y-122859999D01*
X107733439Y-122871729D01*
X108475638Y-123613928D01*
X108485170Y-123619947D01*
X108493265Y-123612099D01*
X108526717Y-123560898D01*
X108572231Y-123518999D01*
X108632200Y-123503813D01*
X108692169Y-123518999D01*
X108737683Y-123560898D01*
X108758758Y-123593156D01*
X108826778Y-123697268D01*
X108830306Y-123701100D01*
X108975727Y-123859069D01*
X108975731Y-123859073D01*
X108979260Y-123862906D01*
X109156924Y-124001189D01*
X109161502Y-124003666D01*
X109161509Y-124003671D01*
X109190180Y-124019187D01*
X109238451Y-124065503D01*
X109256210Y-124130000D01*
X109238451Y-124194497D01*
X109190180Y-124240813D01*
X109161509Y-124256328D01*
X109161493Y-124256338D01*
X109156924Y-124258811D01*
X109152813Y-124262010D01*
X109152811Y-124262012D01*
X108983378Y-124393888D01*
X108983372Y-124393893D01*
X108979260Y-124397094D01*
X108975737Y-124400919D01*
X108975727Y-124400930D01*
X108830306Y-124558899D01*
X108830302Y-124558902D01*
X108826778Y-124562732D01*
X108823931Y-124567090D01*
X108737683Y-124699102D01*
X108692169Y-124741000D01*
X108632200Y-124756186D01*
X108572231Y-124741000D01*
X108526718Y-124699102D01*
X108493264Y-124647898D01*
X108485170Y-124640051D01*
X108475638Y-124646070D01*
X107733438Y-125388271D01*
X107726667Y-125399999D01*
X107733439Y-125411729D01*
X108475638Y-126153928D01*
X108485170Y-126159947D01*
X108493265Y-126152099D01*
X108526717Y-126100898D01*
X108572231Y-126058999D01*
X108632200Y-126043813D01*
X108692169Y-126058999D01*
X108737683Y-126100898D01*
X108760101Y-126135211D01*
X108826778Y-126237268D01*
X108830306Y-126241100D01*
X108975727Y-126399069D01*
X108975731Y-126399073D01*
X108979260Y-126402906D01*
X109156924Y-126541189D01*
X109161502Y-126543666D01*
X109161509Y-126543671D01*
X109190180Y-126559187D01*
X109238451Y-126605503D01*
X109256210Y-126670000D01*
X109238451Y-126734497D01*
X109190180Y-126780813D01*
X109161509Y-126796328D01*
X109161493Y-126796338D01*
X109156924Y-126798811D01*
X109152813Y-126802010D01*
X109152811Y-126802012D01*
X108983378Y-126933888D01*
X108983372Y-126933893D01*
X108979260Y-126937094D01*
X108975737Y-126940919D01*
X108975727Y-126940930D01*
X108830306Y-127098899D01*
X108830302Y-127098902D01*
X108826778Y-127102732D01*
X108823931Y-127107090D01*
X108737683Y-127239102D01*
X108692169Y-127281000D01*
X108632200Y-127296186D01*
X108572231Y-127281000D01*
X108526718Y-127239102D01*
X108493264Y-127187898D01*
X108485170Y-127180051D01*
X108475638Y-127186070D01*
X107362499Y-128299209D01*
X107362500Y-128299210D01*
X106609478Y-129052230D01*
X106602710Y-129064532D01*
X106610946Y-129075901D01*
X106613092Y-129077571D01*
X106621782Y-129083248D01*
X106651233Y-129099187D01*
X106699504Y-129145503D01*
X106717263Y-129210000D01*
X106699504Y-129274497D01*
X106651233Y-129320813D01*
X106621782Y-129336751D01*
X106613091Y-129342428D01*
X106610945Y-129344098D01*
X106602710Y-129355465D01*
X106609479Y-129367769D01*
X107632614Y-130390904D01*
X107665226Y-130447388D01*
X107665226Y-130512610D01*
X107632614Y-130569094D01*
X106609478Y-131592229D01*
X106602710Y-131604533D01*
X106610946Y-131615901D01*
X106613092Y-131617571D01*
X106621782Y-131623248D01*
X106651233Y-131639187D01*
X106699504Y-131685503D01*
X106717263Y-131750000D01*
X106699504Y-131814497D01*
X106651233Y-131860813D01*
X106621782Y-131876751D01*
X106613091Y-131882428D01*
X106610945Y-131884098D01*
X106602710Y-131895465D01*
X106609479Y-131907769D01*
X107632614Y-132930904D01*
X107665226Y-132987388D01*
X107665226Y-133052610D01*
X107632614Y-133109094D01*
X106609478Y-134132229D01*
X106602710Y-134144533D01*
X106610946Y-134155901D01*
X106613092Y-134157571D01*
X106621782Y-134163248D01*
X106651233Y-134179187D01*
X106699504Y-134225503D01*
X106717263Y-134290000D01*
X106699504Y-134354497D01*
X106651233Y-134400813D01*
X106621782Y-134416751D01*
X106613091Y-134422428D01*
X106610945Y-134424098D01*
X106602710Y-134435465D01*
X106609479Y-134447769D01*
X108475638Y-136313928D01*
X108485170Y-136319947D01*
X108493265Y-136312099D01*
X108526717Y-136260898D01*
X108572231Y-136218999D01*
X108632200Y-136203813D01*
X108692169Y-136218999D01*
X108737683Y-136260898D01*
X108826778Y-136397268D01*
X108830306Y-136401100D01*
X108975727Y-136559069D01*
X108975731Y-136559073D01*
X108979260Y-136562906D01*
X109156924Y-136701189D01*
X109161502Y-136703666D01*
X109161509Y-136703671D01*
X109190180Y-136719187D01*
X109238451Y-136765503D01*
X109256210Y-136830000D01*
X109238451Y-136894497D01*
X109190180Y-136940813D01*
X109161509Y-136956328D01*
X109161493Y-136956338D01*
X109156924Y-136958811D01*
X109152813Y-136962010D01*
X109152811Y-136962012D01*
X108983378Y-137093888D01*
X108983372Y-137093893D01*
X108979260Y-137097094D01*
X108975737Y-137100919D01*
X108975727Y-137100930D01*
X108830306Y-137258899D01*
X108830302Y-137258902D01*
X108826778Y-137262732D01*
X108823931Y-137267090D01*
X108737683Y-137399102D01*
X108692169Y-137441000D01*
X108632200Y-137456186D01*
X108572231Y-137441000D01*
X108526718Y-137399102D01*
X108493264Y-137347898D01*
X108485170Y-137340051D01*
X108475638Y-137346070D01*
X107733438Y-138088271D01*
X107726667Y-138099999D01*
X107733439Y-138111729D01*
X108475638Y-138853928D01*
X108485170Y-138859947D01*
X108493265Y-138852099D01*
X108526717Y-138800898D01*
X108572231Y-138758999D01*
X108632200Y-138743813D01*
X108692169Y-138758999D01*
X108737683Y-138800898D01*
X108826778Y-138937268D01*
X108830306Y-138941100D01*
X108975727Y-139099069D01*
X108975731Y-139099073D01*
X108979260Y-139102906D01*
X109014440Y-139130288D01*
X109053177Y-139180831D01*
X109062250Y-139243864D01*
X109039340Y-139303284D01*
X108990299Y-139343911D01*
X108986722Y-139345578D01*
X108979762Y-139347885D01*
X108973523Y-139351733D01*
X108973517Y-139351736D01*
X108835095Y-139437116D01*
X108835090Y-139437119D01*
X108828848Y-139440970D01*
X108823658Y-139446159D01*
X108823654Y-139446163D01*
X108708663Y-139561154D01*
X108708659Y-139561158D01*
X108703470Y-139566348D01*
X108699619Y-139572590D01*
X108699616Y-139572595D01*
X108614234Y-139711020D01*
X108614230Y-139711027D01*
X108610385Y-139717262D01*
X108608079Y-139724219D01*
X108606163Y-139728330D01*
X108567635Y-139775830D01*
X108511279Y-139799591D01*
X108450373Y-139794015D01*
X108399268Y-139760417D01*
X108289272Y-139640930D01*
X108289267Y-139640925D01*
X108285740Y-139637094D01*
X108108076Y-139498811D01*
X108103500Y-139496334D01*
X108103490Y-139496328D01*
X108074294Y-139480529D01*
X108026021Y-139434213D01*
X108008262Y-139369715D01*
X108026022Y-139305217D01*
X108074294Y-139258900D01*
X108103225Y-139243243D01*
X108111910Y-139237569D01*
X108114052Y-139235902D01*
X108122287Y-139224533D01*
X108115519Y-139212229D01*
X107374229Y-138470939D01*
X107362499Y-138464167D01*
X107350771Y-138470938D01*
X106609478Y-139212230D01*
X106602710Y-139224532D01*
X106610946Y-139235901D01*
X106613092Y-139237571D01*
X106621777Y-139243245D01*
X106650706Y-139258901D01*
X106698978Y-139305217D01*
X106716737Y-139369715D01*
X106698978Y-139434212D01*
X106650707Y-139480528D01*
X106639201Y-139486755D01*
X106621500Y-139496334D01*
X106621494Y-139496337D01*
X106616924Y-139498811D01*
X106612813Y-139502010D01*
X106612811Y-139502012D01*
X106443378Y-139633888D01*
X106443372Y-139633893D01*
X106439260Y-139637094D01*
X106435737Y-139640919D01*
X106435727Y-139640930D01*
X106290306Y-139798899D01*
X106290302Y-139798902D01*
X106286778Y-139802732D01*
X106283930Y-139807090D01*
X106283927Y-139807095D01*
X106166492Y-139986843D01*
X106163640Y-139991209D01*
X106161548Y-139995978D01*
X106161546Y-139995982D01*
X106075299Y-140192606D01*
X106075296Y-140192614D01*
X106073204Y-140197384D01*
X106071923Y-140202440D01*
X106071922Y-140202445D01*
X106023768Y-140392603D01*
X106017936Y-140415632D01*
X106017506Y-140420820D01*
X106017505Y-140420827D01*
X106015083Y-140450059D01*
X105999344Y-140640000D01*
X98010500Y-140640000D01*
X98010500Y-138105189D01*
X106000276Y-138105189D01*
X106018000Y-138319092D01*
X106019709Y-138329335D01*
X106072400Y-138537407D01*
X106075770Y-138547223D01*
X106161988Y-138743778D01*
X106166931Y-138752913D01*
X106231733Y-138852099D01*
X106239828Y-138859947D01*
X106249359Y-138853929D01*
X106991559Y-138111730D01*
X106998332Y-138099999D01*
X106991560Y-138088270D01*
X106249360Y-137346070D01*
X106239828Y-137340051D01*
X106231734Y-137347899D01*
X106166931Y-137447086D01*
X106161988Y-137456221D01*
X106075770Y-137652776D01*
X106072400Y-137662592D01*
X106019709Y-137870664D01*
X106018000Y-137880907D01*
X106000276Y-138094811D01*
X106000276Y-138105189D01*
X98010500Y-138105189D01*
X98010500Y-136975465D01*
X106602710Y-136975465D01*
X106609479Y-136987769D01*
X107350770Y-137729060D01*
X107362499Y-137735832D01*
X107374230Y-137729059D01*
X108115522Y-136987766D01*
X108122288Y-136975466D01*
X108114051Y-136964096D01*
X108111911Y-136962431D01*
X108103221Y-136956753D01*
X108073767Y-136940814D01*
X108025495Y-136894498D01*
X108007736Y-136830000D01*
X108025495Y-136765502D01*
X108073767Y-136719186D01*
X108103221Y-136703246D01*
X108111910Y-136697569D01*
X108114052Y-136695902D01*
X108122287Y-136684533D01*
X108115519Y-136672229D01*
X107374229Y-135930939D01*
X107362499Y-135924167D01*
X107350771Y-135930938D01*
X106609478Y-136672230D01*
X106602710Y-136684532D01*
X106610946Y-136695901D01*
X106613092Y-136697571D01*
X106621782Y-136703248D01*
X106651233Y-136719187D01*
X106699504Y-136765503D01*
X106717263Y-136830000D01*
X106699504Y-136894497D01*
X106651233Y-136940813D01*
X106621782Y-136956751D01*
X106613091Y-136962428D01*
X106610945Y-136964098D01*
X106602710Y-136975465D01*
X98010500Y-136975465D01*
X98010500Y-135565189D01*
X106000276Y-135565189D01*
X106018000Y-135779092D01*
X106019709Y-135789335D01*
X106072400Y-135997407D01*
X106075770Y-136007223D01*
X106161988Y-136203778D01*
X106166931Y-136212913D01*
X106231733Y-136312099D01*
X106239828Y-136319947D01*
X106249359Y-136313929D01*
X106991559Y-135571730D01*
X106998332Y-135559999D01*
X106991560Y-135548270D01*
X106249360Y-134806070D01*
X106239828Y-134800051D01*
X106231734Y-134807899D01*
X106166931Y-134907086D01*
X106161988Y-134916221D01*
X106075770Y-135112776D01*
X106072400Y-135122592D01*
X106019709Y-135330664D01*
X106018000Y-135340907D01*
X106000276Y-135554811D01*
X106000276Y-135565189D01*
X98010500Y-135565189D01*
X98010500Y-133025189D01*
X106000276Y-133025189D01*
X106018000Y-133239092D01*
X106019709Y-133249335D01*
X106072400Y-133457407D01*
X106075770Y-133467223D01*
X106161988Y-133663778D01*
X106166931Y-133672913D01*
X106231733Y-133772099D01*
X106239828Y-133779947D01*
X106249359Y-133773929D01*
X106991559Y-133031730D01*
X106998332Y-133019999D01*
X106991560Y-133008270D01*
X106249360Y-132266070D01*
X106239828Y-132260051D01*
X106231734Y-132267899D01*
X106166931Y-132367086D01*
X106161988Y-132376221D01*
X106075770Y-132572776D01*
X106072400Y-132582592D01*
X106019709Y-132790664D01*
X106018000Y-132800907D01*
X106000276Y-133014811D01*
X106000276Y-133025189D01*
X98010500Y-133025189D01*
X98010500Y-130485189D01*
X106000276Y-130485189D01*
X106018000Y-130699092D01*
X106019709Y-130709335D01*
X106072400Y-130917407D01*
X106075770Y-130927223D01*
X106161988Y-131123778D01*
X106166931Y-131132913D01*
X106231733Y-131232099D01*
X106239828Y-131239947D01*
X106249359Y-131233929D01*
X106991559Y-130491730D01*
X106998332Y-130479999D01*
X106991560Y-130468270D01*
X106249360Y-129726070D01*
X106239828Y-129720051D01*
X106231734Y-129727899D01*
X106166931Y-129827086D01*
X106161988Y-129836221D01*
X106075770Y-130032776D01*
X106072400Y-130042592D01*
X106019709Y-130250664D01*
X106018000Y-130260907D01*
X106000276Y-130474811D01*
X106000276Y-130485189D01*
X98010500Y-130485189D01*
X98010500Y-127945189D01*
X106000276Y-127945189D01*
X106018000Y-128159092D01*
X106019709Y-128169335D01*
X106072400Y-128377407D01*
X106075770Y-128387223D01*
X106161988Y-128583778D01*
X106166931Y-128592913D01*
X106231733Y-128692099D01*
X106239828Y-128699947D01*
X106249359Y-128693929D01*
X106991559Y-127951730D01*
X106998332Y-127939999D01*
X106991560Y-127928270D01*
X106249360Y-127186070D01*
X106239828Y-127180051D01*
X106231734Y-127187899D01*
X106166931Y-127287086D01*
X106161988Y-127296221D01*
X106075770Y-127492776D01*
X106072400Y-127502592D01*
X106019709Y-127710664D01*
X106018000Y-127720907D01*
X106000276Y-127934811D01*
X106000276Y-127945189D01*
X98010500Y-127945189D01*
X98010500Y-126815465D01*
X106602710Y-126815465D01*
X106609479Y-126827769D01*
X107350770Y-127569060D01*
X107362499Y-127575832D01*
X107374230Y-127569059D01*
X108115522Y-126827766D01*
X108122288Y-126815466D01*
X108114051Y-126804096D01*
X108111911Y-126802431D01*
X108103221Y-126796753D01*
X108073767Y-126780814D01*
X108025495Y-126734498D01*
X108007736Y-126670000D01*
X108025495Y-126605502D01*
X108073767Y-126559186D01*
X108103221Y-126543246D01*
X108111910Y-126537569D01*
X108114052Y-126535902D01*
X108122287Y-126524533D01*
X108115519Y-126512229D01*
X107374229Y-125770939D01*
X107362499Y-125764167D01*
X107350771Y-125770938D01*
X106609478Y-126512230D01*
X106602710Y-126524532D01*
X106610946Y-126535901D01*
X106613092Y-126537571D01*
X106621782Y-126543248D01*
X106651233Y-126559187D01*
X106699504Y-126605503D01*
X106717263Y-126670000D01*
X106699504Y-126734497D01*
X106651233Y-126780813D01*
X106621782Y-126796751D01*
X106613091Y-126802428D01*
X106610945Y-126804098D01*
X106602710Y-126815465D01*
X98010500Y-126815465D01*
X98010500Y-125405189D01*
X106000276Y-125405189D01*
X106018000Y-125619092D01*
X106019709Y-125629335D01*
X106072400Y-125837407D01*
X106075770Y-125847223D01*
X106161988Y-126043778D01*
X106166931Y-126052913D01*
X106231733Y-126152099D01*
X106239828Y-126159947D01*
X106249359Y-126153929D01*
X106991559Y-125411730D01*
X106998332Y-125399999D01*
X106991560Y-125388270D01*
X106249360Y-124646070D01*
X106239828Y-124640051D01*
X106231734Y-124647899D01*
X106166931Y-124747086D01*
X106161988Y-124756221D01*
X106075770Y-124952776D01*
X106072400Y-124962592D01*
X106019709Y-125170664D01*
X106018000Y-125180907D01*
X106000276Y-125394811D01*
X106000276Y-125405189D01*
X98010500Y-125405189D01*
X98010500Y-124275465D01*
X106602710Y-124275465D01*
X106609479Y-124287769D01*
X107350770Y-125029060D01*
X107362499Y-125035832D01*
X107374230Y-125029059D01*
X108115522Y-124287766D01*
X108122288Y-124275466D01*
X108114051Y-124264096D01*
X108111911Y-124262431D01*
X108103221Y-124256753D01*
X108073767Y-124240814D01*
X108025495Y-124194498D01*
X108007736Y-124130000D01*
X108025495Y-124065502D01*
X108073767Y-124019186D01*
X108103221Y-124003246D01*
X108111910Y-123997569D01*
X108114052Y-123995902D01*
X108122287Y-123984533D01*
X108115519Y-123972229D01*
X107374229Y-123230939D01*
X107362499Y-123224167D01*
X107350771Y-123230938D01*
X106609478Y-123972230D01*
X106602710Y-123984532D01*
X106610946Y-123995901D01*
X106613092Y-123997571D01*
X106621782Y-124003248D01*
X106651233Y-124019187D01*
X106699504Y-124065503D01*
X106717263Y-124130000D01*
X106699504Y-124194497D01*
X106651233Y-124240813D01*
X106621782Y-124256751D01*
X106613091Y-124262428D01*
X106610945Y-124264098D01*
X106602710Y-124275465D01*
X98010500Y-124275465D01*
X98010500Y-122865189D01*
X106000276Y-122865189D01*
X106018000Y-123079092D01*
X106019709Y-123089335D01*
X106072400Y-123297407D01*
X106075770Y-123307223D01*
X106161988Y-123503778D01*
X106166931Y-123512913D01*
X106231733Y-123612099D01*
X106239828Y-123619947D01*
X106249359Y-123613929D01*
X106991559Y-122871730D01*
X106998332Y-122859999D01*
X106991560Y-122848270D01*
X106249360Y-122106070D01*
X106239828Y-122100051D01*
X106231734Y-122107899D01*
X106166931Y-122207086D01*
X106161988Y-122216221D01*
X106075770Y-122412776D01*
X106072400Y-122422592D01*
X106019709Y-122630664D01*
X106018000Y-122640907D01*
X106000276Y-122854811D01*
X106000276Y-122865189D01*
X98010500Y-122865189D01*
X98010500Y-121735465D01*
X106602710Y-121735465D01*
X106609479Y-121747769D01*
X107350770Y-122489060D01*
X107362499Y-122495832D01*
X107374230Y-122489059D01*
X108115522Y-121747766D01*
X108122288Y-121735466D01*
X108114051Y-121724096D01*
X108111911Y-121722431D01*
X108103221Y-121716753D01*
X108073767Y-121700814D01*
X108025495Y-121654498D01*
X108007736Y-121590000D01*
X108025495Y-121525502D01*
X108073767Y-121479186D01*
X108103221Y-121463246D01*
X108111910Y-121457569D01*
X108114052Y-121455902D01*
X108122287Y-121444533D01*
X108115519Y-121432229D01*
X107374229Y-120690939D01*
X107362499Y-120684167D01*
X107350771Y-120690938D01*
X106609478Y-121432230D01*
X106602710Y-121444532D01*
X106610946Y-121455901D01*
X106613092Y-121457571D01*
X106621782Y-121463248D01*
X106651233Y-121479187D01*
X106699504Y-121525503D01*
X106717263Y-121590000D01*
X106699504Y-121654497D01*
X106651233Y-121700813D01*
X106621782Y-121716751D01*
X106613091Y-121722428D01*
X106610945Y-121724098D01*
X106602710Y-121735465D01*
X98010500Y-121735465D01*
X98010500Y-120325189D01*
X106000276Y-120325189D01*
X106018000Y-120539092D01*
X106019709Y-120549335D01*
X106072400Y-120757407D01*
X106075770Y-120767223D01*
X106161988Y-120963778D01*
X106166931Y-120972913D01*
X106231733Y-121072099D01*
X106239828Y-121079947D01*
X106249359Y-121073929D01*
X106991559Y-120331730D01*
X106998332Y-120319999D01*
X106991560Y-120308270D01*
X106249360Y-119566070D01*
X106239828Y-119560051D01*
X106231734Y-119567899D01*
X106166931Y-119667086D01*
X106161988Y-119676221D01*
X106075770Y-119872776D01*
X106072400Y-119882592D01*
X106019709Y-120090664D01*
X106018000Y-120100907D01*
X106000276Y-120314811D01*
X106000276Y-120325189D01*
X98010500Y-120325189D01*
X98010500Y-119195465D01*
X106602710Y-119195465D01*
X106609479Y-119207769D01*
X107350770Y-119949060D01*
X107362499Y-119955832D01*
X107374230Y-119949059D01*
X108115522Y-119207766D01*
X108122288Y-119195466D01*
X108114051Y-119184096D01*
X108111911Y-119182431D01*
X108103221Y-119176753D01*
X108073767Y-119160814D01*
X108025495Y-119114498D01*
X108007736Y-119050000D01*
X108025495Y-118985502D01*
X108073767Y-118939186D01*
X108103221Y-118923246D01*
X108111910Y-118917569D01*
X108114052Y-118915902D01*
X108122287Y-118904533D01*
X108115519Y-118892229D01*
X107374229Y-118150939D01*
X107362499Y-118144167D01*
X107350771Y-118150938D01*
X106609478Y-118892230D01*
X106602710Y-118904532D01*
X106610946Y-118915901D01*
X106613092Y-118917571D01*
X106621782Y-118923248D01*
X106651233Y-118939187D01*
X106699504Y-118985503D01*
X106717263Y-119050000D01*
X106699504Y-119114497D01*
X106651233Y-119160813D01*
X106621782Y-119176751D01*
X106613091Y-119182428D01*
X106610945Y-119184098D01*
X106602710Y-119195465D01*
X98010500Y-119195465D01*
X98010500Y-117785189D01*
X106000276Y-117785189D01*
X106018000Y-117999092D01*
X106019709Y-118009335D01*
X106072400Y-118217407D01*
X106075770Y-118227223D01*
X106161988Y-118423778D01*
X106166931Y-118432913D01*
X106231733Y-118532099D01*
X106239828Y-118539947D01*
X106249359Y-118533929D01*
X106991559Y-117791730D01*
X106998332Y-117779999D01*
X106991560Y-117768270D01*
X106249360Y-117026070D01*
X106239828Y-117020051D01*
X106231734Y-117027899D01*
X106166931Y-117127086D01*
X106161988Y-117136221D01*
X106075770Y-117332776D01*
X106072400Y-117342592D01*
X106019709Y-117550664D01*
X106018000Y-117560907D01*
X106000276Y-117774811D01*
X106000276Y-117785189D01*
X98010500Y-117785189D01*
X98010500Y-116655465D01*
X106602710Y-116655465D01*
X106609479Y-116667769D01*
X107350770Y-117409060D01*
X107362499Y-117415832D01*
X107374230Y-117409059D01*
X108115522Y-116667766D01*
X108122288Y-116655466D01*
X108114051Y-116644096D01*
X108111911Y-116642431D01*
X108103220Y-116636753D01*
X107914457Y-116534599D01*
X107904940Y-116530424D01*
X107701942Y-116460735D01*
X107691872Y-116458185D01*
X107480164Y-116422857D01*
X107469816Y-116422000D01*
X107255184Y-116422000D01*
X107244835Y-116422857D01*
X107033127Y-116458185D01*
X107023057Y-116460735D01*
X106820059Y-116530424D01*
X106810542Y-116534599D01*
X106621777Y-116636754D01*
X106613091Y-116642428D01*
X106610945Y-116644098D01*
X106602710Y-116655465D01*
X98010500Y-116655465D01*
X98010500Y-109002921D01*
X98010567Y-109000000D01*
X98286411Y-109000000D01*
X98286584Y-109003301D01*
X98306581Y-109384886D01*
X98306582Y-109384897D01*
X98306754Y-109388176D01*
X98307267Y-109391417D01*
X98307268Y-109391423D01*
X98367045Y-109768838D01*
X98367046Y-109768847D01*
X98367562Y-109772099D01*
X98468167Y-110147562D01*
X98469352Y-110150649D01*
X98469353Y-110150652D01*
X98606283Y-110507368D01*
X98606288Y-110507380D01*
X98607468Y-110510453D01*
X98783938Y-110856795D01*
X98995643Y-111182793D01*
X99240266Y-111484876D01*
X99515124Y-111759734D01*
X99817207Y-112004357D01*
X100143205Y-112216062D01*
X100489547Y-112392532D01*
X100852438Y-112531833D01*
X101227901Y-112632438D01*
X101611824Y-112693246D01*
X102000000Y-112713589D01*
X102388176Y-112693246D01*
X102772099Y-112632438D01*
X103147562Y-112531833D01*
X103510453Y-112392532D01*
X103856795Y-112216062D01*
X104182793Y-112004357D01*
X104484876Y-111759734D01*
X104759734Y-111484876D01*
X105004357Y-111182793D01*
X105216062Y-110856795D01*
X105392532Y-110510453D01*
X105531833Y-110147562D01*
X105632438Y-109772099D01*
X105693246Y-109388176D01*
X105713589Y-109000000D01*
X139286411Y-109000000D01*
X139286584Y-109003301D01*
X139306581Y-109384886D01*
X139306582Y-109384897D01*
X139306754Y-109388176D01*
X139307267Y-109391417D01*
X139307268Y-109391423D01*
X139367045Y-109768838D01*
X139367046Y-109768847D01*
X139367562Y-109772099D01*
X139468167Y-110147562D01*
X139469352Y-110150649D01*
X139469353Y-110150652D01*
X139606283Y-110507368D01*
X139606288Y-110507380D01*
X139607468Y-110510453D01*
X139783938Y-110856795D01*
X139995643Y-111182793D01*
X140240266Y-111484876D01*
X140515124Y-111759734D01*
X140817207Y-112004357D01*
X141143205Y-112216062D01*
X141489547Y-112392532D01*
X141852438Y-112531833D01*
X142227901Y-112632438D01*
X142611824Y-112693246D01*
X143000000Y-112713589D01*
X143388176Y-112693246D01*
X143772099Y-112632438D01*
X144147562Y-112531833D01*
X144510453Y-112392532D01*
X144856795Y-112216062D01*
X145182793Y-112004357D01*
X145484876Y-111759734D01*
X145759734Y-111484876D01*
X146004357Y-111182793D01*
X146216062Y-110856795D01*
X146392532Y-110510453D01*
X146531833Y-110147562D01*
X146632438Y-109772099D01*
X146693246Y-109388176D01*
X146713589Y-109000000D01*
X146693246Y-108611824D01*
X146632438Y-108227901D01*
X146531833Y-107852438D01*
X146392532Y-107489547D01*
X146216062Y-107143206D01*
X146004357Y-106817207D01*
X145759734Y-106515124D01*
X145484876Y-106240266D01*
X145182793Y-105995643D01*
X145180033Y-105993850D01*
X145180028Y-105993847D01*
X144859564Y-105785736D01*
X144859561Y-105785734D01*
X144856795Y-105783938D01*
X144838518Y-105774625D01*
X144513392Y-105608965D01*
X144513384Y-105608961D01*
X144510453Y-105607468D01*
X144507380Y-105606288D01*
X144507368Y-105606283D01*
X144150652Y-105469353D01*
X144150649Y-105469352D01*
X144147562Y-105468167D01*
X144144376Y-105467313D01*
X144144369Y-105467311D01*
X143775288Y-105368416D01*
X143775279Y-105368414D01*
X143772099Y-105367562D01*
X143768847Y-105367046D01*
X143768838Y-105367045D01*
X143391423Y-105307268D01*
X143391417Y-105307267D01*
X143388176Y-105306754D01*
X143384897Y-105306582D01*
X143384886Y-105306581D01*
X143003301Y-105286584D01*
X143000000Y-105286411D01*
X142996699Y-105286584D01*
X142615113Y-105306581D01*
X142615100Y-105306582D01*
X142611824Y-105306754D01*
X142608584Y-105307267D01*
X142608576Y-105307268D01*
X142231161Y-105367045D01*
X142231148Y-105367047D01*
X142227901Y-105367562D01*
X142224724Y-105368413D01*
X142224711Y-105368416D01*
X141855630Y-105467311D01*
X141855617Y-105467315D01*
X141852438Y-105468167D01*
X141849355Y-105469350D01*
X141849347Y-105469353D01*
X141492631Y-105606283D01*
X141492612Y-105606291D01*
X141489547Y-105607468D01*
X141486622Y-105608958D01*
X141486607Y-105608965D01*
X141146147Y-105782439D01*
X141146139Y-105782443D01*
X141143206Y-105783938D01*
X141140447Y-105785729D01*
X141140436Y-105785736D01*
X140819971Y-105993847D01*
X140819957Y-105993856D01*
X140817207Y-105995643D01*
X140814653Y-105997711D01*
X140814645Y-105997717D01*
X140517686Y-106238191D01*
X140515124Y-106240266D01*
X140512797Y-106242592D01*
X140512787Y-106242602D01*
X140242602Y-106512787D01*
X140242592Y-106512797D01*
X140240266Y-106515124D01*
X140238194Y-106517682D01*
X140238191Y-106517686D01*
X139997717Y-106814645D01*
X139997711Y-106814653D01*
X139995643Y-106817207D01*
X139993856Y-106819957D01*
X139993847Y-106819971D01*
X139785736Y-107140436D01*
X139785729Y-107140447D01*
X139783938Y-107143206D01*
X139782443Y-107146139D01*
X139782439Y-107146147D01*
X139608965Y-107486607D01*
X139608958Y-107486622D01*
X139607468Y-107489547D01*
X139606291Y-107492612D01*
X139606283Y-107492631D01*
X139469353Y-107849347D01*
X139469350Y-107849355D01*
X139468167Y-107852438D01*
X139467315Y-107855617D01*
X139467311Y-107855630D01*
X139368416Y-108224711D01*
X139368413Y-108224724D01*
X139367562Y-108227901D01*
X139367047Y-108231148D01*
X139367045Y-108231161D01*
X139307268Y-108608576D01*
X139306754Y-108611824D01*
X139306582Y-108615100D01*
X139306581Y-108615113D01*
X139305702Y-108631895D01*
X139286411Y-109000000D01*
X105713589Y-109000000D01*
X105693246Y-108611824D01*
X105632438Y-108227901D01*
X105531833Y-107852438D01*
X105392532Y-107489547D01*
X105216062Y-107143206D01*
X105004357Y-106817207D01*
X104759734Y-106515124D01*
X104484876Y-106240266D01*
X104182793Y-105995643D01*
X104180033Y-105993850D01*
X104180028Y-105993847D01*
X103859564Y-105785736D01*
X103859561Y-105785734D01*
X103856795Y-105783938D01*
X103838518Y-105774625D01*
X103513392Y-105608965D01*
X103513384Y-105608961D01*
X103510453Y-105607468D01*
X103507380Y-105606288D01*
X103507368Y-105606283D01*
X103150652Y-105469353D01*
X103150649Y-105469352D01*
X103147562Y-105468167D01*
X103144376Y-105467313D01*
X103144369Y-105467311D01*
X102775288Y-105368416D01*
X102775279Y-105368414D01*
X102772099Y-105367562D01*
X102768847Y-105367046D01*
X102768838Y-105367045D01*
X102391423Y-105307268D01*
X102391417Y-105307267D01*
X102388176Y-105306754D01*
X102384897Y-105306582D01*
X102384886Y-105306581D01*
X102003301Y-105286584D01*
X102000000Y-105286411D01*
X101996699Y-105286584D01*
X101615113Y-105306581D01*
X101615100Y-105306582D01*
X101611824Y-105306754D01*
X101608584Y-105307267D01*
X101608576Y-105307268D01*
X101231161Y-105367045D01*
X101231148Y-105367047D01*
X101227901Y-105367562D01*
X101224724Y-105368413D01*
X101224711Y-105368416D01*
X100855630Y-105467311D01*
X100855617Y-105467315D01*
X100852438Y-105468167D01*
X100849355Y-105469350D01*
X100849347Y-105469353D01*
X100492631Y-105606283D01*
X100492612Y-105606291D01*
X100489547Y-105607468D01*
X100486622Y-105608958D01*
X100486607Y-105608965D01*
X100146147Y-105782439D01*
X100146139Y-105782443D01*
X100143206Y-105783938D01*
X100140447Y-105785729D01*
X100140436Y-105785736D01*
X99819971Y-105993847D01*
X99819957Y-105993856D01*
X99817207Y-105995643D01*
X99814653Y-105997711D01*
X99814645Y-105997717D01*
X99517686Y-106238191D01*
X99515124Y-106240266D01*
X99512797Y-106242592D01*
X99512787Y-106242602D01*
X99242602Y-106512787D01*
X99242592Y-106512797D01*
X99240266Y-106515124D01*
X99238194Y-106517682D01*
X99238191Y-106517686D01*
X98997717Y-106814645D01*
X98997711Y-106814653D01*
X98995643Y-106817207D01*
X98993856Y-106819957D01*
X98993847Y-106819971D01*
X98785736Y-107140436D01*
X98785729Y-107140447D01*
X98783938Y-107143206D01*
X98782443Y-107146139D01*
X98782439Y-107146147D01*
X98608965Y-107486607D01*
X98608958Y-107486622D01*
X98607468Y-107489547D01*
X98606291Y-107492612D01*
X98606283Y-107492631D01*
X98469353Y-107849347D01*
X98469350Y-107849355D01*
X98468167Y-107852438D01*
X98467315Y-107855617D01*
X98467311Y-107855630D01*
X98368416Y-108224711D01*
X98368413Y-108224724D01*
X98367562Y-108227901D01*
X98367047Y-108231148D01*
X98367045Y-108231161D01*
X98307268Y-108608576D01*
X98306754Y-108611824D01*
X98306582Y-108615100D01*
X98306581Y-108615113D01*
X98305702Y-108631895D01*
X98286411Y-109000000D01*
X98010567Y-109000000D01*
X98010634Y-108997102D01*
X98027250Y-108637713D01*
X98028324Y-108626125D01*
X98053543Y-108445332D01*
X98077627Y-108272678D01*
X98079759Y-108261275D01*
X98161466Y-107913880D01*
X98164644Y-107902709D01*
X98278053Y-107564342D01*
X98282253Y-107553501D01*
X98309130Y-107492631D01*
X98426400Y-107227038D01*
X98431575Y-107216647D01*
X98605227Y-106904882D01*
X98611339Y-106895009D01*
X98813033Y-106600572D01*
X98820014Y-106591327D01*
X99048017Y-106316754D01*
X99055838Y-106308176D01*
X99308176Y-106055838D01*
X99316754Y-106048017D01*
X99591327Y-105820014D01*
X99600572Y-105813033D01*
X99895009Y-105611339D01*
X99904882Y-105605227D01*
X100216647Y-105431575D01*
X100227038Y-105426400D01*
X100553505Y-105282251D01*
X100564342Y-105278053D01*
X100902709Y-105164644D01*
X100913880Y-105161466D01*
X101261275Y-105079759D01*
X101272678Y-105077627D01*
X101579723Y-105034796D01*
X101626125Y-105028324D01*
X101637713Y-105027250D01*
X101997102Y-105010634D01*
X102002921Y-105010500D01*
X102003412Y-105010500D01*
X142996588Y-105010500D01*
X142997079Y-105010500D01*
X143002898Y-105010634D01*
G37*
%TD.AperFunction*%
%TD*%
M02*
