M48
; DRILL file {KiCad (7.0.0)} date Mon Mar 27 10:38:53 2023
; FORMAT={-:-/ absolute / inch / decimal}
; #@! TF.CreationDate,2023-03-27T10:38:53+02:00
; #@! TF.GenerationSoftware,Kicad,Pcbnew,(7.0.0)
; #@! TF.FileFunction,Plated,1,2,PTH
FMAT,2
INCH
; #@! TA.AperFunction,Plated,PTH,ViaDrill
T1C0.0118
; #@! TA.AperFunction,Plated,PTH,ViaDrill
T2C0.0157
; #@! TA.AperFunction,Plated,PTH,ComponentDrill
T3C0.0197
; #@! TA.AperFunction,Plated,PTH,ComponentDrill
T4C0.0256
; #@! TA.AperFunction,Plated,PTH,ComponentDrill
T5C0.0394
; #@! TA.AperFunction,Plated,PTH,ComponentDrill
T6C0.1260
%
G90
G05
T1
X4.5453Y-5.2638
X4.628Y-5.0787
X4.6358Y-4.9173
X4.6358Y-4.9606
X4.6541Y-5.2874
X4.6555Y-5.1102
X4.6801Y-5.137
X4.7264Y-5.0787
X4.7382Y-5.2756
X4.8327Y-5.5394
X4.8917Y-4.9606
X4.8917Y-5.1969
X4.8917Y-5.2913
X4.9311Y-4.7283
X4.9311Y-4.9921
X5.0256Y-4.689
X5.2323Y-4.5925
T2
X4.9984Y-5.5989
X5.2834Y-5.5839
X5.4094Y-4.6417
X5.4232Y-5.0787
X5.6441Y-5.5217
T3
X3.9213Y-4.2913
X3.9213Y-5.9055
X3.9489Y-4.2245
X3.9489Y-4.3582
X3.9489Y-5.8387
X3.9489Y-5.9723
X4.0157Y-4.1969
X4.0157Y-4.3858
X4.0157Y-5.811
X4.0157Y-6.0
X4.0826Y-4.2245
X4.0826Y-4.3582
X4.0826Y-5.8387
X4.0826Y-5.9723
X4.1102Y-4.2913
X4.1102Y-5.9055
X5.5354Y-4.2913
X5.5354Y-5.9055
X5.5631Y-4.2245
X5.5631Y-4.3582
X5.5631Y-5.8387
X5.5631Y-5.9723
X5.6299Y-4.1969
X5.6299Y-4.3858
X5.6299Y-5.811
X5.6299Y-6.0
X5.6967Y-4.2245
X5.6967Y-4.3582
X5.6967Y-5.8387
X5.6967Y-5.9723
X5.7244Y-4.2913
X5.7244Y-5.9055
T4
X5.5656Y-4.7976
X5.5656Y-4.8476
X5.5656Y-4.8976
X5.5656Y-4.9476
X5.5656Y-4.9976
X5.5656Y-5.3594
X5.5656Y-5.4094
X5.5656Y-5.4594
X5.6156Y-4.7976
X5.6156Y-4.8476
X5.6156Y-4.8976
X5.6156Y-4.9476
X5.6156Y-4.9976
X5.6156Y-5.3594
X5.6156Y-5.4094
X5.6156Y-5.4594
T5
X4.2269Y-4.637
X4.2269Y-4.737
X4.2269Y-4.837
X4.2269Y-4.937
X4.2269Y-5.037
X4.2269Y-5.137
X4.2269Y-5.237
X4.2269Y-5.337
X4.2269Y-5.437
X4.2269Y-5.537
X4.3269Y-4.637
X4.3269Y-4.737
X4.3269Y-4.837
X4.3269Y-4.937
X4.3269Y-5.037
X4.3269Y-5.137
X4.3269Y-5.237
X4.3269Y-5.337
X4.3269Y-5.437
X4.3269Y-5.537
X5.0807Y-5.4252
X5.0807Y-5.5252
X5.0807Y-5.6252
X5.0826Y-4.5402
X5.0826Y-4.6402
X5.0826Y-4.7402
X5.0826Y-4.8402
X5.0826Y-4.9402
X5.1807Y-5.4252
X5.1807Y-5.5252
X5.1807Y-5.6252
X5.1826Y-4.5402
X5.1826Y-4.6402
X5.1826Y-4.7402
X5.1826Y-4.8402
X5.1826Y-4.9402
T6
X4.0157Y-4.2913
X4.0157Y-5.9055
X5.6299Y-4.2913
X5.6299Y-5.9055
T0
M30
