%TF.GenerationSoftware,KiCad,Pcbnew,(7.0.0)*%
%TF.CreationDate,2023-03-27T10:38:50+02:00*%
%TF.ProjectId,JTAG-SWD Adapter,4a544147-2d53-4574-9420-416461707465,rev?*%
%TF.SameCoordinates,Original*%
%TF.FileFunction,Legend,Top*%
%TF.FilePolarity,Positive*%
%FSLAX46Y46*%
G04 Gerber Fmt 4.6, Leading zero omitted, Abs format (unit mm)*
G04 Created by KiCad (PCBNEW (7.0.0)) date 2023-03-27 10:38:50*
%MOMM*%
%LPD*%
G01*
G04 APERTURE LIST*
%ADD10C,0.150000*%
%ADD11C,0.225000*%
%ADD12C,0.166667*%
%ADD13C,0.120000*%
G04 APERTURE END LIST*
D10*
X122350000Y-139200000D02*
X116350000Y-139200000D01*
X124150000Y-120000000D02*
X114150000Y-120000000D01*
X122150000Y-118000000D02*
X122150000Y-122000000D01*
X114150000Y-118000000D02*
X124150000Y-118000000D01*
X124150000Y-118000000D02*
X124150000Y-122000000D01*
X124150000Y-122000000D02*
X114150000Y-122000000D01*
X114150000Y-122000000D02*
X114150000Y-118000000D01*
X120150000Y-118000000D02*
X120150000Y-122000000D01*
X118350000Y-137200000D02*
X118350000Y-141200000D01*
X118150000Y-122000000D02*
X118150000Y-118000000D01*
D11*
X122862500Y-138200000D02*
G75*
G03*
X122862500Y-138200000I-112500J0D01*
G01*
D10*
X120350000Y-137200000D02*
X120350000Y-141200000D01*
D11*
X124662500Y-119000000D02*
G75*
G03*
X124662500Y-119000000I-112500J0D01*
G01*
D10*
X116150000Y-118000000D02*
X116150000Y-122000000D01*
X116350000Y-137200000D02*
X122350000Y-137200000D01*
X122350000Y-137200000D02*
X122350000Y-141200000D01*
X122350000Y-141200000D02*
X116350000Y-141200000D01*
X116350000Y-141200000D02*
X116350000Y-137200000D01*
X119982619Y-137866667D02*
X119982619Y-138485714D01*
X119982619Y-138485714D02*
X119601666Y-138152381D01*
X119601666Y-138152381D02*
X119601666Y-138295238D01*
X119601666Y-138295238D02*
X119554047Y-138390476D01*
X119554047Y-138390476D02*
X119506428Y-138438095D01*
X119506428Y-138438095D02*
X119411190Y-138485714D01*
X119411190Y-138485714D02*
X119173095Y-138485714D01*
X119173095Y-138485714D02*
X119077857Y-138438095D01*
X119077857Y-138438095D02*
X119030238Y-138390476D01*
X119030238Y-138390476D02*
X118982619Y-138295238D01*
X118982619Y-138295238D02*
X118982619Y-138009524D01*
X118982619Y-138009524D02*
X119030238Y-137914286D01*
X119030238Y-137914286D02*
X119077857Y-137866667D01*
X121887380Y-139914286D02*
X121935000Y-139961905D01*
X121935000Y-139961905D02*
X121982619Y-140057143D01*
X121982619Y-140057143D02*
X121982619Y-140295238D01*
X121982619Y-140295238D02*
X121935000Y-140390476D01*
X121935000Y-140390476D02*
X121887380Y-140438095D01*
X121887380Y-140438095D02*
X121792142Y-140485714D01*
X121792142Y-140485714D02*
X121696904Y-140485714D01*
X121696904Y-140485714D02*
X121554047Y-140438095D01*
X121554047Y-140438095D02*
X120982619Y-139866667D01*
X120982619Y-139866667D02*
X120982619Y-140485714D01*
X119030238Y-141390476D02*
X118982619Y-141533333D01*
X118982619Y-141533333D02*
X118982619Y-141771428D01*
X118982619Y-141771428D02*
X119030238Y-141866666D01*
X119030238Y-141866666D02*
X119077857Y-141914285D01*
X119077857Y-141914285D02*
X119173095Y-141961904D01*
X119173095Y-141961904D02*
X119268333Y-141961904D01*
X119268333Y-141961904D02*
X119363571Y-141914285D01*
X119363571Y-141914285D02*
X119411190Y-141866666D01*
X119411190Y-141866666D02*
X119458809Y-141771428D01*
X119458809Y-141771428D02*
X119506428Y-141580952D01*
X119506428Y-141580952D02*
X119554047Y-141485714D01*
X119554047Y-141485714D02*
X119601666Y-141438095D01*
X119601666Y-141438095D02*
X119696904Y-141390476D01*
X119696904Y-141390476D02*
X119792142Y-141390476D01*
X119792142Y-141390476D02*
X119887380Y-141438095D01*
X119887380Y-141438095D02*
X119935000Y-141485714D01*
X119935000Y-141485714D02*
X119982619Y-141580952D01*
X119982619Y-141580952D02*
X119982619Y-141819047D01*
X119982619Y-141819047D02*
X119935000Y-141961904D01*
X119982619Y-142295238D02*
X118982619Y-142533333D01*
X118982619Y-142533333D02*
X119696904Y-142723809D01*
X119696904Y-142723809D02*
X118982619Y-142914285D01*
X118982619Y-142914285D02*
X119982619Y-143152381D01*
X118982619Y-143533333D02*
X119982619Y-143533333D01*
X119982619Y-143533333D02*
X119982619Y-143771428D01*
X119982619Y-143771428D02*
X119935000Y-143914285D01*
X119935000Y-143914285D02*
X119839761Y-144009523D01*
X119839761Y-144009523D02*
X119744523Y-144057142D01*
X119744523Y-144057142D02*
X119554047Y-144104761D01*
X119554047Y-144104761D02*
X119411190Y-144104761D01*
X119411190Y-144104761D02*
X119220714Y-144057142D01*
X119220714Y-144057142D02*
X119125476Y-144009523D01*
X119125476Y-144009523D02*
X119030238Y-143914285D01*
X119030238Y-143914285D02*
X118982619Y-143771428D01*
X118982619Y-143771428D02*
X118982619Y-143533333D01*
X119077857Y-145104761D02*
X119030238Y-145057142D01*
X119030238Y-145057142D02*
X118982619Y-144914285D01*
X118982619Y-144914285D02*
X118982619Y-144819047D01*
X118982619Y-144819047D02*
X119030238Y-144676190D01*
X119030238Y-144676190D02*
X119125476Y-144580952D01*
X119125476Y-144580952D02*
X119220714Y-144533333D01*
X119220714Y-144533333D02*
X119411190Y-144485714D01*
X119411190Y-144485714D02*
X119554047Y-144485714D01*
X119554047Y-144485714D02*
X119744523Y-144533333D01*
X119744523Y-144533333D02*
X119839761Y-144580952D01*
X119839761Y-144580952D02*
X119935000Y-144676190D01*
X119935000Y-144676190D02*
X119982619Y-144819047D01*
X119982619Y-144819047D02*
X119982619Y-144914285D01*
X119982619Y-144914285D02*
X119935000Y-145057142D01*
X119935000Y-145057142D02*
X119887380Y-145104761D01*
X118982619Y-146009523D02*
X118982619Y-145533333D01*
X118982619Y-145533333D02*
X119982619Y-145533333D01*
X118982619Y-146342857D02*
X119982619Y-146342857D01*
X118982619Y-146914285D02*
X119554047Y-146485714D01*
X119982619Y-146914285D02*
X119411190Y-146342857D01*
X121735000Y-115714285D02*
X121782619Y-115619047D01*
X121782619Y-115619047D02*
X121782619Y-115476190D01*
X121782619Y-115476190D02*
X121735000Y-115333333D01*
X121735000Y-115333333D02*
X121639761Y-115238095D01*
X121639761Y-115238095D02*
X121544523Y-115190476D01*
X121544523Y-115190476D02*
X121354047Y-115142857D01*
X121354047Y-115142857D02*
X121211190Y-115142857D01*
X121211190Y-115142857D02*
X121020714Y-115190476D01*
X121020714Y-115190476D02*
X120925476Y-115238095D01*
X120925476Y-115238095D02*
X120830238Y-115333333D01*
X120830238Y-115333333D02*
X120782619Y-115476190D01*
X120782619Y-115476190D02*
X120782619Y-115571428D01*
X120782619Y-115571428D02*
X120830238Y-115714285D01*
X120830238Y-115714285D02*
X120877857Y-115761904D01*
X120877857Y-115761904D02*
X121211190Y-115761904D01*
X121211190Y-115761904D02*
X121211190Y-115571428D01*
X120782619Y-116190476D02*
X121782619Y-116190476D01*
X121782619Y-116190476D02*
X120782619Y-116761904D01*
X120782619Y-116761904D02*
X121782619Y-116761904D01*
X120782619Y-117238095D02*
X121782619Y-117238095D01*
X121782619Y-117238095D02*
X121782619Y-117476190D01*
X121782619Y-117476190D02*
X121735000Y-117619047D01*
X121735000Y-117619047D02*
X121639761Y-117714285D01*
X121639761Y-117714285D02*
X121544523Y-117761904D01*
X121544523Y-117761904D02*
X121354047Y-117809523D01*
X121354047Y-117809523D02*
X121211190Y-117809523D01*
X121211190Y-117809523D02*
X121020714Y-117761904D01*
X121020714Y-117761904D02*
X120925476Y-117714285D01*
X120925476Y-117714285D02*
X120830238Y-117619047D01*
X120830238Y-117619047D02*
X120782619Y-117476190D01*
X120782619Y-117476190D02*
X120782619Y-117238095D01*
X120982619Y-138485714D02*
X120982619Y-137914286D01*
X120982619Y-138200000D02*
X121982619Y-138200000D01*
X121982619Y-138200000D02*
X121839761Y-138104762D01*
X121839761Y-138104762D02*
X121744523Y-138009524D01*
X121744523Y-138009524D02*
X121696904Y-137914286D01*
X119782619Y-121190476D02*
X119782619Y-121000000D01*
X119782619Y-121000000D02*
X119735000Y-120904762D01*
X119735000Y-120904762D02*
X119687380Y-120857143D01*
X119687380Y-120857143D02*
X119544523Y-120761905D01*
X119544523Y-120761905D02*
X119354047Y-120714286D01*
X119354047Y-120714286D02*
X118973095Y-120714286D01*
X118973095Y-120714286D02*
X118877857Y-120761905D01*
X118877857Y-120761905D02*
X118830238Y-120809524D01*
X118830238Y-120809524D02*
X118782619Y-120904762D01*
X118782619Y-120904762D02*
X118782619Y-121095238D01*
X118782619Y-121095238D02*
X118830238Y-121190476D01*
X118830238Y-121190476D02*
X118877857Y-121238095D01*
X118877857Y-121238095D02*
X118973095Y-121285714D01*
X118973095Y-121285714D02*
X119211190Y-121285714D01*
X119211190Y-121285714D02*
X119306428Y-121238095D01*
X119306428Y-121238095D02*
X119354047Y-121190476D01*
X119354047Y-121190476D02*
X119401666Y-121095238D01*
X119401666Y-121095238D02*
X119401666Y-120904762D01*
X119401666Y-120904762D02*
X119354047Y-120809524D01*
X119354047Y-120809524D02*
X119306428Y-120761905D01*
X119306428Y-120761905D02*
X119211190Y-120714286D01*
X115449285Y-122238095D02*
X114782619Y-122238095D01*
X115354047Y-122238095D02*
X115401666Y-122285714D01*
X115401666Y-122285714D02*
X115449285Y-122380952D01*
X115449285Y-122380952D02*
X115449285Y-122523809D01*
X115449285Y-122523809D02*
X115401666Y-122619047D01*
X115401666Y-122619047D02*
X115306428Y-122666666D01*
X115306428Y-122666666D02*
X114782619Y-122666666D01*
X114782619Y-123714285D02*
X115258809Y-123380952D01*
X114782619Y-123142857D02*
X115782619Y-123142857D01*
X115782619Y-123142857D02*
X115782619Y-123523809D01*
X115782619Y-123523809D02*
X115735000Y-123619047D01*
X115735000Y-123619047D02*
X115687380Y-123666666D01*
X115687380Y-123666666D02*
X115592142Y-123714285D01*
X115592142Y-123714285D02*
X115449285Y-123714285D01*
X115449285Y-123714285D02*
X115354047Y-123666666D01*
X115354047Y-123666666D02*
X115306428Y-123619047D01*
X115306428Y-123619047D02*
X115258809Y-123523809D01*
X115258809Y-123523809D02*
X115258809Y-123142857D01*
X114830238Y-124095238D02*
X114782619Y-124238095D01*
X114782619Y-124238095D02*
X114782619Y-124476190D01*
X114782619Y-124476190D02*
X114830238Y-124571428D01*
X114830238Y-124571428D02*
X114877857Y-124619047D01*
X114877857Y-124619047D02*
X114973095Y-124666666D01*
X114973095Y-124666666D02*
X115068333Y-124666666D01*
X115068333Y-124666666D02*
X115163571Y-124619047D01*
X115163571Y-124619047D02*
X115211190Y-124571428D01*
X115211190Y-124571428D02*
X115258809Y-124476190D01*
X115258809Y-124476190D02*
X115306428Y-124285714D01*
X115306428Y-124285714D02*
X115354047Y-124190476D01*
X115354047Y-124190476D02*
X115401666Y-124142857D01*
X115401666Y-124142857D02*
X115496904Y-124095238D01*
X115496904Y-124095238D02*
X115592142Y-124095238D01*
X115592142Y-124095238D02*
X115687380Y-124142857D01*
X115687380Y-124142857D02*
X115735000Y-124190476D01*
X115735000Y-124190476D02*
X115782619Y-124285714D01*
X115782619Y-124285714D02*
X115782619Y-124523809D01*
X115782619Y-124523809D02*
X115735000Y-124666666D01*
X115782619Y-124952381D02*
X115782619Y-125523809D01*
X114782619Y-125238095D02*
X115782619Y-125238095D01*
X114782619Y-120809523D02*
X114782619Y-120238095D01*
X114782619Y-120523809D02*
X115782619Y-120523809D01*
X115782619Y-120523809D02*
X115639761Y-120428571D01*
X115639761Y-120428571D02*
X115544523Y-120333333D01*
X115544523Y-120333333D02*
X115496904Y-120238095D01*
X115782619Y-121428571D02*
X115782619Y-121523809D01*
X115782619Y-121523809D02*
X115735000Y-121619047D01*
X115735000Y-121619047D02*
X115687380Y-121666666D01*
X115687380Y-121666666D02*
X115592142Y-121714285D01*
X115592142Y-121714285D02*
X115401666Y-121761904D01*
X115401666Y-121761904D02*
X115163571Y-121761904D01*
X115163571Y-121761904D02*
X114973095Y-121714285D01*
X114973095Y-121714285D02*
X114877857Y-121666666D01*
X114877857Y-121666666D02*
X114830238Y-121619047D01*
X114830238Y-121619047D02*
X114782619Y-121523809D01*
X114782619Y-121523809D02*
X114782619Y-121428571D01*
X114782619Y-121428571D02*
X114830238Y-121333333D01*
X114830238Y-121333333D02*
X114877857Y-121285714D01*
X114877857Y-121285714D02*
X114973095Y-121238095D01*
X114973095Y-121238095D02*
X115163571Y-121190476D01*
X115163571Y-121190476D02*
X115401666Y-121190476D01*
X115401666Y-121190476D02*
X115592142Y-121238095D01*
X115592142Y-121238095D02*
X115687380Y-121285714D01*
X115687380Y-121285714D02*
X115735000Y-121333333D01*
X115735000Y-121333333D02*
X115782619Y-121428571D01*
X121030238Y-141390476D02*
X120982619Y-141533333D01*
X120982619Y-141533333D02*
X120982619Y-141771428D01*
X120982619Y-141771428D02*
X121030238Y-141866666D01*
X121030238Y-141866666D02*
X121077857Y-141914285D01*
X121077857Y-141914285D02*
X121173095Y-141961904D01*
X121173095Y-141961904D02*
X121268333Y-141961904D01*
X121268333Y-141961904D02*
X121363571Y-141914285D01*
X121363571Y-141914285D02*
X121411190Y-141866666D01*
X121411190Y-141866666D02*
X121458809Y-141771428D01*
X121458809Y-141771428D02*
X121506428Y-141580952D01*
X121506428Y-141580952D02*
X121554047Y-141485714D01*
X121554047Y-141485714D02*
X121601666Y-141438095D01*
X121601666Y-141438095D02*
X121696904Y-141390476D01*
X121696904Y-141390476D02*
X121792142Y-141390476D01*
X121792142Y-141390476D02*
X121887380Y-141438095D01*
X121887380Y-141438095D02*
X121935000Y-141485714D01*
X121935000Y-141485714D02*
X121982619Y-141580952D01*
X121982619Y-141580952D02*
X121982619Y-141819047D01*
X121982619Y-141819047D02*
X121935000Y-141961904D01*
X121982619Y-142295238D02*
X120982619Y-142533333D01*
X120982619Y-142533333D02*
X121696904Y-142723809D01*
X121696904Y-142723809D02*
X120982619Y-142914285D01*
X120982619Y-142914285D02*
X121982619Y-143152381D01*
X120982619Y-143533333D02*
X121982619Y-143533333D01*
X121982619Y-143533333D02*
X121982619Y-143771428D01*
X121982619Y-143771428D02*
X121935000Y-143914285D01*
X121935000Y-143914285D02*
X121839761Y-144009523D01*
X121839761Y-144009523D02*
X121744523Y-144057142D01*
X121744523Y-144057142D02*
X121554047Y-144104761D01*
X121554047Y-144104761D02*
X121411190Y-144104761D01*
X121411190Y-144104761D02*
X121220714Y-144057142D01*
X121220714Y-144057142D02*
X121125476Y-144009523D01*
X121125476Y-144009523D02*
X121030238Y-143914285D01*
X121030238Y-143914285D02*
X120982619Y-143771428D01*
X120982619Y-143771428D02*
X120982619Y-143533333D01*
X120982619Y-144533333D02*
X121982619Y-144533333D01*
X121982619Y-145199999D02*
X121982619Y-145390475D01*
X121982619Y-145390475D02*
X121935000Y-145485713D01*
X121935000Y-145485713D02*
X121839761Y-145580951D01*
X121839761Y-145580951D02*
X121649285Y-145628570D01*
X121649285Y-145628570D02*
X121315952Y-145628570D01*
X121315952Y-145628570D02*
X121125476Y-145580951D01*
X121125476Y-145580951D02*
X121030238Y-145485713D01*
X121030238Y-145485713D02*
X120982619Y-145390475D01*
X120982619Y-145390475D02*
X120982619Y-145199999D01*
X120982619Y-145199999D02*
X121030238Y-145104761D01*
X121030238Y-145104761D02*
X121125476Y-145009523D01*
X121125476Y-145009523D02*
X121315952Y-144961904D01*
X121315952Y-144961904D02*
X121649285Y-144961904D01*
X121649285Y-144961904D02*
X121839761Y-145009523D01*
X121839761Y-145009523D02*
X121935000Y-145104761D01*
X121935000Y-145104761D02*
X121982619Y-145199999D01*
X121449285Y-121190476D02*
X120782619Y-121190476D01*
X121830238Y-120952381D02*
X121115952Y-120714286D01*
X121115952Y-120714286D02*
X121115952Y-121333333D01*
X121782619Y-118666667D02*
X121782619Y-119285714D01*
X121782619Y-119285714D02*
X121401666Y-118952381D01*
X121401666Y-118952381D02*
X121401666Y-119095238D01*
X121401666Y-119095238D02*
X121354047Y-119190476D01*
X121354047Y-119190476D02*
X121306428Y-119238095D01*
X121306428Y-119238095D02*
X121211190Y-119285714D01*
X121211190Y-119285714D02*
X120973095Y-119285714D01*
X120973095Y-119285714D02*
X120877857Y-119238095D01*
X120877857Y-119238095D02*
X120830238Y-119190476D01*
X120830238Y-119190476D02*
X120782619Y-119095238D01*
X120782619Y-119095238D02*
X120782619Y-118809524D01*
X120782619Y-118809524D02*
X120830238Y-118714286D01*
X120830238Y-118714286D02*
X120877857Y-118666667D01*
X115735000Y-115714285D02*
X115782619Y-115619047D01*
X115782619Y-115619047D02*
X115782619Y-115476190D01*
X115782619Y-115476190D02*
X115735000Y-115333333D01*
X115735000Y-115333333D02*
X115639761Y-115238095D01*
X115639761Y-115238095D02*
X115544523Y-115190476D01*
X115544523Y-115190476D02*
X115354047Y-115142857D01*
X115354047Y-115142857D02*
X115211190Y-115142857D01*
X115211190Y-115142857D02*
X115020714Y-115190476D01*
X115020714Y-115190476D02*
X114925476Y-115238095D01*
X114925476Y-115238095D02*
X114830238Y-115333333D01*
X114830238Y-115333333D02*
X114782619Y-115476190D01*
X114782619Y-115476190D02*
X114782619Y-115571428D01*
X114782619Y-115571428D02*
X114830238Y-115714285D01*
X114830238Y-115714285D02*
X114877857Y-115761904D01*
X114877857Y-115761904D02*
X115211190Y-115761904D01*
X115211190Y-115761904D02*
X115211190Y-115571428D01*
X114782619Y-116190476D02*
X115782619Y-116190476D01*
X115782619Y-116190476D02*
X114782619Y-116761904D01*
X114782619Y-116761904D02*
X115782619Y-116761904D01*
X114782619Y-117238095D02*
X115782619Y-117238095D01*
X115782619Y-117238095D02*
X115782619Y-117476190D01*
X115782619Y-117476190D02*
X115735000Y-117619047D01*
X115735000Y-117619047D02*
X115639761Y-117714285D01*
X115639761Y-117714285D02*
X115544523Y-117761904D01*
X115544523Y-117761904D02*
X115354047Y-117809523D01*
X115354047Y-117809523D02*
X115211190Y-117809523D01*
X115211190Y-117809523D02*
X115020714Y-117761904D01*
X115020714Y-117761904D02*
X114925476Y-117714285D01*
X114925476Y-117714285D02*
X114830238Y-117619047D01*
X114830238Y-117619047D02*
X114782619Y-117476190D01*
X114782619Y-117476190D02*
X114782619Y-117238095D01*
X116782619Y-116190476D02*
X117782619Y-116190476D01*
X117782619Y-116190476D02*
X116782619Y-116761904D01*
X116782619Y-116761904D02*
X117782619Y-116761904D01*
X116877857Y-117809523D02*
X116830238Y-117761904D01*
X116830238Y-117761904D02*
X116782619Y-117619047D01*
X116782619Y-117619047D02*
X116782619Y-117523809D01*
X116782619Y-117523809D02*
X116830238Y-117380952D01*
X116830238Y-117380952D02*
X116925476Y-117285714D01*
X116925476Y-117285714D02*
X117020714Y-117238095D01*
X117020714Y-117238095D02*
X117211190Y-117190476D01*
X117211190Y-117190476D02*
X117354047Y-117190476D01*
X117354047Y-117190476D02*
X117544523Y-117238095D01*
X117544523Y-117238095D02*
X117639761Y-117285714D01*
X117639761Y-117285714D02*
X117735000Y-117380952D01*
X117735000Y-117380952D02*
X117782619Y-117523809D01*
X117782619Y-117523809D02*
X117782619Y-117619047D01*
X117782619Y-117619047D02*
X117735000Y-117761904D01*
X117735000Y-117761904D02*
X117687380Y-117809523D01*
X119782619Y-119238095D02*
X119782619Y-118761905D01*
X119782619Y-118761905D02*
X119306428Y-118714286D01*
X119306428Y-118714286D02*
X119354047Y-118761905D01*
X119354047Y-118761905D02*
X119401666Y-118857143D01*
X119401666Y-118857143D02*
X119401666Y-119095238D01*
X119401666Y-119095238D02*
X119354047Y-119190476D01*
X119354047Y-119190476D02*
X119306428Y-119238095D01*
X119306428Y-119238095D02*
X119211190Y-119285714D01*
X119211190Y-119285714D02*
X118973095Y-119285714D01*
X118973095Y-119285714D02*
X118877857Y-119238095D01*
X118877857Y-119238095D02*
X118830238Y-119190476D01*
X118830238Y-119190476D02*
X118782619Y-119095238D01*
X118782619Y-119095238D02*
X118782619Y-118857143D01*
X118782619Y-118857143D02*
X118830238Y-118761905D01*
X118830238Y-118761905D02*
X118877857Y-118714286D01*
X117935000Y-134914285D02*
X117982619Y-134819047D01*
X117982619Y-134819047D02*
X117982619Y-134676190D01*
X117982619Y-134676190D02*
X117935000Y-134533333D01*
X117935000Y-134533333D02*
X117839761Y-134438095D01*
X117839761Y-134438095D02*
X117744523Y-134390476D01*
X117744523Y-134390476D02*
X117554047Y-134342857D01*
X117554047Y-134342857D02*
X117411190Y-134342857D01*
X117411190Y-134342857D02*
X117220714Y-134390476D01*
X117220714Y-134390476D02*
X117125476Y-134438095D01*
X117125476Y-134438095D02*
X117030238Y-134533333D01*
X117030238Y-134533333D02*
X116982619Y-134676190D01*
X116982619Y-134676190D02*
X116982619Y-134771428D01*
X116982619Y-134771428D02*
X117030238Y-134914285D01*
X117030238Y-134914285D02*
X117077857Y-134961904D01*
X117077857Y-134961904D02*
X117411190Y-134961904D01*
X117411190Y-134961904D02*
X117411190Y-134771428D01*
X116982619Y-135390476D02*
X117982619Y-135390476D01*
X117982619Y-135390476D02*
X116982619Y-135961904D01*
X116982619Y-135961904D02*
X117982619Y-135961904D01*
X116982619Y-136438095D02*
X117982619Y-136438095D01*
X117982619Y-136438095D02*
X117982619Y-136676190D01*
X117982619Y-136676190D02*
X117935000Y-136819047D01*
X117935000Y-136819047D02*
X117839761Y-136914285D01*
X117839761Y-136914285D02*
X117744523Y-136961904D01*
X117744523Y-136961904D02*
X117554047Y-137009523D01*
X117554047Y-137009523D02*
X117411190Y-137009523D01*
X117411190Y-137009523D02*
X117220714Y-136961904D01*
X117220714Y-136961904D02*
X117125476Y-136914285D01*
X117125476Y-136914285D02*
X117030238Y-136819047D01*
X117030238Y-136819047D02*
X116982619Y-136676190D01*
X116982619Y-136676190D02*
X116982619Y-136438095D01*
X123687380Y-120714286D02*
X123735000Y-120761905D01*
X123735000Y-120761905D02*
X123782619Y-120857143D01*
X123782619Y-120857143D02*
X123782619Y-121095238D01*
X123782619Y-121095238D02*
X123735000Y-121190476D01*
X123735000Y-121190476D02*
X123687380Y-121238095D01*
X123687380Y-121238095D02*
X123592142Y-121285714D01*
X123592142Y-121285714D02*
X123496904Y-121285714D01*
X123496904Y-121285714D02*
X123354047Y-121238095D01*
X123354047Y-121238095D02*
X122782619Y-120666667D01*
X122782619Y-120666667D02*
X122782619Y-121285714D01*
X119649285Y-140390476D02*
X118982619Y-140390476D01*
X120030238Y-140152381D02*
X119315952Y-139914286D01*
X119315952Y-139914286D02*
X119315952Y-140533333D01*
D12*
X104180642Y-135557141D02*
X104823500Y-135557141D01*
X104823500Y-135557141D02*
X104952071Y-135599998D01*
X104952071Y-135599998D02*
X105037785Y-135685712D01*
X105037785Y-135685712D02*
X105080642Y-135814284D01*
X105080642Y-135814284D02*
X105080642Y-135899998D01*
X105080642Y-134699998D02*
X105080642Y-135128570D01*
X105080642Y-135128570D02*
X104180642Y-135128570D01*
X104994928Y-133885713D02*
X105037785Y-133928570D01*
X105037785Y-133928570D02*
X105080642Y-134057142D01*
X105080642Y-134057142D02*
X105080642Y-134142856D01*
X105080642Y-134142856D02*
X105037785Y-134271427D01*
X105037785Y-134271427D02*
X104952071Y-134357142D01*
X104952071Y-134357142D02*
X104866357Y-134399999D01*
X104866357Y-134399999D02*
X104694928Y-134442856D01*
X104694928Y-134442856D02*
X104566357Y-134442856D01*
X104566357Y-134442856D02*
X104394928Y-134399999D01*
X104394928Y-134399999D02*
X104309214Y-134357142D01*
X104309214Y-134357142D02*
X104223500Y-134271427D01*
X104223500Y-134271427D02*
X104180642Y-134142856D01*
X104180642Y-134142856D02*
X104180642Y-134057142D01*
X104180642Y-134057142D02*
X104223500Y-133928570D01*
X104223500Y-133928570D02*
X104266357Y-133885713D01*
X104180642Y-133242856D02*
X104823500Y-133242856D01*
X104823500Y-133242856D02*
X104952071Y-133285713D01*
X104952071Y-133285713D02*
X105037785Y-133371427D01*
X105037785Y-133371427D02*
X105080642Y-133499999D01*
X105080642Y-133499999D02*
X105080642Y-133585713D01*
X105080642Y-132385713D02*
X105080642Y-132814285D01*
X105080642Y-132814285D02*
X104180642Y-132814285D01*
X104994928Y-131571428D02*
X105037785Y-131614285D01*
X105037785Y-131614285D02*
X105080642Y-131742857D01*
X105080642Y-131742857D02*
X105080642Y-131828571D01*
X105080642Y-131828571D02*
X105037785Y-131957142D01*
X105037785Y-131957142D02*
X104952071Y-132042857D01*
X104952071Y-132042857D02*
X104866357Y-132085714D01*
X104866357Y-132085714D02*
X104694928Y-132128571D01*
X104694928Y-132128571D02*
X104566357Y-132128571D01*
X104566357Y-132128571D02*
X104394928Y-132085714D01*
X104394928Y-132085714D02*
X104309214Y-132042857D01*
X104309214Y-132042857D02*
X104223500Y-131957142D01*
X104223500Y-131957142D02*
X104180642Y-131828571D01*
X104180642Y-131828571D02*
X104180642Y-131742857D01*
X104180642Y-131742857D02*
X104223500Y-131614285D01*
X104223500Y-131614285D02*
X104266357Y-131571428D01*
X104180642Y-130928571D02*
X104823500Y-130928571D01*
X104823500Y-130928571D02*
X104952071Y-130971428D01*
X104952071Y-130971428D02*
X105037785Y-131057142D01*
X105037785Y-131057142D02*
X105080642Y-131185714D01*
X105080642Y-131185714D02*
X105080642Y-131271428D01*
X105080642Y-130071428D02*
X105080642Y-130500000D01*
X105080642Y-130500000D02*
X104180642Y-130500000D01*
X104994928Y-129257143D02*
X105037785Y-129300000D01*
X105037785Y-129300000D02*
X105080642Y-129428572D01*
X105080642Y-129428572D02*
X105080642Y-129514286D01*
X105080642Y-129514286D02*
X105037785Y-129642857D01*
X105037785Y-129642857D02*
X104952071Y-129728572D01*
X104952071Y-129728572D02*
X104866357Y-129771429D01*
X104866357Y-129771429D02*
X104694928Y-129814286D01*
X104694928Y-129814286D02*
X104566357Y-129814286D01*
X104566357Y-129814286D02*
X104394928Y-129771429D01*
X104394928Y-129771429D02*
X104309214Y-129728572D01*
X104309214Y-129728572D02*
X104223500Y-129642857D01*
X104223500Y-129642857D02*
X104180642Y-129514286D01*
X104180642Y-129514286D02*
X104180642Y-129428572D01*
X104180642Y-129428572D02*
X104223500Y-129300000D01*
X104223500Y-129300000D02*
X104266357Y-129257143D01*
X104180642Y-128614286D02*
X104823500Y-128614286D01*
X104823500Y-128614286D02*
X104952071Y-128657143D01*
X104952071Y-128657143D02*
X105037785Y-128742857D01*
X105037785Y-128742857D02*
X105080642Y-128871429D01*
X105080642Y-128871429D02*
X105080642Y-128957143D01*
X105080642Y-127757143D02*
X105080642Y-128185715D01*
X105080642Y-128185715D02*
X104180642Y-128185715D01*
X104994928Y-126942858D02*
X105037785Y-126985715D01*
X105037785Y-126985715D02*
X105080642Y-127114287D01*
X105080642Y-127114287D02*
X105080642Y-127200001D01*
X105080642Y-127200001D02*
X105037785Y-127328572D01*
X105037785Y-127328572D02*
X104952071Y-127414287D01*
X104952071Y-127414287D02*
X104866357Y-127457144D01*
X104866357Y-127457144D02*
X104694928Y-127500001D01*
X104694928Y-127500001D02*
X104566357Y-127500001D01*
X104566357Y-127500001D02*
X104394928Y-127457144D01*
X104394928Y-127457144D02*
X104309214Y-127414287D01*
X104309214Y-127414287D02*
X104223500Y-127328572D01*
X104223500Y-127328572D02*
X104180642Y-127200001D01*
X104180642Y-127200001D02*
X104180642Y-127114287D01*
X104180642Y-127114287D02*
X104223500Y-126985715D01*
X104223500Y-126985715D02*
X104266357Y-126942858D01*
D10*
X121982619Y-133676190D02*
X120982619Y-134009523D01*
X120982619Y-134009523D02*
X121982619Y-134342856D01*
X120982619Y-135247618D02*
X121458809Y-134914285D01*
X120982619Y-134676190D02*
X121982619Y-134676190D01*
X121982619Y-134676190D02*
X121982619Y-135057142D01*
X121982619Y-135057142D02*
X121935000Y-135152380D01*
X121935000Y-135152380D02*
X121887380Y-135199999D01*
X121887380Y-135199999D02*
X121792142Y-135247618D01*
X121792142Y-135247618D02*
X121649285Y-135247618D01*
X121649285Y-135247618D02*
X121554047Y-135199999D01*
X121554047Y-135199999D02*
X121506428Y-135152380D01*
X121506428Y-135152380D02*
X121458809Y-135057142D01*
X121458809Y-135057142D02*
X121458809Y-134676190D01*
X121506428Y-135676190D02*
X121506428Y-136009523D01*
X120982619Y-136152380D02*
X120982619Y-135676190D01*
X120982619Y-135676190D02*
X121982619Y-135676190D01*
X121982619Y-135676190D02*
X121982619Y-136152380D01*
X121506428Y-136914285D02*
X121506428Y-136580952D01*
X120982619Y-136580952D02*
X121982619Y-136580952D01*
X121982619Y-136580952D02*
X121982619Y-137057142D01*
X123782619Y-122095238D02*
X123782619Y-122666666D01*
X122782619Y-122380952D02*
X123782619Y-122380952D01*
X122782619Y-123000000D02*
X123782619Y-123000000D01*
X123782619Y-123000000D02*
X123068333Y-123333333D01*
X123068333Y-123333333D02*
X123782619Y-123666666D01*
X123782619Y-123666666D02*
X122782619Y-123666666D01*
X122830238Y-124095238D02*
X122782619Y-124238095D01*
X122782619Y-124238095D02*
X122782619Y-124476190D01*
X122782619Y-124476190D02*
X122830238Y-124571428D01*
X122830238Y-124571428D02*
X122877857Y-124619047D01*
X122877857Y-124619047D02*
X122973095Y-124666666D01*
X122973095Y-124666666D02*
X123068333Y-124666666D01*
X123068333Y-124666666D02*
X123163571Y-124619047D01*
X123163571Y-124619047D02*
X123211190Y-124571428D01*
X123211190Y-124571428D02*
X123258809Y-124476190D01*
X123258809Y-124476190D02*
X123306428Y-124285714D01*
X123306428Y-124285714D02*
X123354047Y-124190476D01*
X123354047Y-124190476D02*
X123401666Y-124142857D01*
X123401666Y-124142857D02*
X123496904Y-124095238D01*
X123496904Y-124095238D02*
X123592142Y-124095238D01*
X123592142Y-124095238D02*
X123687380Y-124142857D01*
X123687380Y-124142857D02*
X123735000Y-124190476D01*
X123735000Y-124190476D02*
X123782619Y-124285714D01*
X123782619Y-124285714D02*
X123782619Y-124523809D01*
X123782619Y-124523809D02*
X123735000Y-124666666D01*
X123830238Y-125809523D02*
X122544523Y-124952381D01*
X122830238Y-126095238D02*
X122782619Y-126238095D01*
X122782619Y-126238095D02*
X122782619Y-126476190D01*
X122782619Y-126476190D02*
X122830238Y-126571428D01*
X122830238Y-126571428D02*
X122877857Y-126619047D01*
X122877857Y-126619047D02*
X122973095Y-126666666D01*
X122973095Y-126666666D02*
X123068333Y-126666666D01*
X123068333Y-126666666D02*
X123163571Y-126619047D01*
X123163571Y-126619047D02*
X123211190Y-126571428D01*
X123211190Y-126571428D02*
X123258809Y-126476190D01*
X123258809Y-126476190D02*
X123306428Y-126285714D01*
X123306428Y-126285714D02*
X123354047Y-126190476D01*
X123354047Y-126190476D02*
X123401666Y-126142857D01*
X123401666Y-126142857D02*
X123496904Y-126095238D01*
X123496904Y-126095238D02*
X123592142Y-126095238D01*
X123592142Y-126095238D02*
X123687380Y-126142857D01*
X123687380Y-126142857D02*
X123735000Y-126190476D01*
X123735000Y-126190476D02*
X123782619Y-126285714D01*
X123782619Y-126285714D02*
X123782619Y-126523809D01*
X123782619Y-126523809D02*
X123735000Y-126666666D01*
X123782619Y-127000000D02*
X122782619Y-127238095D01*
X122782619Y-127238095D02*
X123496904Y-127428571D01*
X123496904Y-127428571D02*
X122782619Y-127619047D01*
X122782619Y-127619047D02*
X123782619Y-127857143D01*
X122782619Y-128238095D02*
X123782619Y-128238095D01*
X123782619Y-128238095D02*
X123782619Y-128476190D01*
X123782619Y-128476190D02*
X123735000Y-128619047D01*
X123735000Y-128619047D02*
X123639761Y-128714285D01*
X123639761Y-128714285D02*
X123544523Y-128761904D01*
X123544523Y-128761904D02*
X123354047Y-128809523D01*
X123354047Y-128809523D02*
X123211190Y-128809523D01*
X123211190Y-128809523D02*
X123020714Y-128761904D01*
X123020714Y-128761904D02*
X122925476Y-128714285D01*
X122925476Y-128714285D02*
X122830238Y-128619047D01*
X122830238Y-128619047D02*
X122782619Y-128476190D01*
X122782619Y-128476190D02*
X122782619Y-128238095D01*
X122782619Y-129238095D02*
X123782619Y-129238095D01*
X123782619Y-129904761D02*
X123782619Y-130095237D01*
X123782619Y-130095237D02*
X123735000Y-130190475D01*
X123735000Y-130190475D02*
X123639761Y-130285713D01*
X123639761Y-130285713D02*
X123449285Y-130333332D01*
X123449285Y-130333332D02*
X123115952Y-130333332D01*
X123115952Y-130333332D02*
X122925476Y-130285713D01*
X122925476Y-130285713D02*
X122830238Y-130190475D01*
X122830238Y-130190475D02*
X122782619Y-130095237D01*
X122782619Y-130095237D02*
X122782619Y-129904761D01*
X122782619Y-129904761D02*
X122830238Y-129809523D01*
X122830238Y-129809523D02*
X122925476Y-129714285D01*
X122925476Y-129714285D02*
X123115952Y-129666666D01*
X123115952Y-129666666D02*
X123449285Y-129666666D01*
X123449285Y-129666666D02*
X123639761Y-129714285D01*
X123639761Y-129714285D02*
X123735000Y-129809523D01*
X123735000Y-129809523D02*
X123782619Y-129904761D01*
X119649285Y-133819047D02*
X118982619Y-133819047D01*
X119554047Y-133819047D02*
X119601666Y-133866666D01*
X119601666Y-133866666D02*
X119649285Y-133961904D01*
X119649285Y-133961904D02*
X119649285Y-134104761D01*
X119649285Y-134104761D02*
X119601666Y-134199999D01*
X119601666Y-134199999D02*
X119506428Y-134247618D01*
X119506428Y-134247618D02*
X118982619Y-134247618D01*
X118982619Y-135295237D02*
X119458809Y-134961904D01*
X118982619Y-134723809D02*
X119982619Y-134723809D01*
X119982619Y-134723809D02*
X119982619Y-135104761D01*
X119982619Y-135104761D02*
X119935000Y-135199999D01*
X119935000Y-135199999D02*
X119887380Y-135247618D01*
X119887380Y-135247618D02*
X119792142Y-135295237D01*
X119792142Y-135295237D02*
X119649285Y-135295237D01*
X119649285Y-135295237D02*
X119554047Y-135247618D01*
X119554047Y-135247618D02*
X119506428Y-135199999D01*
X119506428Y-135199999D02*
X119458809Y-135104761D01*
X119458809Y-135104761D02*
X119458809Y-134723809D01*
X119030238Y-135676190D02*
X118982619Y-135819047D01*
X118982619Y-135819047D02*
X118982619Y-136057142D01*
X118982619Y-136057142D02*
X119030238Y-136152380D01*
X119030238Y-136152380D02*
X119077857Y-136199999D01*
X119077857Y-136199999D02*
X119173095Y-136247618D01*
X119173095Y-136247618D02*
X119268333Y-136247618D01*
X119268333Y-136247618D02*
X119363571Y-136199999D01*
X119363571Y-136199999D02*
X119411190Y-136152380D01*
X119411190Y-136152380D02*
X119458809Y-136057142D01*
X119458809Y-136057142D02*
X119506428Y-135866666D01*
X119506428Y-135866666D02*
X119554047Y-135771428D01*
X119554047Y-135771428D02*
X119601666Y-135723809D01*
X119601666Y-135723809D02*
X119696904Y-135676190D01*
X119696904Y-135676190D02*
X119792142Y-135676190D01*
X119792142Y-135676190D02*
X119887380Y-135723809D01*
X119887380Y-135723809D02*
X119935000Y-135771428D01*
X119935000Y-135771428D02*
X119982619Y-135866666D01*
X119982619Y-135866666D02*
X119982619Y-136104761D01*
X119982619Y-136104761D02*
X119935000Y-136247618D01*
X119982619Y-136533333D02*
X119982619Y-137104761D01*
X118982619Y-136819047D02*
X119982619Y-136819047D01*
X122782619Y-119285714D02*
X122782619Y-118714286D01*
X122782619Y-119000000D02*
X123782619Y-119000000D01*
X123782619Y-119000000D02*
X123639761Y-118904762D01*
X123639761Y-118904762D02*
X123544523Y-118809524D01*
X123544523Y-118809524D02*
X123496904Y-118714286D01*
X117354047Y-120904762D02*
X117401666Y-120809524D01*
X117401666Y-120809524D02*
X117449285Y-120761905D01*
X117449285Y-120761905D02*
X117544523Y-120714286D01*
X117544523Y-120714286D02*
X117592142Y-120714286D01*
X117592142Y-120714286D02*
X117687380Y-120761905D01*
X117687380Y-120761905D02*
X117735000Y-120809524D01*
X117735000Y-120809524D02*
X117782619Y-120904762D01*
X117782619Y-120904762D02*
X117782619Y-121095238D01*
X117782619Y-121095238D02*
X117735000Y-121190476D01*
X117735000Y-121190476D02*
X117687380Y-121238095D01*
X117687380Y-121238095D02*
X117592142Y-121285714D01*
X117592142Y-121285714D02*
X117544523Y-121285714D01*
X117544523Y-121285714D02*
X117449285Y-121238095D01*
X117449285Y-121238095D02*
X117401666Y-121190476D01*
X117401666Y-121190476D02*
X117354047Y-121095238D01*
X117354047Y-121095238D02*
X117354047Y-120904762D01*
X117354047Y-120904762D02*
X117306428Y-120809524D01*
X117306428Y-120809524D02*
X117258809Y-120761905D01*
X117258809Y-120761905D02*
X117163571Y-120714286D01*
X117163571Y-120714286D02*
X116973095Y-120714286D01*
X116973095Y-120714286D02*
X116877857Y-120761905D01*
X116877857Y-120761905D02*
X116830238Y-120809524D01*
X116830238Y-120809524D02*
X116782619Y-120904762D01*
X116782619Y-120904762D02*
X116782619Y-121095238D01*
X116782619Y-121095238D02*
X116830238Y-121190476D01*
X116830238Y-121190476D02*
X116877857Y-121238095D01*
X116877857Y-121238095D02*
X116973095Y-121285714D01*
X116973095Y-121285714D02*
X117163571Y-121285714D01*
X117163571Y-121285714D02*
X117258809Y-121238095D01*
X117258809Y-121238095D02*
X117306428Y-121190476D01*
X117306428Y-121190476D02*
X117354047Y-121095238D01*
X119782619Y-122095238D02*
X119782619Y-122666666D01*
X118782619Y-122380952D02*
X119782619Y-122380952D01*
X118782619Y-123000000D02*
X119782619Y-123000000D01*
X119782619Y-123000000D02*
X119782619Y-123238095D01*
X119782619Y-123238095D02*
X119735000Y-123380952D01*
X119735000Y-123380952D02*
X119639761Y-123476190D01*
X119639761Y-123476190D02*
X119544523Y-123523809D01*
X119544523Y-123523809D02*
X119354047Y-123571428D01*
X119354047Y-123571428D02*
X119211190Y-123571428D01*
X119211190Y-123571428D02*
X119020714Y-123523809D01*
X119020714Y-123523809D02*
X118925476Y-123476190D01*
X118925476Y-123476190D02*
X118830238Y-123380952D01*
X118830238Y-123380952D02*
X118782619Y-123238095D01*
X118782619Y-123238095D02*
X118782619Y-123000000D01*
X119782619Y-124190476D02*
X119782619Y-124380952D01*
X119782619Y-124380952D02*
X119735000Y-124476190D01*
X119735000Y-124476190D02*
X119639761Y-124571428D01*
X119639761Y-124571428D02*
X119449285Y-124619047D01*
X119449285Y-124619047D02*
X119115952Y-124619047D01*
X119115952Y-124619047D02*
X118925476Y-124571428D01*
X118925476Y-124571428D02*
X118830238Y-124476190D01*
X118830238Y-124476190D02*
X118782619Y-124380952D01*
X118782619Y-124380952D02*
X118782619Y-124190476D01*
X118782619Y-124190476D02*
X118830238Y-124095238D01*
X118830238Y-124095238D02*
X118925476Y-124000000D01*
X118925476Y-124000000D02*
X119115952Y-123952381D01*
X119115952Y-123952381D02*
X119449285Y-123952381D01*
X119449285Y-123952381D02*
X119639761Y-124000000D01*
X119639761Y-124000000D02*
X119735000Y-124095238D01*
X119735000Y-124095238D02*
X119782619Y-124190476D01*
X119830238Y-125761904D02*
X118544523Y-124904762D01*
X118830238Y-126047619D02*
X118782619Y-126190476D01*
X118782619Y-126190476D02*
X118782619Y-126428571D01*
X118782619Y-126428571D02*
X118830238Y-126523809D01*
X118830238Y-126523809D02*
X118877857Y-126571428D01*
X118877857Y-126571428D02*
X118973095Y-126619047D01*
X118973095Y-126619047D02*
X119068333Y-126619047D01*
X119068333Y-126619047D02*
X119163571Y-126571428D01*
X119163571Y-126571428D02*
X119211190Y-126523809D01*
X119211190Y-126523809D02*
X119258809Y-126428571D01*
X119258809Y-126428571D02*
X119306428Y-126238095D01*
X119306428Y-126238095D02*
X119354047Y-126142857D01*
X119354047Y-126142857D02*
X119401666Y-126095238D01*
X119401666Y-126095238D02*
X119496904Y-126047619D01*
X119496904Y-126047619D02*
X119592142Y-126047619D01*
X119592142Y-126047619D02*
X119687380Y-126095238D01*
X119687380Y-126095238D02*
X119735000Y-126142857D01*
X119735000Y-126142857D02*
X119782619Y-126238095D01*
X119782619Y-126238095D02*
X119782619Y-126476190D01*
X119782619Y-126476190D02*
X119735000Y-126619047D01*
X119782619Y-126952381D02*
X118782619Y-127190476D01*
X118782619Y-127190476D02*
X119496904Y-127380952D01*
X119496904Y-127380952D02*
X118782619Y-127571428D01*
X118782619Y-127571428D02*
X119782619Y-127809524D01*
X119782619Y-128380952D02*
X119782619Y-128571428D01*
X119782619Y-128571428D02*
X119735000Y-128666666D01*
X119735000Y-128666666D02*
X119639761Y-128761904D01*
X119639761Y-128761904D02*
X119449285Y-128809523D01*
X119449285Y-128809523D02*
X119115952Y-128809523D01*
X119115952Y-128809523D02*
X118925476Y-128761904D01*
X118925476Y-128761904D02*
X118830238Y-128666666D01*
X118830238Y-128666666D02*
X118782619Y-128571428D01*
X118782619Y-128571428D02*
X118782619Y-128380952D01*
X118782619Y-128380952D02*
X118830238Y-128285714D01*
X118830238Y-128285714D02*
X118925476Y-128190476D01*
X118925476Y-128190476D02*
X119115952Y-128142857D01*
X119115952Y-128142857D02*
X119449285Y-128142857D01*
X119449285Y-128142857D02*
X119639761Y-128190476D01*
X119639761Y-128190476D02*
X119735000Y-128285714D01*
X119735000Y-128285714D02*
X119782619Y-128380952D01*
X117982619Y-138438095D02*
X117982619Y-137961905D01*
X117982619Y-137961905D02*
X117506428Y-137914286D01*
X117506428Y-137914286D02*
X117554047Y-137961905D01*
X117554047Y-137961905D02*
X117601666Y-138057143D01*
X117601666Y-138057143D02*
X117601666Y-138295238D01*
X117601666Y-138295238D02*
X117554047Y-138390476D01*
X117554047Y-138390476D02*
X117506428Y-138438095D01*
X117506428Y-138438095D02*
X117411190Y-138485714D01*
X117411190Y-138485714D02*
X117173095Y-138485714D01*
X117173095Y-138485714D02*
X117077857Y-138438095D01*
X117077857Y-138438095D02*
X117030238Y-138390476D01*
X117030238Y-138390476D02*
X116982619Y-138295238D01*
X116982619Y-138295238D02*
X116982619Y-138057143D01*
X116982619Y-138057143D02*
X117030238Y-137961905D01*
X117030238Y-137961905D02*
X117077857Y-137914286D01*
X121782619Y-122095238D02*
X121782619Y-122666666D01*
X120782619Y-122380952D02*
X121782619Y-122380952D01*
X120877857Y-123571428D02*
X120830238Y-123523809D01*
X120830238Y-123523809D02*
X120782619Y-123380952D01*
X120782619Y-123380952D02*
X120782619Y-123285714D01*
X120782619Y-123285714D02*
X120830238Y-123142857D01*
X120830238Y-123142857D02*
X120925476Y-123047619D01*
X120925476Y-123047619D02*
X121020714Y-123000000D01*
X121020714Y-123000000D02*
X121211190Y-122952381D01*
X121211190Y-122952381D02*
X121354047Y-122952381D01*
X121354047Y-122952381D02*
X121544523Y-123000000D01*
X121544523Y-123000000D02*
X121639761Y-123047619D01*
X121639761Y-123047619D02*
X121735000Y-123142857D01*
X121735000Y-123142857D02*
X121782619Y-123285714D01*
X121782619Y-123285714D02*
X121782619Y-123380952D01*
X121782619Y-123380952D02*
X121735000Y-123523809D01*
X121735000Y-123523809D02*
X121687380Y-123571428D01*
X120782619Y-124000000D02*
X121782619Y-124000000D01*
X120782619Y-124571428D02*
X121354047Y-124142857D01*
X121782619Y-124571428D02*
X121211190Y-124000000D01*
X121830238Y-125714285D02*
X120544523Y-124857143D01*
X120830238Y-126000000D02*
X120782619Y-126142857D01*
X120782619Y-126142857D02*
X120782619Y-126380952D01*
X120782619Y-126380952D02*
X120830238Y-126476190D01*
X120830238Y-126476190D02*
X120877857Y-126523809D01*
X120877857Y-126523809D02*
X120973095Y-126571428D01*
X120973095Y-126571428D02*
X121068333Y-126571428D01*
X121068333Y-126571428D02*
X121163571Y-126523809D01*
X121163571Y-126523809D02*
X121211190Y-126476190D01*
X121211190Y-126476190D02*
X121258809Y-126380952D01*
X121258809Y-126380952D02*
X121306428Y-126190476D01*
X121306428Y-126190476D02*
X121354047Y-126095238D01*
X121354047Y-126095238D02*
X121401666Y-126047619D01*
X121401666Y-126047619D02*
X121496904Y-126000000D01*
X121496904Y-126000000D02*
X121592142Y-126000000D01*
X121592142Y-126000000D02*
X121687380Y-126047619D01*
X121687380Y-126047619D02*
X121735000Y-126095238D01*
X121735000Y-126095238D02*
X121782619Y-126190476D01*
X121782619Y-126190476D02*
X121782619Y-126428571D01*
X121782619Y-126428571D02*
X121735000Y-126571428D01*
X121782619Y-126904762D02*
X120782619Y-127142857D01*
X120782619Y-127142857D02*
X121496904Y-127333333D01*
X121496904Y-127333333D02*
X120782619Y-127523809D01*
X120782619Y-127523809D02*
X121782619Y-127761905D01*
X120782619Y-128142857D02*
X121782619Y-128142857D01*
X121782619Y-128142857D02*
X121782619Y-128380952D01*
X121782619Y-128380952D02*
X121735000Y-128523809D01*
X121735000Y-128523809D02*
X121639761Y-128619047D01*
X121639761Y-128619047D02*
X121544523Y-128666666D01*
X121544523Y-128666666D02*
X121354047Y-128714285D01*
X121354047Y-128714285D02*
X121211190Y-128714285D01*
X121211190Y-128714285D02*
X121020714Y-128666666D01*
X121020714Y-128666666D02*
X120925476Y-128619047D01*
X120925476Y-128619047D02*
X120830238Y-128523809D01*
X120830238Y-128523809D02*
X120782619Y-128380952D01*
X120782619Y-128380952D02*
X120782619Y-128142857D01*
X120877857Y-129714285D02*
X120830238Y-129666666D01*
X120830238Y-129666666D02*
X120782619Y-129523809D01*
X120782619Y-129523809D02*
X120782619Y-129428571D01*
X120782619Y-129428571D02*
X120830238Y-129285714D01*
X120830238Y-129285714D02*
X120925476Y-129190476D01*
X120925476Y-129190476D02*
X121020714Y-129142857D01*
X121020714Y-129142857D02*
X121211190Y-129095238D01*
X121211190Y-129095238D02*
X121354047Y-129095238D01*
X121354047Y-129095238D02*
X121544523Y-129142857D01*
X121544523Y-129142857D02*
X121639761Y-129190476D01*
X121639761Y-129190476D02*
X121735000Y-129285714D01*
X121735000Y-129285714D02*
X121782619Y-129428571D01*
X121782619Y-129428571D02*
X121782619Y-129523809D01*
X121782619Y-129523809D02*
X121735000Y-129666666D01*
X121735000Y-129666666D02*
X121687380Y-129714285D01*
X120782619Y-130619047D02*
X120782619Y-130142857D01*
X120782619Y-130142857D02*
X121782619Y-130142857D01*
X120782619Y-130952381D02*
X121782619Y-130952381D01*
X120782619Y-131523809D02*
X121354047Y-131095238D01*
X121782619Y-131523809D02*
X121211190Y-130952381D01*
X117782619Y-118666667D02*
X117782619Y-119333333D01*
X117782619Y-119333333D02*
X116782619Y-118904762D01*
X117030238Y-141390476D02*
X116982619Y-141533333D01*
X116982619Y-141533333D02*
X116982619Y-141771428D01*
X116982619Y-141771428D02*
X117030238Y-141866666D01*
X117030238Y-141866666D02*
X117077857Y-141914285D01*
X117077857Y-141914285D02*
X117173095Y-141961904D01*
X117173095Y-141961904D02*
X117268333Y-141961904D01*
X117268333Y-141961904D02*
X117363571Y-141914285D01*
X117363571Y-141914285D02*
X117411190Y-141866666D01*
X117411190Y-141866666D02*
X117458809Y-141771428D01*
X117458809Y-141771428D02*
X117506428Y-141580952D01*
X117506428Y-141580952D02*
X117554047Y-141485714D01*
X117554047Y-141485714D02*
X117601666Y-141438095D01*
X117601666Y-141438095D02*
X117696904Y-141390476D01*
X117696904Y-141390476D02*
X117792142Y-141390476D01*
X117792142Y-141390476D02*
X117887380Y-141438095D01*
X117887380Y-141438095D02*
X117935000Y-141485714D01*
X117935000Y-141485714D02*
X117982619Y-141580952D01*
X117982619Y-141580952D02*
X117982619Y-141819047D01*
X117982619Y-141819047D02*
X117935000Y-141961904D01*
X117982619Y-142295238D02*
X116982619Y-142533333D01*
X116982619Y-142533333D02*
X117696904Y-142723809D01*
X117696904Y-142723809D02*
X116982619Y-142914285D01*
X116982619Y-142914285D02*
X117982619Y-143152381D01*
X117982619Y-143723809D02*
X117982619Y-143914285D01*
X117982619Y-143914285D02*
X117935000Y-144009523D01*
X117935000Y-144009523D02*
X117839761Y-144104761D01*
X117839761Y-144104761D02*
X117649285Y-144152380D01*
X117649285Y-144152380D02*
X117315952Y-144152380D01*
X117315952Y-144152380D02*
X117125476Y-144104761D01*
X117125476Y-144104761D02*
X117030238Y-144009523D01*
X117030238Y-144009523D02*
X116982619Y-143914285D01*
X116982619Y-143914285D02*
X116982619Y-143723809D01*
X116982619Y-143723809D02*
X117030238Y-143628571D01*
X117030238Y-143628571D02*
X117125476Y-143533333D01*
X117125476Y-143533333D02*
X117315952Y-143485714D01*
X117315952Y-143485714D02*
X117649285Y-143485714D01*
X117649285Y-143485714D02*
X117839761Y-143533333D01*
X117839761Y-143533333D02*
X117935000Y-143628571D01*
X117935000Y-143628571D02*
X117982619Y-143723809D01*
X123782619Y-114476190D02*
X122782619Y-114809523D01*
X122782619Y-114809523D02*
X123782619Y-115142856D01*
X122782619Y-116047618D02*
X123258809Y-115714285D01*
X122782619Y-115476190D02*
X123782619Y-115476190D01*
X123782619Y-115476190D02*
X123782619Y-115857142D01*
X123782619Y-115857142D02*
X123735000Y-115952380D01*
X123735000Y-115952380D02*
X123687380Y-115999999D01*
X123687380Y-115999999D02*
X123592142Y-116047618D01*
X123592142Y-116047618D02*
X123449285Y-116047618D01*
X123449285Y-116047618D02*
X123354047Y-115999999D01*
X123354047Y-115999999D02*
X123306428Y-115952380D01*
X123306428Y-115952380D02*
X123258809Y-115857142D01*
X123258809Y-115857142D02*
X123258809Y-115476190D01*
X123306428Y-116476190D02*
X123306428Y-116809523D01*
X122782619Y-116952380D02*
X122782619Y-116476190D01*
X122782619Y-116476190D02*
X123782619Y-116476190D01*
X123782619Y-116476190D02*
X123782619Y-116952380D01*
X123306428Y-117714285D02*
X123306428Y-117380952D01*
X122782619Y-117380952D02*
X123782619Y-117380952D01*
X123782619Y-117380952D02*
X123782619Y-117857142D01*
X119735000Y-115714285D02*
X119782619Y-115619047D01*
X119782619Y-115619047D02*
X119782619Y-115476190D01*
X119782619Y-115476190D02*
X119735000Y-115333333D01*
X119735000Y-115333333D02*
X119639761Y-115238095D01*
X119639761Y-115238095D02*
X119544523Y-115190476D01*
X119544523Y-115190476D02*
X119354047Y-115142857D01*
X119354047Y-115142857D02*
X119211190Y-115142857D01*
X119211190Y-115142857D02*
X119020714Y-115190476D01*
X119020714Y-115190476D02*
X118925476Y-115238095D01*
X118925476Y-115238095D02*
X118830238Y-115333333D01*
X118830238Y-115333333D02*
X118782619Y-115476190D01*
X118782619Y-115476190D02*
X118782619Y-115571428D01*
X118782619Y-115571428D02*
X118830238Y-115714285D01*
X118830238Y-115714285D02*
X118877857Y-115761904D01*
X118877857Y-115761904D02*
X119211190Y-115761904D01*
X119211190Y-115761904D02*
X119211190Y-115571428D01*
X118782619Y-116190476D02*
X119782619Y-116190476D01*
X119782619Y-116190476D02*
X118782619Y-116761904D01*
X118782619Y-116761904D02*
X119782619Y-116761904D01*
X118782619Y-117238095D02*
X119782619Y-117238095D01*
X119782619Y-117238095D02*
X119782619Y-117476190D01*
X119782619Y-117476190D02*
X119735000Y-117619047D01*
X119735000Y-117619047D02*
X119639761Y-117714285D01*
X119639761Y-117714285D02*
X119544523Y-117761904D01*
X119544523Y-117761904D02*
X119354047Y-117809523D01*
X119354047Y-117809523D02*
X119211190Y-117809523D01*
X119211190Y-117809523D02*
X119020714Y-117761904D01*
X119020714Y-117761904D02*
X118925476Y-117714285D01*
X118925476Y-117714285D02*
X118830238Y-117619047D01*
X118830238Y-117619047D02*
X118782619Y-117476190D01*
X118782619Y-117476190D02*
X118782619Y-117238095D01*
X117782619Y-122095238D02*
X117782619Y-122666666D01*
X116782619Y-122380952D02*
X117782619Y-122380952D01*
X116782619Y-123000000D02*
X117782619Y-123000000D01*
X117782619Y-123000000D02*
X117782619Y-123238095D01*
X117782619Y-123238095D02*
X117735000Y-123380952D01*
X117735000Y-123380952D02*
X117639761Y-123476190D01*
X117639761Y-123476190D02*
X117544523Y-123523809D01*
X117544523Y-123523809D02*
X117354047Y-123571428D01*
X117354047Y-123571428D02*
X117211190Y-123571428D01*
X117211190Y-123571428D02*
X117020714Y-123523809D01*
X117020714Y-123523809D02*
X116925476Y-123476190D01*
X116925476Y-123476190D02*
X116830238Y-123380952D01*
X116830238Y-123380952D02*
X116782619Y-123238095D01*
X116782619Y-123238095D02*
X116782619Y-123000000D01*
X116782619Y-124000000D02*
X117782619Y-124000000D01*
X114782619Y-118809524D02*
X114782619Y-119000000D01*
X114782619Y-119000000D02*
X114830238Y-119095238D01*
X114830238Y-119095238D02*
X114877857Y-119142857D01*
X114877857Y-119142857D02*
X115020714Y-119238095D01*
X115020714Y-119238095D02*
X115211190Y-119285714D01*
X115211190Y-119285714D02*
X115592142Y-119285714D01*
X115592142Y-119285714D02*
X115687380Y-119238095D01*
X115687380Y-119238095D02*
X115735000Y-119190476D01*
X115735000Y-119190476D02*
X115782619Y-119095238D01*
X115782619Y-119095238D02*
X115782619Y-118904762D01*
X115782619Y-118904762D02*
X115735000Y-118809524D01*
X115735000Y-118809524D02*
X115687380Y-118761905D01*
X115687380Y-118761905D02*
X115592142Y-118714286D01*
X115592142Y-118714286D02*
X115354047Y-118714286D01*
X115354047Y-118714286D02*
X115258809Y-118761905D01*
X115258809Y-118761905D02*
X115211190Y-118809524D01*
X115211190Y-118809524D02*
X115163571Y-118904762D01*
X115163571Y-118904762D02*
X115163571Y-119095238D01*
X115163571Y-119095238D02*
X115211190Y-119190476D01*
X115211190Y-119190476D02*
X115258809Y-119238095D01*
X115258809Y-119238095D02*
X115354047Y-119285714D01*
X117982619Y-140390476D02*
X117982619Y-140200000D01*
X117982619Y-140200000D02*
X117935000Y-140104762D01*
X117935000Y-140104762D02*
X117887380Y-140057143D01*
X117887380Y-140057143D02*
X117744523Y-139961905D01*
X117744523Y-139961905D02*
X117554047Y-139914286D01*
X117554047Y-139914286D02*
X117173095Y-139914286D01*
X117173095Y-139914286D02*
X117077857Y-139961905D01*
X117077857Y-139961905D02*
X117030238Y-140009524D01*
X117030238Y-140009524D02*
X116982619Y-140104762D01*
X116982619Y-140104762D02*
X116982619Y-140295238D01*
X116982619Y-140295238D02*
X117030238Y-140390476D01*
X117030238Y-140390476D02*
X117077857Y-140438095D01*
X117077857Y-140438095D02*
X117173095Y-140485714D01*
X117173095Y-140485714D02*
X117411190Y-140485714D01*
X117411190Y-140485714D02*
X117506428Y-140438095D01*
X117506428Y-140438095D02*
X117554047Y-140390476D01*
X117554047Y-140390476D02*
X117601666Y-140295238D01*
X117601666Y-140295238D02*
X117601666Y-140104762D01*
X117601666Y-140104762D02*
X117554047Y-140009524D01*
X117554047Y-140009524D02*
X117506428Y-139961905D01*
X117506428Y-139961905D02*
X117411190Y-139914286D01*
D13*
%TO.C,J5*%
X140235000Y-121100000D02*
X141365000Y-121100000D01*
X140235000Y-121860000D02*
X140235000Y-121100000D01*
X140235000Y-122620000D02*
X140235000Y-127635000D01*
X140235000Y-122620000D02*
X140801529Y-122620000D01*
X140235000Y-127635000D02*
X141057470Y-127635000D01*
X141672530Y-127635000D02*
X142327470Y-127635000D01*
X141928471Y-122620000D02*
X142071529Y-122620000D01*
X142125000Y-121165000D02*
X142327470Y-121165000D01*
X142125000Y-121296529D02*
X142125000Y-121165000D01*
X142125000Y-122566529D02*
X142125000Y-122423471D01*
X142942530Y-121165000D02*
X143765000Y-121165000D01*
X142942530Y-127635000D02*
X143765000Y-127635000D01*
X143765000Y-121165000D02*
X143765000Y-127635000D01*
X139500000Y-118125000D02*
X144500000Y-118125000D01*
X144500000Y-118125000D02*
X144500000Y-130675000D01*
X144500000Y-130675000D02*
X139500000Y-130675000D01*
X139500000Y-130675000D02*
X139500000Y-118125000D01*
X139206001Y-121860000D02*
G75*
G03*
X139206001Y-121860000I-283981J0D01*
G01*
%TO.C,R1*%
X114027500Y-127937258D02*
X114027500Y-127462742D01*
X115072500Y-127937258D02*
X115072500Y-127462742D01*
%TO.C,J3*%
X114582500Y-141140000D02*
X114582500Y-140140000D01*
X114582500Y-140140000D02*
X113582500Y-140640000D01*
X113582500Y-140640000D02*
X114582500Y-141140000D01*
X113192500Y-145850000D02*
X104072500Y-145850000D01*
X113192500Y-131260000D02*
X111882500Y-131260000D01*
X113192500Y-112570000D02*
X113192500Y-145850000D01*
X111882500Y-144550000D02*
X105382500Y-144550000D01*
X111882500Y-131260000D02*
X111882500Y-144550000D01*
X111882500Y-127160000D02*
X113192500Y-127160000D01*
X111882500Y-127160000D02*
X111882500Y-127160000D01*
X111882500Y-113870000D02*
X111882500Y-127160000D01*
X105382500Y-144550000D02*
X105382500Y-113870000D01*
X105382500Y-113870000D02*
X111882500Y-113870000D01*
X104072500Y-145850000D02*
X104072500Y-112570000D01*
X104072500Y-112570000D02*
X113192500Y-112570000D01*
%TO.C,J2*%
X124417500Y-114820000D02*
X124417500Y-115820000D01*
X124417500Y-115820000D02*
X125417500Y-115320000D01*
X125417500Y-115320000D02*
X124417500Y-114820000D01*
X125807500Y-110110000D02*
X134927500Y-110110000D01*
X125807500Y-118350000D02*
X127117500Y-118350000D01*
X125807500Y-130690000D02*
X125807500Y-110110000D01*
X127117500Y-111410000D02*
X133617500Y-111410000D01*
X127117500Y-118350000D02*
X127117500Y-111410000D01*
X127117500Y-122450000D02*
X125807500Y-122450000D01*
X127117500Y-122450000D02*
X127117500Y-122450000D01*
X127117500Y-129390000D02*
X127117500Y-122450000D01*
X133617500Y-111410000D02*
X133617500Y-129390000D01*
X133617500Y-129390000D02*
X127117500Y-129390000D01*
X134927500Y-110110000D02*
X134927500Y-130690000D01*
X134927500Y-130690000D02*
X125807500Y-130690000D01*
%TO.C,J1*%
X124370000Y-137300000D02*
X124370000Y-138300000D01*
X124370000Y-138300000D02*
X125370000Y-137800000D01*
X125370000Y-137800000D02*
X124370000Y-137300000D01*
X125760000Y-132590000D02*
X134880000Y-132590000D01*
X125760000Y-138290000D02*
X127070000Y-138290000D01*
X125760000Y-148090000D02*
X125760000Y-132590000D01*
X127070000Y-133890000D02*
X133570000Y-133890000D01*
X127070000Y-138290000D02*
X127070000Y-133890000D01*
X127070000Y-142390000D02*
X125760000Y-142390000D01*
X127070000Y-142390000D02*
X127070000Y-142390000D01*
X127070000Y-146790000D02*
X127070000Y-142390000D01*
X133570000Y-133890000D02*
X133570000Y-146790000D01*
X133570000Y-146790000D02*
X127070000Y-146790000D01*
X134880000Y-132590000D02*
X134880000Y-148090000D01*
X134880000Y-148090000D02*
X125760000Y-148090000D01*
%TO.C,J4*%
X139500000Y-132400000D02*
X144500000Y-132400000D01*
X144500000Y-132400000D02*
X144500000Y-142400000D01*
X144500000Y-142400000D02*
X139500000Y-142400000D01*
X139500000Y-142400000D02*
X139500000Y-132400000D01*
X139286781Y-136130000D02*
G75*
G03*
X139286781Y-136130000I-283981J0D01*
G01*
%TD*%
M02*
